<svg width="61" height="60" viewBox="0 0 61 60" fill="none" xmlns="http://www.w3.org/2000/svg">
<path d="M57.7968 56.9473C56.3332 55.7276 55.1263 53.8548 54.4583 51.8062C58.596 48.2281 60.9467 43.3373 60.9467 38.2246C60.9467 35.6115 60.3538 33.0786 59.1845 30.6967C58.0648 28.4162 56.4679 26.3718 54.437 24.6225C51.468 22.064 47.8026 20.333 43.8167 19.563C43.8202 19.414 43.8223 19.2651 43.8223 19.1155C43.8223 16.5024 43.2295 13.9695 42.0602 11.5876C40.9405 9.30708 39.3429 7.26342 37.3127 5.51334C33.1864 1.95786 27.7163 0 21.9108 0C16.1053 0 10.636 1.95785 6.50964 5.51263C4.47874 7.26271 2.88112 9.30637 1.76214 11.5869C0.592817 13.9695 0 16.5024 0 19.1155C0 21.9576 0.551688 24.5487 1.64017 26.8172C2.59747 28.8119 3.99584 30.6137 5.80549 32.1865C5.13751 34.2359 3.9306 36.1086 2.46629 37.329C1.93871 37.7687 1.72668 38.4827 1.9302 39.1394C2.13371 39.796 2.71093 40.2654 3.39451 40.3307C5.14956 40.498 7.106 40.2484 9.05251 39.6102C11.2061 38.9039 13.2618 37.7637 15.1622 36.2228C15.8919 35.6307 16.0039 34.5592 15.4118 33.8288C14.8197 33.0992 13.7482 32.9871 13.0179 33.5792C11.0189 35.2003 9.122 36.064 7.5499 36.5135C8.38595 35.1301 9.02202 33.5799 9.39926 31.961C9.55031 31.3122 9.30921 30.635 8.78234 30.228C6.93156 28.7977 5.59914 27.2008 4.70921 25.345C3.83062 23.5141 3.40373 21.4768 3.40373 19.1155C3.40373 10.4516 11.706 3.40373 21.9108 3.40373C32.1156 3.40373 40.4179 10.4516 40.4179 19.1155C40.4179 19.1261 40.4179 19.1361 40.4179 19.1467C39.9598 19.1219 39.4982 19.1098 39.0351 19.1098C27.9092 19.1098 18.5532 26.3683 17.2718 35.9945C17.1484 36.922 17.7958 37.7736 18.7205 37.9041C19.0744 37.9807 20.3515 38.231 21.9108 38.231C27.7163 38.231 33.1857 36.2731 37.312 32.7184C39.3429 30.9683 40.9405 28.9246 42.0602 26.6441C42.6473 25.4486 43.0891 24.2147 43.3834 22.9518C51.4978 24.6161 57.5429 30.8328 57.5429 38.2253C57.5429 40.4626 56.999 42.6239 55.9269 44.6492C54.8781 46.629 53.3826 48.3777 51.4814 49.847C50.9546 50.254 50.7135 50.9312 50.8645 51.58C51.2418 53.1989 51.8778 54.7497 52.7139 56.1325C51.1418 55.6829 49.2442 54.8199 47.2459 53.1982C46.7552 52.8004 46.1035 52.699 45.5235 52.9472C45.4093 52.9919 43.1948 53.8322 38.9933 53.9371C34.6968 54.0449 30.4896 52.7763 27.1469 50.3646C23.9226 48.0387 21.6967 44.813 20.8791 41.283C20.667 40.3676 19.753 39.7967 18.8368 40.0087C17.9214 40.2208 17.3505 41.1348 17.5625 42.051C18.5659 46.3844 21.2627 50.3171 25.155 53.1252C29.0977 55.9694 34.0423 57.4663 39.0784 57.3401C42.3786 57.2572 44.6492 56.7601 45.844 56.4183C47.5331 57.6699 49.335 58.6144 51.2106 59.2299C52.7635 59.739 54.3229 60.0007 55.7815 60.0007C56.1509 60.0007 56.514 59.9837 56.8686 59.9504C57.5521 59.8851 58.1301 59.415 58.3329 58.7591C58.5364 58.1017 58.3251 57.3876 57.7968 56.9473ZM21.9108 34.8266C21.5782 34.8266 21.262 34.8117 20.9727 34.7897C21.7981 31.6604 23.7474 28.8005 26.581 26.6087C29.9954 23.9679 34.4188 22.5129 39.0351 22.5129C39.3507 22.5129 39.6648 22.5192 39.9768 22.5327C38.1346 29.5586 30.7336 34.8266 21.9108 34.8266Z" fill="#B86AAB"/>
</svg>
