<svg viewBox="0 0 72 72" xmlns="http://www.w3.org/2000/svg">
<path d="M62.5692 35.7392C62.1921 35.3741 61.6834 35.19 61.1678 35.2319L59.8053 35.3433C57.2694 35.5511 54.7289 35.0343 52.4584 33.8489C50.6584 32.9093 49.0849 31.5784 47.8418 29.9552C48.3321 29.2329 48.7743 28.4916 49.1621 27.7385C49.638 26.8131 49.2975 25.6648 48.4025 25.1733C47.5075 24.6817 46.3952 25.0334 45.9194 25.958C45.7824 26.2243 45.6356 26.4907 45.4803 26.7554C43.7629 24.8177 41.65 23.2134 39.2717 22.0549C38.6046 21.7301 37.9154 21.4393 37.2078 21.1832C39.9311 19.0218 41.6898 15.626 41.6898 11.8122C41.6898 5.29877 36.5606 0 30.2564 0C23.9521 0 18.8222 5.29877 18.8222 11.8122C18.8222 15.4988 20.4654 18.795 23.0349 20.9627C22.5989 21.1058 22.1682 21.263 21.7429 21.4337C19.0241 22.5227 16.6496 24.1104 14.6844 26.154C10.9268 30.0611 8.96156 35.3338 9.00057 41.3999C9.00745 42.447 9.83517 43.2887 10.8488 43.2839C11.8624 43.2768 12.6794 42.4225 12.6725 41.3746C12.6404 36.3406 14.2369 32.002 17.2899 28.8267C20.421 25.57 24.851 23.7334 29.8027 23.6283C32.6094 23.6892 35.3328 24.3277 37.7058 25.4847C39.899 26.5539 41.7487 28.0159 43.219 29.8398C41.995 31.2141 40.576 32.4454 39.0858 33.3992C36.5851 35.0003 34.0736 35.6001 30.9426 35.3433L29.5801 35.2319C29.0645 35.19 28.5558 35.3741 28.1787 35.7392C27.8015 36.1043 27.5912 36.6172 27.5988 37.1514L27.7839 49.8297C27.8505 54.3888 29.2198 58.7764 31.7427 62.5175C34.2664 66.2587 37.7761 69.1052 41.8933 70.7482L44.7092 71.8728C44.9203 71.9573 45.1513 72 45.3778 72C45.6042 72 45.8283 71.9565 46.0395 71.8728L48.8554 70.7482C52.9725 69.1044 56.4823 66.2587 59.0059 62.5175C61.5296 58.7764 62.8982 54.3888 62.9647 49.8297L63.1498 37.1514C63.1575 36.6172 62.9464 36.1043 62.5692 35.7392ZM30.2564 3.7933C34.5364 3.7933 38.0186 7.39061 38.0186 11.8122C38.0186 16.233 34.538 19.8295 30.2587 19.8311H30.2564H30.2479C25.9717 19.8263 22.4949 16.2314 22.4949 11.813C22.4941 7.39061 25.9763 3.7933 30.2564 3.7933ZM59.2928 49.7728C59.2369 53.5733 58.0964 57.2306 55.9927 60.349C53.889 63.4674 50.9637 65.8398 47.5312 67.2102L45.3732 68.0716L43.2152 67.2102C39.7835 65.8398 36.8574 63.4674 34.7537 60.349C32.65 57.2306 31.5094 53.5733 31.4536 49.7728L31.299 39.1682C34.9258 39.3523 38.0293 38.5376 41.0189 36.6235C42.6169 35.6001 44.1224 34.3381 45.455 32.9243C46.9429 34.7 48.7567 36.1667 50.8015 37.2344C53.2594 38.5178 55.9674 39.1816 58.7083 39.1816C58.9539 39.1816 59.201 39.1761 59.4473 39.1658L59.2928 49.7728Z"/>
</svg>
