<svg viewBox="0 0 72 72" xmlns="http://www.w3.org/2000/svg">
<path d="M68.2789 67.2753C66.5498 65.8344 65.124 63.622 64.3349 61.2018C69.223 56.9747 72 51.197 72 45.1571C72 42.0701 71.2997 39.0778 69.9183 36.2639C68.5955 33.5698 66.709 31.1547 64.3098 29.088C60.8023 26.0655 56.4721 24.0207 51.7633 23.1109C51.7675 22.935 51.77 22.7591 51.77 22.5823C51.77 19.4953 51.0697 16.503 49.6883 13.6891C48.3655 10.995 46.4782 8.58072 44.0798 6.51324C39.2051 2.31293 32.743 0 25.8846 0C19.0262 0 12.5649 2.31293 7.69023 6.5124C5.29101 8.57988 3.40364 10.9942 2.08172 13.6883C0.70033 16.503 0 19.4953 0 22.5823C0 25.9399 0.651743 29.0009 1.93764 31.6807C3.06855 34.0372 4.72053 36.1659 6.85838 38.0239C6.06925 40.4449 4.64346 42.6573 2.91358 44.099C2.29032 44.6184 2.03984 45.462 2.28026 46.2377C2.52069 47.0135 3.20259 47.568 4.01015 47.6451C6.08349 47.8428 8.39475 47.5479 10.6943 46.794C13.2384 45.9596 15.667 44.6126 17.912 42.7922C18.7741 42.0927 18.9064 40.8269 18.2069 39.9641C17.5074 39.1021 16.2416 38.9697 15.3788 39.6692C13.0173 41.5842 10.7764 42.6045 8.91916 43.1357C9.90683 41.5013 10.6583 39.67 11.1039 37.7575C11.2824 36.991 10.9975 36.191 10.3751 35.7101C8.18867 34.0205 6.6146 32.1339 5.56327 29.9416C4.52534 27.7787 4.02104 25.3719 4.02104 22.5823C4.02104 12.3471 13.829 4.02104 25.8846 4.02104C37.9402 4.02104 47.7481 12.3471 47.7481 22.5823C47.7481 22.5949 47.7481 22.6066 47.7481 22.6192C47.207 22.5898 46.6616 22.5756 46.1146 22.5756C32.9708 22.5756 21.918 31.1505 20.4042 42.5225C20.2585 43.6182 21.0233 44.6243 22.1157 44.7784C22.5337 44.8689 24.0424 45.1646 25.8846 45.1646C32.743 45.1646 39.2043 42.8517 44.0789 38.6522C46.4781 36.5847 48.3655 34.1704 49.6883 31.4763C50.3819 30.0639 50.9038 28.6063 51.2515 27.1143C60.8374 29.0805 67.979 36.4247 67.979 45.1579C67.979 47.8009 67.3364 50.3543 66.0698 52.7468C64.8308 55.0857 63.0641 57.1515 60.8182 58.8872C60.1957 59.3681 59.9109 60.1681 60.0894 60.9346C60.535 62.8471 61.2865 64.6792 62.2741 66.3127C60.4169 65.7816 58.1752 64.7621 55.8145 62.8463C55.2348 62.3763 54.4649 62.2565 53.7797 62.5497C53.6448 62.6025 51.0286 63.5952 46.0652 63.7192C40.9894 63.8465 36.0193 62.3478 32.0703 59.4988C28.2612 56.7511 25.6316 52.9403 24.6657 48.7701C24.4152 47.6886 23.3354 47.0143 22.2531 47.2648C21.1716 47.5152 20.4972 48.5951 20.7477 49.6774C21.9331 54.7967 25.1189 59.4426 29.7171 62.76C34.3748 66.1201 40.2162 67.8885 46.1657 67.7394C50.0644 67.6414 52.7468 67.0541 54.1583 66.6503C56.1538 68.1289 58.2824 69.2448 60.4982 69.9719C62.3328 70.5734 64.1749 70.8825 65.8981 70.8825C66.3345 70.8825 66.7634 70.8624 67.1823 70.823C67.9899 70.7459 68.6726 70.1905 68.9122 69.4156C69.1526 68.6391 68.903 67.7955 68.2789 67.2753ZM25.8846 41.1427C25.4917 41.1427 25.1181 41.1251 24.7763 41.0992C25.7514 37.4023 28.0543 34.0238 31.4018 31.4344C35.4354 28.3148 40.6611 26.5958 46.1146 26.5958C46.4874 26.5958 46.8585 26.6033 47.2271 26.6193C45.0507 34.9193 36.3074 41.1427 25.8846 41.1427Z"/>
</svg>
