<svg width="71" height="60" viewBox="0 0 71 60" fill="none" xmlns="http://www.w3.org/2000/svg">
<path d="M70.6764 56.0183C70.611 55.1425 69.9644 54.4209 69.1016 54.2595C66.1385 53.7042 63.4128 50.8041 61.8703 48.8451C64.0359 45.4236 65.1732 41.546 65.1732 37.5473C65.1732 32.0813 63.0189 26.8137 59.1082 22.7174C55.6092 19.0521 50.9212 16.5451 45.7812 15.562C44.8595 11.3769 42.4557 7.56871 38.9285 4.7477C35.1017 1.68615 30.2007 0 25.1293 0C19.5325 0 14.2617 2.00256 10.2889 5.63799C6.26847 9.31782 4.05444 14.2245 4.05444 19.4525C4.05444 22.8869 5.01899 26.2116 6.85689 29.1545C5.62921 30.5517 3.66055 32.4033 1.5797 32.794C0.716849 32.9554 0.0711235 33.6778 0.00493664 34.5528C-0.0604431 35.4277 0.470666 36.2381 1.29881 36.5271C4.03023 37.4787 6.31771 37.9549 8.36708 37.9549C10.4512 37.9549 12.2883 37.4626 14.0931 36.4762C15.0318 35.9637 15.3772 34.786 14.8639 33.8473C14.3513 32.9086 13.1737 32.5631 12.235 33.0765C10.8943 33.8086 9.47934 34.2347 7.40092 34.0402C8.48412 33.1532 9.6327 31.9812 10.8112 30.4387C11.335 29.7534 11.3423 28.8042 10.8289 28.1108C8.93209 25.5457 7.9288 22.552 7.9288 19.4525C7.9288 10.8627 15.6452 3.87435 25.1293 3.87435C29.3249 3.87435 33.3655 5.25863 36.5078 7.77211C39.5064 10.171 41.4888 13.4335 42.1143 16.9834C42.1143 16.985 42.1135 16.9866 42.1135 16.9882C41.9739 18.0488 42.7213 19.0223 43.7819 19.1611C48.6305 19.7979 53.0779 22.0112 56.3049 25.3923C59.5247 28.7655 61.298 33.0821 61.298 37.5473C61.298 41.1949 60.1317 44.7262 57.9257 47.7603C57.4366 48.4326 57.4309 49.3415 57.912 50.0195C59.4658 52.2109 61.1172 54.0012 62.8292 55.35C61.8735 55.379 60.9324 55.3185 60.0098 55.1692C58.0129 54.8455 56.0935 54.1069 54.3056 52.9737C53.6817 52.5782 52.8866 52.5725 52.257 52.9584C48.8726 55.0311 44.9176 56.1265 40.8196 56.1265C29.5275 56.1265 20.3413 47.7918 20.3413 37.5473C20.3413 33.1144 22.092 28.8211 25.2714 25.4593C28.4556 22.0919 32.8538 19.8649 37.6556 19.1893C38.7154 19.04 39.4531 18.0609 39.3038 17.0011C39.1545 15.9413 38.1754 15.2036 37.1156 15.3529C31.4477 16.1504 26.2416 18.7946 22.456 22.7973C18.5938 26.8815 16.4669 32.12 16.4669 37.5473C16.4669 40.6 17.1199 43.5598 18.4073 46.3453C19.6447 49.0227 21.4123 51.424 23.6619 53.483C28.2538 57.6859 34.347 60 40.8204 60C45.2275 60 49.503 58.916 53.2595 56.8545C55.5761 58.1363 58.6481 59.234 62.3772 59.234C64.5048 59.234 66.8464 58.8764 69.3825 57.9926C70.2106 57.7036 70.7417 56.8941 70.6764 56.0183Z" fill="#B86AAB"/>
<path d="M44.0113 39.0832C47.3852 37.8999 49.5661 35.0644 49.5661 31.8584C49.5661 29.7202 48.6056 27.7289 46.8622 26.2518C45.2107 24.853 43.0354 24.083 40.7358 24.083C38.437 24.083 36.2609 24.853 34.6095 26.2518C32.866 27.7289 31.9055 29.7202 31.9055 31.8584C31.9055 32.9278 32.7732 33.7955 33.8427 33.7955C34.9122 33.7955 35.7799 32.9278 35.7799 31.8584C35.7799 29.7073 38.0028 27.9574 40.7358 27.9574C43.4689 27.9574 45.6918 29.7073 45.6918 31.8584C45.6918 33.3952 44.5287 34.7964 42.7295 35.4276C40.3783 36.2517 38.7986 38.4673 38.7986 40.9397V42.8906C38.7986 43.9601 39.6663 44.8277 40.7358 44.8277C41.8053 44.8277 42.673 43.9601 42.673 42.8906V40.9397C42.673 40.1099 43.2114 39.3641 44.0113 39.0832Z" fill="#B86AAB"/>
<path d="M40.759 46.23C39.6895 46.23 38.8218 47.0977 38.8218 48.1672V49.0066C38.8218 50.0761 39.6895 50.9438 40.759 50.9438C41.8285 50.9438 42.6962 50.0761 42.6962 49.0066V48.1672C42.6962 47.0977 41.8285 46.23 40.759 46.23Z" fill="#B86AAB"/>
</svg>
