<svg viewBox="0 0 54 50" xmlns="http://www.w3.org/2000/svg">
<path d="M51.0651 33.0994C52.6868 30.0295 53.5088 26.7452 53.5088 23.3384C53.5088 20.1574 52.7891 17.0737 51.3688 14.1729C50.0063 11.3893 48.0611 8.89444 45.5873 6.75619C40.5457 2.39944 33.8575 0 26.7547 0C19.6519 0 12.9631 2.39944 7.92152 6.75619C5.44699 8.89444 3.50187 11.3899 2.13996 14.1729C0.719661 17.0737 0 20.1574 0 23.3384C0 26.5195 0.719661 29.6032 2.13996 32.5039C3.50252 35.287 5.44764 37.7825 7.92152 39.9207C12.9631 44.2775 19.6513 46.6769 26.7541 46.6769C28.9347 46.6769 30.6495 46.2736 30.7217 46.2565C31.5673 46.0545 32.0902 45.2031 31.8888 44.3544C31.6874 43.5057 30.8385 42.982 29.9922 43.184C29.9784 43.1873 28.5404 43.5189 26.7541 43.5189C13.7385 43.5182 3.14893 34.4659 3.14893 23.3384C3.14893 12.211 13.7385 3.15802 26.7547 3.15802C39.7709 3.15802 50.3605 12.211 50.3605 23.3384C50.3605 26.2247 49.6618 29.0117 48.2829 31.6217C46.9393 34.1652 45.0257 36.41 42.5951 38.2937C42.1077 38.6713 41.8846 39.2996 42.0244 39.9016C42.5892 42.33 43.6297 44.6301 45.0126 46.5756C44.3756 46.4492 43.7274 46.2782 43.0766 46.0637C40.8225 45.3222 38.657 44.1143 36.6404 42.4734C35.9653 41.9241 34.9734 42.028 34.4256 42.705C33.8778 43.382 33.9815 44.3768 34.6566 44.9262C36.9723 46.8098 39.4751 48.2026 42.0952 49.0645C43.9754 49.6829 45.8602 50.0007 47.619 50.0007C48.0624 50.0007 48.4974 49.9803 48.9232 49.9402C49.5556 49.8796 50.0902 49.4434 50.2778 48.8349C50.4655 48.2256 50.27 47.5638 49.7819 47.1552C47.7987 45.4979 46.181 42.9208 45.3426 40.1293C47.7443 38.1081 49.6664 35.7475 51.0651 33.0994Z" />
<path d="M26.8082 16.4447C29.0341 16.4447 30.9149 17.7132 30.9149 19.2146C30.9149 20.0863 31.6202 20.7936 32.4894 20.7936C33.3586 20.7936 34.0639 20.0863 34.0639 19.2146C34.0639 17.5731 33.2314 15.9947 31.7809 14.8841C30.8671 14.1848 29.7597 13.6992 28.5605 13.4591V10.7702C28.5605 9.89843 27.8552 9.19116 26.986 9.19116C26.1168 9.19116 25.4115 9.89843 25.4115 10.7702V13.3953C24.0759 13.6058 22.8393 14.1157 21.8362 14.8841C20.3851 15.9947 19.5532 17.5731 19.5532 19.2146C19.5532 20.8561 20.3857 22.4344 21.8362 23.545C23.0748 24.4931 24.6683 25.049 26.3647 25.1319C26.5058 25.1734 26.6547 25.1957 26.8089 25.1957C29.0348 25.1957 30.9156 26.4642 30.9156 27.9656C30.9156 29.467 29.0348 30.7354 26.8089 30.7354C24.583 30.7354 22.7021 29.467 22.7021 27.9656C22.7021 27.0938 21.9969 26.3866 21.1277 26.3866C20.2585 26.3866 19.5532 27.0938 19.5532 27.9656C19.5532 29.6071 20.3857 31.1855 21.8362 32.296C22.8393 33.0638 24.0765 33.5744 25.4115 33.7849V36.7659C25.4115 37.6377 26.1168 38.3449 26.986 38.3449C27.8552 38.3449 28.5605 37.6377 28.5605 36.7659V33.7211C29.7597 33.4809 30.8671 32.9954 31.7809 32.296C33.232 31.1855 34.0639 29.6071 34.0639 27.9656C34.0639 26.3241 33.2314 24.7457 31.7809 23.6352C30.5423 22.6871 28.9488 22.1311 27.2523 22.0482C27.1113 22.0068 26.9624 21.9844 26.8082 21.9844C24.5823 21.9844 22.7015 20.716 22.7015 19.2146C22.7008 17.7132 24.5817 16.4447 26.8082 16.4447Z" />
</svg>
