<svg viewBox="0 0 72 72" fill="none" xmlns="http://www.w3.org/2000/svg">
<path d="M13.7161 71.9997H2.12929C0.953742 71.9997 0 71.0388 0 69.8545V21.1835C0 20.5471 0.280356 19.9438 0.764768 19.5362L23.4044 0.49844C24.1896 -0.162102 25.3296 -0.166572 26.1201 0.487714L32.6224 5.86859V2.14577C32.6224 0.961445 33.5762 0.000575111 34.7517 0.000575111H41.7038C42.2734 0.000575111 42.819 0.23029 43.2192 0.638772C43.6193 1.04725 43.8402 1.59964 43.8331 2.17348L43.6681 14.9928L48.7864 19.3681C49.2566 19.7704 49.5307 20.3585 49.5378 20.9797L49.7161 36.7943C49.7295 37.9786 48.7872 38.9502 47.6108 38.9636C46.4335 38.9788 45.4709 38.0278 45.4576 36.8426L45.2908 22.0067L40.1486 17.6109C39.6641 17.197 39.3891 16.5865 39.3971 15.9474L39.547 4.29097H36.881V10.4075C36.881 11.2369 36.4063 11.9922 35.662 12.3471C34.9176 12.7019 34.0366 12.592 33.4005 12.0655L24.7796 4.93096L4.25857 22.1873V67.7093H11.5869V52.5231C11.5869 47.1315 15.9404 42.7445 21.2929 42.7445C26.6453 42.7445 30.9988 47.1306 30.9988 52.5231V67.5296H67.7414V49.9748L54.2222 43.01L41.16 50.2867V62.8603C41.16 64.0446 40.2062 65.0055 39.0307 65.0055C37.8551 65.0055 36.9014 64.0446 36.9014 62.8603V49.021C36.9014 48.2407 37.3219 47.5212 38.0006 47.144L53.1532 38.7026C53.7733 38.3576 54.5221 38.3451 55.1529 38.6696L70.8404 46.7516C71.552 47.1181 72 47.8564 72 48.6617V69.6748C72 70.8592 71.0463 71.82 69.8707 71.82H28.8687C27.6931 71.82 26.7394 70.8592 26.7394 69.6748V52.5231C26.7394 49.4975 24.296 47.0349 21.292 47.0349C18.2879 47.0349 15.8445 49.4966 15.8445 52.5231V69.8545C15.8454 71.0388 14.8926 71.9997 13.7161 71.9997Z"/>
</svg>
