<svg width="61" height="60" viewBox="0 0 61 60" fill="none" xmlns="http://www.w3.org/2000/svg">
<path d="M11.5157 60H1.78769C0.800735 60 0 59.1993 0 58.2123V17.6527C0 17.1223 0.235379 16.6195 0.642078 16.2799L19.6497 0.414883C20.3089 -0.135575 21.266 -0.1393 21.9297 0.405945L27.3889 4.89006V1.78768C27.3889 0.800726 28.1896 -9.01634e-06 29.1765 -9.01634e-06H35.0133C35.4916 -9.01634e-06 35.9496 0.191422 36.2856 0.531828C36.6215 0.872233 36.807 1.33256 36.801 1.81077L36.6625 12.4937L40.9596 16.1398C41.3544 16.475 41.5846 16.9651 41.5905 17.4828L41.7403 30.6618C41.7514 31.6488 40.9604 32.4584 39.9727 32.4696C38.9842 32.4823 38.1761 31.6897 38.1649 30.702L38.0249 18.3387L33.7076 14.6754C33.3009 14.3305 33.07 13.8218 33.0767 13.2892L33.2026 3.57537H30.9642V8.67251C30.9642 9.36375 30.5657 9.99316 29.9408 10.2889C29.3158 10.5846 28.5762 10.493 28.0421 10.0542L20.8042 4.10869L3.57537 18.4891V56.4246H9.728V43.7693C9.728 39.2762 13.3831 35.6204 17.8769 35.6204C22.3707 35.6204 26.0257 39.2755 26.0257 43.7693V56.2749H56.8738V41.6457L45.5235 35.8416L34.5567 41.9056V52.3837C34.5567 53.3706 33.756 54.1714 32.7691 54.1714C31.7821 54.1714 30.9814 53.3706 30.9814 52.3837V40.8509C30.9814 40.2006 31.3344 39.601 31.9043 39.2867L44.6259 32.2521C45.1466 31.9646 45.7752 31.9542 46.3048 32.2245L59.4756 38.9597C60.073 39.265 60.4492 39.8803 60.4492 40.5514V58.0626C60.4492 59.0495 59.6484 59.8503 58.6615 59.8503H24.2373C23.2504 59.8503 22.4496 59.0495 22.4496 58.0626V43.7693C22.4496 41.2479 20.3983 39.1958 17.8761 39.1958C15.354 39.1958 13.3026 41.2471 13.3026 43.7693V58.2123C13.3034 59.1993 12.5034 60 11.5157 60Z" fill="#FFFFFF"/>
</svg>
