<svg viewBox="0 0 24 24" fill="none" xmlns="http://www.w3.org/2000/svg">
<path d="M12.6419 6.29588C12.6607 5.9666 12.7079 5.70787 12.7362 5.60909C13.3349 3.46404 15.018 3.2994 15.711 3.32292C17.0688 3.37466 18.6152 4.27314 18.9358 5.89604C19.3412 7.9423 18.7519 10.3367 17.1443 13.225C16.2296 14.8667 15.084 16.4896 13.863 18.0654C14.5418 18.4182 15.249 18.7663 15.9939 19.1003C17.1678 17.5621 18.2757 15.9721 19.1762 14.3492C21.062 10.9623 21.7268 8.05049 21.2129 5.44445C20.9583 4.16024 20.2606 3.05008 19.1951 2.23158C18.2286 1.48834 17.0217 1.05086 15.7959 1.00382C14.622 0.961481 13.5141 1.27195 12.5995 1.90229C11.7556 2.4856 11.1097 3.33233 10.7042 4.36251C11.2275 4.66357 12.0856 5.28451 12.6419 6.29588Z" fill="#B86AAB"/>
<path d="M12.3873 19.9094C12.1138 20.2387 11.8404 20.568 11.5716 20.8973C11.1615 21.3912 11.2275 22.1203 11.7178 22.5296C11.9347 22.713 12.1987 22.7977 12.4627 22.7977C12.7974 22.7977 13.1274 22.6566 13.3537 22.3791C13.7403 21.9181 14.1269 21.4477 14.5088 20.9772C13.7686 20.6291 13.0661 20.2716 12.3873 19.9094Z" fill="#B86AAB"/>
<path d="M19.7608 23C19.6335 23 19.5062 22.9812 19.3789 22.9341C14.8388 21.3536 11.1049 19.4578 8.29037 17.3034C5.90011 15.4735 4.21231 13.4696 3.41555 11.5127C2.94882 10.3696 2.87338 9.11833 3.19869 7.90469C3.4957 6.79453 4.12273 5.76434 4.96663 5.00228C5.71153 4.33431 6.59314 3.89683 7.51247 3.7416C8.53081 3.57225 9.57743 3.751 10.5345 4.25904C11.1427 4.58362 12.5947 5.51973 13.0285 7.27434C13.184 7.89528 12.8022 8.52562 12.1798 8.67615C11.5575 8.83139 10.9258 8.45036 10.7749 7.82942C10.5581 6.95917 9.70001 6.44173 9.44071 6.30531C8.04993 5.56677 6.93259 6.35235 6.51771 6.72397C6.00383 7.18497 5.62195 7.81531 5.43808 8.4974C5.24479 9.22182 5.28722 9.96036 5.56066 10.6377C6.00854 11.7338 7.08817 13.4649 9.6953 15.4594C12.3119 17.4633 15.8242 19.2415 20.1332 20.7421C20.7367 20.9537 21.0573 21.6123 20.8451 22.2191C20.6943 22.6989 20.2417 23 19.7608 23Z" fill="#D72C32"/>
</svg>
