<svg width="48" height="48" viewBox="0 0 48 48" fill="none" xmlns="http://www.w3.org/2000/svg">
<path d="M11.375 14.9889H28.5516C28.7523 14.9889 28.9448 14.9099 29.0867 14.7693C29.2287 14.6287 29.3084 14.438 29.3084 14.2392C29.3084 14.0404 29.2287 13.8497 29.0867 13.7091C28.9448 13.5685 28.7523 13.4895 28.5516 13.4895H11.375C11.1742 13.4895 10.9817 13.5685 10.8398 13.7091C10.6979 13.8497 10.6181 14.0404 10.6181 14.2392C10.6181 14.438 10.6979 14.6287 10.8398 14.7693C10.9817 14.9099 11.1742 14.9889 11.375 14.9889Z" fill="currentColor"/>
<path d="M36.625 20.9873H11.375C11.1742 20.9873 10.9817 20.9083 10.8398 20.7677C10.6979 20.6271 10.6181 20.4364 10.6181 20.2376C10.6181 20.0387 10.6979 19.848 10.8398 19.7075C10.9817 19.5669 11.1742 19.4879 11.375 19.4879H36.625C36.8258 19.4879 37.0183 19.5669 37.1602 19.7075C37.3021 19.848 37.3818 20.0387 37.3818 20.2376C37.3818 20.4364 37.3021 20.6271 37.1602 20.7677C37.0183 20.9083 36.8258 20.9873 36.625 20.9873Z" fill="currentColor"/>
<path d="M11.375 26.9857H36.625C36.7244 26.9857 36.8228 26.9663 36.9147 26.9286C37.0065 26.8909 37.0899 26.8357 37.1602 26.7661C37.2305 26.6965 37.2862 26.6138 37.3242 26.5229C37.3623 26.4319 37.3818 26.3344 37.3818 26.236C37.3818 26.1375 37.3623 26.04 37.3242 25.9491C37.2862 25.8581 37.2305 25.7755 37.1602 25.7059C37.0899 25.6362 37.0065 25.581 36.9147 25.5433C36.8228 25.5057 36.7244 25.4863 36.625 25.4863H11.375C11.2756 25.4863 11.1772 25.5057 11.0853 25.5433C10.9935 25.581 10.9101 25.6362 10.8398 25.7059C10.7695 25.7755 10.7138 25.8581 10.6758 25.9491C10.6377 26.04 10.6181 26.1375 10.6181 26.236C10.6181 26.3344 10.6377 26.4319 10.6758 26.5229C10.7138 26.6138 10.7695 26.6965 10.8398 26.7661C10.9101 26.8357 10.9935 26.8909 11.0853 26.9286C11.1772 26.9663 11.2756 26.9857 11.375 26.9857Z" fill="currentColor"/>
<path fill-rule="evenodd" clip-rule="evenodd" d="M36.6278 42.6676C36.926 42.7919 37.2461 42.8563 37.5696 42.8571C37.9005 42.8565 38.2279 42.7911 38.5332 42.6646C38.9885 42.4832 39.378 42.1699 39.6507 41.7658C39.9234 41.3616 40.0667 40.8852 40.0617 40.3991V35.0783H43.8093C44.4657 35.077 45.0948 34.8181 45.5589 34.3584C46.0231 33.8986 46.2844 33.2754 46.2857 32.6252V7.59596C46.2844 6.94576 46.0231 6.32255 45.5589 5.86279C45.0948 5.40302 44.4657 5.14415 43.8093 5.14285H4.19065C3.53428 5.14415 2.90517 5.40302 2.44104 5.86279C1.97691 6.32255 1.71559 6.94576 1.71428 7.59596V32.6252C1.71581 33.2753 1.97723 33.8983 2.44133 34.3579C2.90544 34.8174 3.53442 35.0762 4.19065 35.0775H28.7121L35.8327 42.1328C36.0594 42.3615 36.3296 42.5432 36.6278 42.6676ZM3.51012 6.92182C3.69063 6.74301 3.93538 6.64246 4.19065 6.64225H43.8102C44.0654 6.64246 44.3102 6.74301 44.4907 6.92182C44.6712 7.10063 44.7727 7.34309 44.7729 7.59596V32.6244C44.7727 32.8773 44.6712 33.1197 44.4907 33.2985C44.3102 33.4773 44.0654 33.5779 43.8102 33.5781H39.3049C39.2054 33.5781 39.1069 33.5975 39.0151 33.6352C38.9232 33.673 38.8397 33.7283 38.7694 33.798C38.6992 33.8677 38.6434 33.9504 38.6054 34.0415C38.5675 34.1325 38.548 34.2301 38.5481 34.3286V40.3991C38.5477 40.5875 38.4911 40.7715 38.3853 40.9281C38.2794 41.0846 38.1292 41.2065 37.9535 41.2786C37.7778 41.3506 37.5845 41.3695 37.398 41.3328C37.2115 41.2962 37.0401 41.2056 36.9054 41.0726L29.5623 33.7985C29.4203 33.658 29.2279 33.579 29.0272 33.5789H4.19065C3.93538 33.5787 3.69063 33.4781 3.51012 33.2993C3.32962 33.1205 3.22811 32.8781 3.22789 32.6252V7.59596C3.22811 7.34309 3.32962 7.10063 3.51012 6.92182Z" fill="currentColor"/>
</svg>
