<svg viewBox="0 0 72 72" xmlns="http://www.w3.org/2000/svg">
<path d="M60.4678 13.0207C54.507 7.17996 46.7771 3.75727 38.5121 3.25672V2.11876C38.5121 0.94903 37.5631 0 36.3933 0C35.2236 0 34.2746 0.94903 34.2746 2.11876V3.25672C26.0096 3.75727 18.2797 7.17908 12.3189 13.0207C5.86107 19.3487 2.1965 27.8061 2.00051 36.8356C1.97844 37.8464 2.67322 38.731 3.66021 38.9499C4.6472 39.1689 5.65096 38.6604 6.05794 37.7352C7.68056 34.0494 11.3301 31.6676 15.3558 31.6676C17.1391 31.6676 18.8915 32.1355 20.424 33.0209C21.9142 33.8817 23.1714 35.1159 24.0595 36.5902C24.4426 37.2267 25.1312 37.6151 25.8746 37.6151C26.6179 37.6151 27.3065 37.2258 27.6896 36.5902C28.5778 35.1159 29.8349 33.8817 31.3251 33.0209C32.2432 32.4904 33.2399 32.1116 34.2746 31.8918V62.8619C34.2746 65.5643 32.0764 67.7625 29.3741 67.7625C26.6717 67.7625 24.4735 65.5643 24.4735 62.8619C24.4735 61.6922 23.5245 60.7432 22.3548 60.7432C21.185 60.7432 20.236 61.6922 20.236 62.8619C20.236 67.9002 24.3349 72 29.3741 72C34.4123 72 38.5121 67.9011 38.5121 62.8619V29.5479C38.5121 28.3782 37.5631 27.4292 36.3933 27.4292C33.8676 27.4292 31.3816 28.0939 29.2054 29.3511C27.9686 30.0653 26.8457 30.9613 25.8746 32.0013C24.9035 30.9613 23.7805 30.0653 22.5437 29.3511C20.3675 28.0939 17.8815 27.4292 15.3558 27.4292C12.3816 27.4292 9.55302 28.3464 7.19943 29.9646C8.56073 24.7242 11.324 19.9287 15.2852 16.047C20.9564 10.4905 28.4524 7.43068 36.3933 7.4298C36.3933 7.4298 36.3933 7.4298 36.3942 7.4298C36.3951 7.4298 36.3942 7.4298 36.3951 7.4298C44.3361 7.4298 51.8321 10.4905 57.5033 16.047C61.4645 19.9287 64.2268 24.7233 65.589 29.9637C63.2363 28.3455 60.4069 27.4283 57.4327 27.4283C54.9069 27.4283 52.4209 28.093 50.2448 29.3502C49.0079 30.0644 47.8841 30.9604 46.913 32.0004C46.0699 31.0982 45.1121 30.3027 44.0694 29.6433C43.0798 29.0182 41.7715 29.314 41.1464 30.3036C40.5214 31.2933 40.8171 32.6016 41.8068 33.2266C43.1443 34.0715 44.2831 35.2342 45.0988 36.5884C45.482 37.2249 46.1706 37.6133 46.9139 37.6133C47.6572 37.6133 48.3449 37.224 48.729 36.5884C49.6171 35.1141 50.8742 33.8799 52.3644 33.0192C53.8961 32.1346 55.6485 31.6667 57.4318 31.6667C61.4574 31.6667 65.107 34.0485 66.7296 37.7352C67.0739 38.5165 67.8429 39.0003 68.6683 39.0003C68.8201 39.0003 68.9746 38.9835 69.1274 38.9499C70.1143 38.731 70.8091 37.8455 70.7871 36.8356C70.5902 27.8061 66.9256 19.3487 60.4678 13.0207Z"/>
</svg>
