<svg width="369" height="75" viewBox="0 0 369 75" fill="none" xmlns="http://www.w3.org/2000/svg">
<path d="M33.0478 18.2778C33.1111 17.1702 33.2695 16.2999 33.3645 15.9676C35.3756 8.75246 41.0288 8.19867 43.3566 8.27778C47.9172 8.45183 53.1112 11.474 54.188 16.9328C55.5498 23.8157 53.5704 31.8695 48.1706 41.5847C45.0985 47.1068 41.2505 52.5657 37.1492 57.8663C39.4295 59.053 41.8048 60.2239 44.3067 61.3473C48.2497 56.1732 51.971 50.8252 54.9956 45.3663C61.3297 33.9739 63.5625 24.1796 61.8365 15.4138C60.9814 11.0942 58.6377 7.36006 55.0589 4.6069C51.8127 2.10691 47.7588 0.635393 43.6417 0.477165C39.6986 0.334761 35.9773 1.37906 32.9053 3.49931C30.0708 5.46133 27.9013 8.30943 26.5395 11.7746C28.313 12.7873 31.1951 14.8759 33.0478 18.2778Z" fill="#B86AAB"/>
<path d="M32.2085 64.0688C31.29 65.1764 30.3716 66.284 29.4689 67.3916C28.0913 69.053 28.313 71.5055 29.9598 72.8821C30.6883 73.4992 31.575 73.784 32.4618 73.784C33.5861 73.784 34.6946 73.3093 35.4547 72.3758C36.7532 70.8251 38.0517 69.2429 39.3344 67.6606C36.8482 66.5055 34.4888 65.303 32.2085 64.0688Z" fill="#B86AAB"/>
<path d="M240.142 67.9295C240.142 68.5466 240.016 69.0846 239.762 69.5434C239.509 70.0023 239.177 70.3662 238.749 70.6036C238.321 70.8409 237.862 70.9675 237.355 70.9675C236.849 70.9675 236.39 70.8409 235.962 70.6036C235.55 70.3662 235.202 70.0023 234.964 69.5434C234.711 69.0846 234.584 68.5308 234.584 67.9137C234.584 67.2966 234.711 66.7586 234.964 66.2998C235.218 65.8409 235.55 65.4928 235.962 65.2555C236.374 65.0181 236.849 64.8916 237.355 64.8916C237.862 64.8916 238.337 65.0181 238.749 65.2555C239.177 65.4928 239.509 65.8567 239.762 66.3156C240.016 66.7745 240.142 67.3124 240.142 67.9295ZM233.191 67.9137C233.191 68.7365 233.365 69.4801 233.697 70.1289C234.03 70.7776 234.505 71.2839 235.091 71.632C235.677 71.9801 236.342 72.17 237.07 72.17C237.783 72.17 238.401 72.0118 238.923 71.6953C239.446 71.3789 239.857 70.9833 240.127 70.4928V72.0276H241.504V60.9675H240.127V65.3029C239.842 64.8283 239.414 64.4327 238.876 64.1479C238.321 63.8472 237.735 63.7048 237.102 63.7048C236.358 63.7048 235.693 63.8789 235.107 64.227C234.521 64.5751 234.046 65.0656 233.713 65.6985C233.365 66.3472 233.191 67.0751 233.191 67.9137ZM228.282 63.7048C227.728 63.7048 227.205 63.8156 226.746 64.0529C226.287 64.2903 225.922 64.6067 225.653 65.0181V63.8472H224.291V72.0434H225.653V67.5181C225.653 66.6637 225.859 66.015 226.287 65.5561C226.714 65.0972 227.284 64.8916 227.997 64.8916C228.709 64.8916 229.264 65.1131 229.675 65.5403C230.087 65.9675 230.293 66.6004 230.293 67.4232V72.0593H231.639V67.2333C231.639 66.0941 231.322 65.2238 230.705 64.6226C230.087 64.0213 229.279 63.7048 228.282 63.7048ZM220.744 67.9295C220.744 68.5466 220.617 69.0846 220.364 69.5434C220.111 70.0023 219.778 70.3662 219.351 70.6036C218.923 70.8409 218.464 70.9675 217.957 70.9675C217.45 70.9675 216.991 70.8409 216.564 70.6036C216.152 70.3662 215.804 70.0023 215.566 69.5434C215.313 69.0846 215.186 68.5308 215.186 67.9137C215.186 67.2966 215.313 66.7586 215.566 66.2998C215.819 65.8409 216.152 65.4928 216.564 65.2555C216.975 65.0181 217.45 64.8916 217.957 64.8916C218.464 64.8916 218.939 65.0181 219.351 65.2555C219.778 65.4928 220.111 65.8567 220.364 66.3156C220.633 66.7745 220.744 67.3124 220.744 67.9295ZM213.808 67.9137C213.808 68.7365 213.982 69.4801 214.315 70.1289C214.648 70.7776 215.123 71.2839 215.709 71.632C216.294 71.996 216.96 72.17 217.688 72.17C218.401 72.17 219.018 72.0118 219.557 71.6953C220.095 71.3789 220.491 70.9833 220.76 70.5086V72.0276H222.138V63.8314H220.76V65.3188C220.507 64.8441 220.111 64.4643 219.572 64.1479C219.05 63.8314 218.416 63.689 217.704 63.689C216.975 63.689 216.31 63.8631 215.724 64.2112C215.138 64.5593 214.663 65.0498 214.331 65.6827C213.982 66.3472 213.808 67.0751 213.808 67.9137ZM210.784 72.0434H212.146V60.9833H210.784V72.0434ZM207.268 67.9295C207.268 68.5466 207.142 69.0846 206.888 69.5434C206.635 70.0023 206.302 70.3662 205.875 70.6036C205.447 70.8409 204.988 70.9675 204.481 70.9675C203.975 70.9675 203.515 70.8409 203.088 70.6036C202.676 70.3662 202.328 70.0023 202.09 69.5434C201.837 69.0846 201.71 68.5308 201.71 67.9137C201.71 67.2966 201.837 66.7586 202.09 66.2998C202.344 65.8409 202.676 65.4928 203.088 65.2555C203.499 65.0181 203.975 64.8916 204.481 64.8916C204.988 64.8916 205.463 65.0181 205.875 65.2555C206.302 65.4928 206.635 65.8567 206.888 66.3156C207.142 66.7745 207.268 67.3124 207.268 67.9295ZM200.317 67.9137C200.317 68.7365 200.491 69.4801 200.823 70.1289C201.156 70.7776 201.631 71.2839 202.217 71.632C202.803 71.996 203.468 72.17 204.196 72.17C204.909 72.17 205.526 72.0118 206.065 71.6953C206.603 71.3789 206.999 70.9833 207.268 70.5086V72.0276H208.646V63.8314H207.268V65.3188C207.015 64.8441 206.619 64.4643 206.081 64.1479C205.558 63.8314 204.925 63.689 204.212 63.689C203.484 63.689 202.819 63.8631 202.233 64.2112C201.647 64.5593 201.172 65.0498 200.839 65.6827C200.491 66.3472 200.317 67.0751 200.317 67.9137ZM197.783 67.3441H192.605C192.668 66.5688 192.953 65.9517 193.428 65.5245C193.919 65.0814 194.505 64.8599 195.186 64.8599C195.661 64.8599 196.104 64.9548 196.5 65.1447C196.896 65.3346 197.213 65.6194 197.435 65.9991C197.672 66.3789 197.783 66.8377 197.783 67.3441ZM199.192 67.6289C199.192 66.8852 199.034 66.2048 198.701 65.6194C198.385 65.034 197.91 64.5593 197.324 64.227C196.722 63.8947 196.041 63.7207 195.265 63.7207C194.473 63.7207 193.761 63.8947 193.143 64.2428C192.526 64.5909 192.051 65.0814 191.718 65.7143C191.385 66.3472 191.211 67.0909 191.211 67.9453C191.211 68.7998 191.385 69.5434 191.734 70.1763C192.082 70.8251 192.557 71.3156 193.175 71.6637C193.792 72.0118 194.489 72.1858 195.265 72.1858C196.247 72.1858 197.054 71.9327 197.72 71.4422C198.385 70.9517 198.812 70.3029 199.034 69.5276H197.561C197.403 69.9865 197.118 70.3504 196.738 70.6194C196.342 70.8884 195.851 71.0308 195.265 71.0308C194.552 71.0308 193.935 70.8093 193.428 70.3504C192.921 69.8915 192.652 69.2744 192.605 68.4517H199.161C199.176 68.1669 199.192 67.8979 199.192 67.6289ZM189.976 62.708V61.6321H183.357V62.8188H188.345L183.294 70.9833V72.0593H189.992V70.8725H184.909L189.976 62.708ZM176.785 63.8472L174.932 70.7301L172.937 63.8472H171.544L169.517 70.7143L167.632 63.8472H166.239L168.804 72.0434H170.214L172.193 65.5403L174.172 72.0434H175.582L178.147 63.8472H176.785ZM164.164 67.3441H158.986C159.05 66.5688 159.335 65.9517 159.81 65.5245C160.301 65.0814 160.887 64.8599 161.567 64.8599C162.043 64.8599 162.486 64.9548 162.882 65.1447C163.278 65.3346 163.594 65.6194 163.816 65.9991C164.038 66.3789 164.164 66.8377 164.164 67.3441ZM165.558 67.6289C165.558 66.8852 165.4 66.2048 165.067 65.6194C164.75 65.034 164.275 64.5593 163.689 64.227C163.088 63.8947 162.407 63.7207 161.631 63.7207C160.839 63.7207 160.126 63.8947 159.509 64.2428C158.891 64.5909 158.416 65.0814 158.084 65.7143C157.751 66.3472 157.577 67.0909 157.577 67.9453C157.577 68.7998 157.751 69.5434 158.1 70.1763C158.448 70.8251 158.923 71.3156 159.541 71.6637C160.158 72.0118 160.855 72.1858 161.631 72.1858C162.613 72.1858 163.42 71.9327 164.085 71.4422C164.75 70.9517 165.178 70.3029 165.4 69.5276H163.927C163.769 69.9865 163.484 70.3504 163.103 70.6194C162.708 70.8884 162.217 71.0308 161.631 71.0308C160.918 71.0308 160.301 70.8093 159.794 70.3504C159.287 69.8915 159.018 69.2744 158.97 68.4517H165.526C165.542 68.1669 165.558 67.8979 165.558 67.6289ZM155.914 61.6162H154.552V69.8915L149.073 61.6162H147.712V72.0434H149.073V63.7523L154.552 72.0434H155.914V61.6162ZM139.746 67.9295C139.746 68.5466 139.62 69.0846 139.366 69.5434C139.113 70.0023 138.78 70.3662 138.353 70.6036C137.925 70.8409 137.466 70.9675 136.959 70.9675C136.453 70.9675 135.993 70.8409 135.566 70.6036C135.154 70.3662 134.806 70.0023 134.568 69.5434C134.315 69.0846 134.188 68.5308 134.188 67.9137C134.188 67.2966 134.315 66.7586 134.568 66.2998C134.822 65.8409 135.154 65.4928 135.566 65.2555C135.978 65.0181 136.453 64.8916 136.959 64.8916C137.466 64.8916 137.941 65.0181 138.353 65.2555C138.78 65.4928 139.113 65.8567 139.366 66.3156C139.62 66.7745 139.746 67.3124 139.746 67.9295ZM132.81 67.9137C132.81 68.7365 132.985 69.4801 133.317 70.1289C133.65 70.7776 134.125 71.2839 134.711 71.632C135.297 71.9801 135.962 72.17 136.69 72.17C137.403 72.17 138.02 72.0118 138.559 71.6953C139.097 71.3789 139.493 70.9833 139.762 70.5086V72.0276H141.14V63.8314H139.762V65.3188C139.509 64.8441 139.113 64.4643 138.575 64.1479C138.052 63.8314 137.419 63.689 136.706 63.689C135.978 63.689 135.312 63.8631 134.727 64.2112C134.141 64.5593 133.666 65.0498 133.333 65.6827C132.985 66.3472 132.81 67.0751 132.81 67.9137ZM129.786 72.0434H131.148V63.8472H129.786V72.0434ZM130.483 62.5181C130.736 62.5181 130.942 62.4232 131.116 62.2491C131.29 62.0751 131.385 61.8536 131.385 61.5846C131.385 61.3314 131.29 61.1099 131.116 60.92C130.942 60.746 130.736 60.6511 130.483 60.6511C130.229 60.6511 130.008 60.746 129.818 60.92C129.643 61.0941 129.548 61.3156 129.548 61.5846C129.548 61.8378 129.643 62.0593 129.818 62.2491C130.008 62.4232 130.229 62.5181 130.483 62.5181ZM126.255 72.0434H127.616V60.9833H126.255V72.0434ZM122.723 67.9295C122.723 68.5466 122.597 69.0846 122.343 69.5434C122.09 70.0023 121.757 70.3662 121.33 70.6036C120.902 70.8409 120.443 70.9675 119.936 70.9675C119.43 70.9675 118.97 70.8409 118.543 70.6036C118.131 70.3662 117.783 70.0023 117.545 69.5434C117.292 69.0846 117.165 68.5308 117.165 67.9137C117.165 67.2966 117.292 66.7586 117.545 66.2998C117.799 65.8409 118.131 65.4928 118.543 65.2555C118.955 65.0181 119.43 64.8916 119.936 64.8916C120.443 64.8916 120.918 65.0181 121.33 65.2555C121.757 65.4928 122.09 65.8567 122.343 66.3156C122.597 66.7745 122.723 67.3124 122.723 67.9295ZM115.787 67.9137C115.787 68.7365 115.962 69.4801 116.294 70.1289C116.627 70.7776 117.102 71.2839 117.688 71.632C118.274 71.996 118.939 72.17 119.667 72.17C120.38 72.17 120.997 72.0118 121.536 71.6953C122.074 71.3789 122.47 70.9833 122.739 70.5086V72.0276H124.117V63.8314H122.723V65.3188C122.47 64.8441 122.074 64.4643 121.536 64.1479C121.013 63.8314 120.38 63.689 119.667 63.689C118.939 63.689 118.274 63.8631 117.688 64.2112C117.102 64.5593 116.627 65.0498 116.294 65.6827C115.962 66.3472 115.787 67.0751 115.787 67.9137ZM112.225 65.1764V63.8472H110.863V72.0434H112.225V67.5972C112.225 65.9358 112.985 65.1131 114.505 65.1131H114.869V63.7048C114.236 63.7048 113.697 63.8314 113.254 64.1004C112.81 64.3536 112.462 64.7175 112.225 65.1764ZM109.073 64.9707V63.8472H106.936V61.7903H105.574V63.8472H104.513V64.9707H105.574V69.7966C105.574 70.5877 105.764 71.1732 106.144 71.5213C106.524 71.8694 107.094 72.0434 107.854 72.0434H109.073V70.8884H108.076C107.664 70.8884 107.363 70.8093 107.189 70.6352C107.015 70.477 106.936 70.1922 106.936 69.7966V64.9707H109.073V64.9707ZM100.522 72.17C101.108 72.17 101.631 72.0751 102.09 71.8694C102.549 71.6637 102.897 71.3789 103.151 71.0308C103.404 70.6668 103.531 70.2713 103.531 69.8124C103.515 69.3219 103.388 68.9105 103.119 68.6099C102.85 68.2934 102.533 68.0719 102.169 67.9137C101.805 67.7555 101.314 67.5972 100.728 67.439C100.253 67.3124 99.8888 67.1858 99.6354 67.0909C99.3662 66.9802 99.1445 66.8536 98.9703 66.6795C98.7961 66.5055 98.7011 66.2839 98.7011 66.015C98.7011 65.6827 98.8436 65.3979 99.1287 65.1922C99.4137 64.9865 99.8096 64.8757 100.3 64.8757C100.823 64.8757 101.251 65.0023 101.567 65.2713C101.884 65.5245 102.058 65.8726 102.09 66.2998H103.452C103.404 65.5086 103.119 64.8757 102.549 64.4169C101.995 63.958 101.251 63.7365 100.348 63.7365C99.7621 63.7365 99.2395 63.8314 98.7803 64.0371C98.3211 64.2428 97.9727 64.5118 97.7193 64.8599C97.466 65.208 97.3393 65.5877 97.3393 66.015C97.3393 66.5371 97.4818 66.9643 97.751 67.2966C98.0202 67.6131 98.3528 67.8662 98.7328 68.0245C99.1128 68.1827 99.6196 68.3567 100.221 68.515C100.886 68.689 101.377 68.8631 101.71 69.0371C102.027 69.2112 102.185 69.4801 102.185 69.8441C102.185 70.1922 102.042 70.477 101.742 70.7143C101.441 70.9358 101.029 71.0624 100.522 71.0624C99.968 71.0624 99.5087 70.9358 99.1762 70.6668C98.8278 70.4137 98.6378 70.0814 98.6061 69.67H97.1968C97.2284 70.1763 97.3868 70.6036 97.6718 70.9991C97.9569 71.3789 98.3527 71.6795 98.8595 71.901C99.3187 72.0751 99.8888 72.17 100.522 72.17ZM94.1089 63.8472V68.3409C94.1089 69.1953 93.903 69.8441 93.4755 70.3029C93.0637 70.746 92.4778 70.9833 91.7494 70.9833C91.0368 70.9833 90.4826 70.7618 90.0709 70.3346C89.6591 69.9074 89.4533 69.2744 89.4533 68.4675V63.8472H88.1073V68.6415C88.1073 69.401 88.2498 70.0339 88.5507 70.5719C88.8515 71.0941 89.2474 71.4896 89.7541 71.7586C90.2609 72.0276 90.831 72.1542 91.4802 72.1542C92.0344 72.1542 92.557 72.0434 93.0162 71.8061C93.4755 71.5687 93.8397 71.2523 94.1089 70.8251V72.0434H95.4707V63.8472H94.1089V63.8472ZM80.8705 68.6257L82.7549 63.3567L84.6393 68.6257H80.8705ZM85.8587 72.0434H87.2997L83.5467 61.6795H81.979L78.2102 72.0434H79.6512L80.4905 69.7333H85.0352L85.8587 72.0434Z" fill="black"/>
<path d="M362.233 17.3442V27.1068C361.584 26.1258 360.681 25.3505 359.541 24.765C358.401 24.1796 357.134 23.8948 355.756 23.8948C354.014 23.8948 352.447 24.3378 351.037 25.2081C349.628 26.0783 348.52 27.3441 347.696 28.9739C346.873 30.6036 346.477 32.5024 346.477 34.6543C346.477 36.822 346.889 38.7207 347.696 40.3663C348.52 42.0118 349.628 43.2776 351.037 44.1637C352.447 45.0498 354.014 45.5087 355.756 45.5087C357.245 45.5087 358.543 45.208 359.652 44.6068C360.776 44.0055 361.631 43.1985 362.233 42.2017V45.208H368.678V17.3442H362.233ZM360.903 38.515C360.016 39.4485 358.923 39.9074 357.641 39.9074C356.358 39.9074 355.265 39.4327 354.379 38.4992C353.492 37.5656 353.033 36.284 353.033 34.6701C353.033 33.0562 353.476 31.8062 354.379 30.8884C355.265 29.9707 356.358 29.5119 357.641 29.5119C358.923 29.5119 360.016 29.9707 360.903 30.9043C361.79 31.8378 362.249 33.1036 362.249 34.7017C362.233 36.3156 361.79 37.5815 360.903 38.515Z" fill="black"/>
<path d="M338.702 27.6923V24.1954H332.257V45.2239H338.702V35.4612C338.702 33.7207 339.098 32.5182 339.905 31.822C340.713 31.1258 341.916 30.7935 343.532 30.7935H345.305V23.9739C343.927 23.9739 342.661 24.3062 341.536 24.9708C340.396 25.6353 339.462 26.5372 338.702 27.6923Z" fill="black"/>
<path d="M329.485 34.3695C329.485 32.2651 329.042 30.4138 328.139 28.8315C327.253 27.2492 326.002 26.0309 324.418 25.1765C322.835 24.322 321.029 23.8948 318.987 23.8948C316.896 23.8948 315.059 24.3379 313.444 25.2081C311.829 26.0942 310.578 27.3442 309.691 28.9739C308.805 30.6037 308.345 32.5182 308.345 34.7018C308.345 36.8853 308.805 38.7998 309.707 40.4296C310.61 42.0593 311.861 43.3252 313.476 44.1954C315.091 45.0815 316.912 45.5087 318.987 45.5087C320.697 45.5087 322.249 45.1922 323.626 44.5593C325.004 43.9264 326.16 43.072 327.079 41.9644C327.997 40.8568 328.63 39.6226 328.979 38.2302H322.122C321.489 39.591 320.38 40.2714 318.765 40.2714C317.688 40.2714 316.77 39.9233 316.025 39.2429C315.281 38.5467 314.869 37.5498 314.759 36.2524H329.343C329.454 35.6037 329.485 34.9707 329.485 34.3695ZM314.822 32.6764C314.996 31.5214 315.455 30.6353 316.2 30.0024C316.944 29.3695 317.846 29.053 318.939 29.053C320.063 29.053 321.014 29.3853 321.774 30.034C322.534 30.6828 322.898 31.5689 322.898 32.6764H314.822Z" fill="black"/>
<path d="M297.815 23.9739C296.406 23.9739 295.139 24.2429 294.014 24.7967C292.89 25.3505 291.987 26.0942 291.338 27.0119V17.3284H284.893V45.2081H291.338V33.7999C291.338 32.3916 291.702 31.2999 292.431 30.5246C293.159 29.7492 294.141 29.3537 295.376 29.3537C296.611 29.3537 297.593 29.7492 298.322 30.5246C299.05 31.2999 299.414 32.3916 299.414 33.7999V45.2081H305.828V32.9296C305.828 30.1448 305.099 27.9454 303.642 26.3632C302.17 24.7651 300.238 23.9739 297.815 23.9739Z" fill="black"/>
<path d="M281.584 28.9739C280.76 27.3442 279.652 26.0784 278.242 25.2081C276.833 24.322 275.265 23.8948 273.523 23.8948C272.035 23.8948 270.752 24.1955 269.644 24.7967C268.535 25.398 267.664 26.1891 267.047 27.1701V24.1955H260.602V55.2397H267.047V42.2809C267.68 43.2302 268.551 44.0055 269.659 44.6226C270.784 45.2239 272.066 45.5245 273.523 45.5245C275.249 45.5245 276.833 45.0815 278.242 44.1796C279.652 43.2935 280.76 42.0277 281.584 40.3821C282.407 38.7366 282.803 36.8378 282.803 34.6701C282.803 32.5024 282.391 30.6195 281.584 28.9739ZM274.885 38.4992C273.983 39.4486 272.89 39.9074 271.607 39.9074C270.325 39.9074 269.232 39.4486 268.345 38.515C267.458 37.5815 266.999 36.3157 266.999 34.7176C266.999 33.1037 267.443 31.8378 268.345 30.9201C269.232 29.9866 270.325 29.5277 271.607 29.5277C272.922 29.5277 274.014 29.9866 274.901 30.9043C275.788 31.822 276.247 33.0878 276.247 34.6859C276.247 36.284 275.788 37.5499 274.885 38.4992Z" fill="black"/>
<path d="M257.831 34.3695C257.831 32.2651 257.387 30.4138 256.485 28.8315C255.598 27.2492 254.363 26.0309 252.779 25.1765C251.196 24.322 249.39 23.8948 247.348 23.8948C245.257 23.8948 243.42 24.3379 241.805 25.2081C240.19 26.0942 238.939 27.3442 238.052 28.9739C237.166 30.6037 236.706 32.5182 236.706 34.7018C236.706 36.8853 237.166 38.7998 238.068 40.4296C238.971 42.0593 240.222 43.3252 241.837 44.1954C243.452 45.0815 245.273 45.5087 247.348 45.5087C249.058 45.5087 250.594 45.1922 251.987 44.5593C253.365 43.9264 254.521 43.072 255.439 41.9644C256.358 40.8568 256.991 39.6226 257.34 38.2302H250.483C249.85 39.591 248.741 40.2714 247.126 40.2714C246.049 40.2714 245.131 39.9233 244.386 39.2429C243.642 38.5467 243.23 37.5498 243.12 36.2524H257.704C257.783 35.6037 257.831 34.9707 257.831 34.3695ZM243.151 32.6764C243.325 31.5214 243.785 30.6353 244.529 30.0024C245.273 29.3695 246.176 29.053 247.268 29.053C248.393 29.053 249.343 29.3853 250.103 30.034C250.863 30.6828 251.227 31.5689 251.227 32.6764H243.151Z" fill="black"/>
<path d="M226.16 23.9739C224.751 23.9739 223.484 24.2429 222.359 24.7967C221.235 25.3505 220.333 26.0942 219.683 27.0119V17.3284H213.238V45.2081H219.683V33.7999C219.683 32.3916 220.048 31.2999 220.776 30.5246C221.504 29.7492 222.486 29.3537 223.721 29.3537C224.956 29.3537 225.938 29.7492 226.667 30.5246C227.395 31.2999 227.759 32.3916 227.759 33.7999V45.2081H234.173V32.9296C234.173 30.1448 233.444 27.9454 231.987 26.3632C230.515 24.7651 228.567 23.9739 226.16 23.9739Z" fill="black"/>
<path d="M200.918 45.477C202.898 45.477 204.624 45.1131 206.081 44.3853C207.538 43.6574 208.646 42.6764 209.422 41.4422C210.182 40.2081 210.578 38.8473 210.578 37.3441C210.578 35.7619 210.182 34.4644 209.406 33.4676C208.63 32.4707 207.696 31.6954 206.635 31.1733C205.558 30.6511 204.18 30.0973 202.47 29.5119C200.76 28.9581 199.509 28.4518 198.701 27.9613C197.894 27.4866 197.498 26.822 197.498 25.9676C197.498 25.1923 197.735 24.591 198.211 24.1796C198.686 23.7682 199.319 23.5625 200.095 23.5625C200.998 23.5625 201.742 23.7999 202.312 24.2904C202.898 24.7809 203.199 25.4454 203.262 26.2999H210.23C210.103 23.8157 209.153 21.8695 207.363 20.4771C205.574 19.0847 203.23 18.3885 200.317 18.3885C197.45 18.3885 195.123 19.0847 193.333 20.4771C191.544 21.8695 190.657 23.7999 190.657 26.2524C190.657 27.9138 191.053 29.2587 191.829 30.2872C192.605 31.3157 193.539 32.091 194.616 32.629C195.693 33.1511 197.086 33.6891 198.796 34.2112C199.984 34.5593 200.887 34.8758 201.536 35.1606C202.185 35.4454 202.724 35.7935 203.151 36.2207C203.595 36.6479 203.816 37.1859 203.816 37.8347C203.816 38.61 203.547 39.2271 202.993 39.6701C202.439 40.1131 201.678 40.3346 200.728 40.3346C199.794 40.3346 199.05 40.0815 198.464 39.5593C197.878 39.053 197.545 38.2935 197.45 37.3125H190.594C190.641 39.0372 191.132 40.5245 192.051 41.7587C192.969 42.9929 194.188 43.9264 195.724 44.5435C197.245 45.1606 198.986 45.477 200.918 45.477Z" fill="black"/>
<path d="M172.003 15.6512V25.9992C171.306 24.9549 170.356 24.1322 169.153 23.5151C167.933 22.898 166.603 22.5974 165.13 22.5974C163.293 22.5974 161.631 23.0562 160.126 23.9898C158.638 24.9233 157.45 26.2524 156.595 27.9771C155.724 29.7018 155.297 31.7271 155.297 34.0056C155.297 36.284 155.724 38.3093 156.595 40.0657C157.466 41.8062 158.638 43.1511 160.126 44.1005C161.615 45.0498 163.278 45.5245 165.13 45.5245C166.698 45.5245 168.076 45.2081 169.263 44.5593C170.451 43.9264 171.369 43.072 172.003 41.996V45.1922H178.844V15.6512H172.003ZM170.594 38.1037C169.643 39.0847 168.487 39.5752 167.141 39.5752C165.78 39.5752 164.624 39.0688 163.689 38.072C162.739 37.0752 162.264 35.7144 162.264 34.0214C162.264 32.3283 162.739 30.9834 163.689 30.0024C164.639 29.0372 165.795 28.5467 167.141 28.5467C168.503 28.5467 169.659 29.0372 170.594 30.0182C171.544 30.9992 172.019 32.3442 172.019 34.053C172.019 35.7619 171.544 37.1226 170.594 38.1037Z" fill="black"/>
<path d="M151.892 28.0246C150.879 26.2841 149.485 24.9391 147.727 24.0056C145.97 23.072 143.99 22.6132 141.805 22.6132C139.62 22.6132 137.64 23.072 135.883 24.0056C134.125 24.9391 132.731 26.2682 131.718 28.0246C130.704 29.7651 130.198 31.7904 130.198 34.0847C130.198 36.3948 130.704 38.4201 131.702 40.1606C132.7 41.8853 134.077 43.2302 135.819 44.1638C137.561 45.0973 139.525 45.5562 141.71 45.5562C143.895 45.5562 145.875 45.0973 147.648 44.1638C149.422 43.2302 150.815 41.9011 151.845 40.1448C152.874 38.3885 153.381 36.379 153.381 34.0847C153.381 31.7904 152.906 29.7651 151.892 28.0246ZM145.083 38.1828C144.164 39.148 143.056 39.6226 141.742 39.6226C140.443 39.6226 139.35 39.148 138.479 38.1828C137.609 37.2176 137.181 35.8568 137.181 34.0689C137.181 32.2651 137.624 30.8727 138.495 29.9391C139.382 28.9897 140.475 28.5151 141.821 28.5151C143.119 28.5151 144.228 28.9897 145.115 29.9549C146.001 30.9201 146.461 32.2809 146.461 34.0689C146.461 35.8568 146.001 37.2334 145.083 38.1828Z" fill="black"/>
<path d="M126.825 28.0246C125.811 26.2841 124.418 24.9391 122.66 24.0056C120.902 23.072 118.923 22.6132 116.738 22.6132C114.552 22.6132 112.573 23.072 110.815 24.0056C109.058 24.9391 107.664 26.2682 106.651 28.0246C105.637 29.7651 105.13 31.7904 105.13 34.0847C105.13 36.3948 105.637 38.4201 106.635 40.1606C107.632 41.8853 109.01 43.2302 110.752 44.1638C112.494 45.0973 114.457 45.5562 116.643 45.5562C118.828 45.5562 120.807 45.0973 122.581 44.1638C124.354 43.2302 125.748 41.9011 126.777 40.1448C127.807 38.4043 128.313 36.379 128.313 34.0847C128.313 31.7904 127.838 29.7651 126.825 28.0246ZM120.016 38.1828C119.097 39.148 117.989 39.6226 116.674 39.6226C115.376 39.6226 114.283 39.148 113.412 38.1828C112.541 37.2176 112.114 35.8568 112.114 34.0689C112.114 32.2651 112.557 30.8727 113.428 29.9391C114.315 28.9897 115.408 28.5151 116.754 28.5151C118.052 28.5151 119.16 28.9897 120.047 29.9549C120.934 30.9201 121.393 32.2809 121.393 34.0689C121.393 35.8568 120.934 37.2334 120.016 38.1828Z" fill="black"/>
<path d="M102.232 26.0467C101.488 23.167 99.9521 20.9201 97.656 19.2904C95.3441 17.6606 92.5095 16.8537 89.1524 16.8537C86.3812 16.8537 83.9109 17.455 81.7573 18.6733C79.6037 19.8917 77.9093 21.5689 76.7058 23.7524C75.4865 25.9201 74.8848 28.3885 74.8848 31.1575C74.8848 33.9264 75.4865 36.3948 76.7058 38.5467C77.9252 40.6986 79.6037 42.3916 81.789 43.5941C83.9584 44.8125 86.4287 45.4138 89.1999 45.4138C91.5436 45.4138 93.6497 44.9549 95.5182 44.053C97.3868 43.1511 98.9228 41.9644 100.142 40.4929C101.361 39.0214 102.217 37.4391 102.723 35.7461V29.3853H87.8539V34.4169H96.5317C95.9933 36.015 95.154 37.2334 93.998 38.0878C92.8421 38.9423 91.4169 39.3695 89.7383 39.3695C87.2839 39.3695 85.3678 38.6416 83.9584 37.1859C82.5649 35.7302 81.8523 33.7207 81.8523 31.1258C81.8523 28.7049 82.5174 26.7587 83.8476 25.3189C85.1778 23.8632 86.9513 23.1353 89.1683 23.1353C90.4509 23.1353 91.5594 23.3885 92.5095 23.879C93.4596 24.3695 94.1881 25.0815 94.6948 26.0151H102.232V26.0467Z" fill="black"/>
<path d="M56.9749 74.4643C56.5474 74.4643 56.1198 74.401 55.6923 74.2428C40.4428 68.9264 27.9012 62.5498 18.4475 55.303C10.419 49.1479 4.74994 42.4074 2.07376 35.8252C0.506063 31.9802 0.252696 27.7714 1.34534 23.6891C2.34296 19.955 4.44906 16.4898 7.28359 13.9265C9.78558 11.6797 12.7468 10.2081 15.8347 9.686C19.2551 9.11638 22.7706 9.71765 25.9851 11.4265C28.0279 12.5183 32.9052 15.667 34.362 21.5689C34.8846 23.6575 33.6019 25.7777 31.5117 26.2841C29.4214 26.8062 27.2995 25.5246 26.7927 23.436C26.0643 20.5088 23.1823 18.7683 22.3113 18.3094C17.6399 15.8252 13.8869 18.4676 12.4934 19.7176C10.7674 21.2683 9.48471 23.3885 8.86713 25.6828C8.21788 28.1195 8.3604 30.6037 9.27885 32.8821C10.7832 36.5688 14.4095 42.3916 23.1665 49.1005C31.9551 55.841 43.7524 61.822 58.2259 66.8694C60.2528 67.5814 61.3296 69.7966 60.6171 71.8378C60.0945 73.4675 58.5901 74.4643 56.9749 74.4643Z" fill="#D72C32"/>
</svg>
