<svg viewBox="0 0 48 48" xmlns="http://www.w3.org/2000/svg">
<path fill-rule="evenodd" d="M46.5564 0H10.0709C9.27387 0 8.62726 0.644195 8.62726 1.4382V10.0333V42.2646C8.62726 42.4617 8.60741 42.6541 8.56892 42.8399C8.30065 44.1414 7.14217 45.1236 5.75692 45.1236C4.17438 45.1236 2.88718 43.8406 2.88718 42.2646V11.4715H5.83632C6.6333 11.4715 7.27991 10.8273 7.27991 10.0333C7.27991 9.23925 6.6333 8.59506 5.83632 8.59506H1.44359C0.646608 8.59506 0 9.23925 0 10.0333V42.2646C0 45.4268 2.58282 48 5.75692 48C5.76715 48 5.77677 47.9994 5.787 47.9994C8.55147 47.985 10.8612 46.0201 11.3965 43.4187C11.408 43.3624 11.4188 43.3061 11.4284 43.2497C11.4844 42.9297 11.5138 42.6001 11.5138 42.2646V10.0333V2.8764H45.1122V42.2646C45.1122 43.8412 43.825 45.1236 42.2425 45.1236H13.4819C12.685 45.1236 12.0383 45.7678 12.0383 46.5618C12.0383 47.3558 12.685 48 13.4819 48H42.2431C45.4178 48 48 45.4268 48 42.2646V1.4382C48 0.644195 47.354 0 46.5564 0Z"/>
<path fill-rule="evenodd" d="M17.1473 25.5581H27.7024C28.4994 25.5581 29.146 24.9139 29.146 24.1199V8.37692C29.146 7.58292 28.4994 6.93872 27.7024 6.93872H17.1473C16.3503 6.93872 15.7037 7.58292 15.7037 8.37692V24.1199C15.7037 24.9145 16.3497 25.5581 17.1473 25.5581ZM18.5909 9.81513H26.2588V22.6817H18.5909V9.81513Z"/>
<path fill-rule="evenodd" d="M33.3343 17.6699H39.6813C40.4783 17.6699 41.1249 17.0257 41.1249 16.2317C41.1249 15.4377 40.4783 14.7935 39.6813 14.7935H33.3343C32.5374 14.7935 31.8907 15.4377 31.8907 16.2317C31.8907 17.0257 32.5374 17.6699 33.3343 17.6699Z"/>
<path fill-rule="evenodd" d="M17.1029 33.3802H39.6819C40.4789 33.3802 41.1255 32.736 41.1255 31.9419C41.1255 31.1479 40.4789 30.5037 39.6819 30.5037H17.1029C16.3059 30.5037 15.6593 31.1479 15.6593 31.9419C15.6593 32.736 16.3053 33.3802 17.1029 33.3802Z"/>
<path fill-rule="evenodd" d="M17.1029 40.7479H39.6819C40.4789 40.7479 41.1255 40.1037 41.1255 39.3097C41.1255 38.5157 40.4789 37.8715 39.6819 37.8715H17.1029C16.3059 37.8715 15.6593 38.5157 15.6593 39.3097C15.6593 40.1037 16.3053 40.7479 17.1029 40.7479Z"/>
<path fill-rule="evenodd" d="M33.3343 25.5251H39.6813C40.4783 25.5251 41.1249 24.8809 41.1249 24.0869C41.1249 23.2929 40.4783 22.6487 39.6813 22.6487H33.3343C32.5374 22.6487 31.8907 23.2929 31.8907 24.0869C31.8907 24.8809 32.5374 25.5251 33.3343 25.5251Z"/>
<path fill-rule="evenodd" d="M33.3343 9.81513H39.6813C40.4783 9.81513 41.1249 9.17093 41.1249 8.37693C41.1249 7.58292 40.4783 6.93872 39.6813 6.93872H33.3343C32.5374 6.93872 31.8907 7.58292 31.8907 8.37693C31.8907 9.17093 32.5374 9.81513 33.3343 9.81513Z"/>
</svg>
