<svg width="400" height="98" viewBox="0 0 400 98" fill="none" xmlns="http://www.w3.org/2000/svg">
<path d="M34.7825 19.161C34.8506 17.9698 35.0208 17.0339 35.1229 16.6766C37.284 8.91684 43.3591 8.32125 45.8606 8.40633C50.7614 8.59352 56.343 11.8438 57.5001 17.7146C58.9636 25.117 56.8365 33.7786 51.0337 44.227C47.7324 50.1659 43.5973 56.0367 39.1899 61.7374C41.6404 63.0137 44.1929 64.2729 46.8816 65.4811C51.1188 59.9166 55.1178 54.1649 58.368 48.294C65.1748 36.0418 67.5742 25.5083 65.7193 16.081C64.8004 11.4353 62.2819 7.41935 58.4361 4.4584C54.9476 1.76973 50.5913 0.187153 46.1669 0.0169834C41.9296 -0.136169 37.9307 0.986948 34.6294 3.26722C31.5834 5.37732 29.252 8.44036 27.7886 12.1671C29.6775 13.2562 32.7745 15.5024 34.7825 19.161Z" fill="#00C1DE"/>
<path d="M33.8636 68.408C32.8767 69.5992 31.8897 70.7904 30.9197 71.9816C29.4392 73.7684 29.6775 76.406 31.4472 77.8865C32.23 78.5501 33.183 78.8564 34.1359 78.8564C35.3441 78.8564 36.5353 78.3459 37.3521 77.3419C38.7475 75.6742 40.1429 73.9726 41.5213 72.2709C38.8496 71.0116 36.3141 69.7183 33.8636 68.408Z" fill="#00C1DE"/>
<path d="M393.074 16.9658V27.4653C392.376 26.4102 391.407 25.5764 390.181 24.9468C388.956 24.3171 387.595 24.0108 386.114 24.0108C384.242 24.0108 382.558 24.4873 381.043 25.4232C379.529 26.3592 378.338 27.7205 377.453 29.4733C376.568 31.226 376.142 33.268 376.142 35.5823C376.142 37.9137 376.585 39.9557 377.453 41.7255C378.338 43.4952 379.529 44.8566 381.043 45.8095C382.558 46.7625 384.242 47.256 386.114 47.256C387.714 47.256 389.109 46.9326 390.3 46.286C391.509 45.6393 392.428 44.7715 393.074 43.6994V46.9326H400V16.9658H393.074ZM391.645 39.7345C390.692 40.7385 389.518 41.232 388.139 41.232C386.761 41.232 385.587 40.7215 384.634 39.7175C383.681 38.7135 383.187 37.3351 383.187 35.5994C383.187 33.8636 383.664 32.5193 384.634 31.5323C385.587 30.5453 386.761 30.0518 388.139 30.0518C389.518 30.0518 390.692 30.5453 391.645 31.5493C392.598 32.5533 393.091 33.9147 393.091 35.6334C393.074 37.3691 392.598 38.7305 391.645 39.7345Z" fill="black"/>
<path d="M367.787 28.1119V24.3342H360.861V46.9497H367.787V36.4502C367.787 34.5784 368.212 33.2851 369.08 32.5363C369.948 31.7876 371.241 31.4302 372.977 31.4302H374.883V24.0959C373.403 24.0959 372.041 24.4533 370.833 25.168C369.608 25.8827 368.604 26.8697 367.787 28.1119Z" fill="black"/>
<path d="M357.883 35.2761C357.883 33.0128 357.407 31.0218 356.437 29.3201C355.484 27.6185 354.139 26.3082 352.438 25.3892C350.736 24.4703 348.796 24.0109 346.601 24.0109C344.355 24.0109 342.381 24.4873 340.645 25.4233C338.909 26.3762 337.565 27.7206 336.612 29.4733C335.659 31.226 335.166 33.2851 335.166 35.6334C335.166 37.9818 335.659 40.0408 336.629 41.7936C337.599 43.5463 338.943 44.9077 340.679 45.8436C342.415 46.7965 344.372 47.256 346.601 47.256C348.439 47.256 350.106 46.9157 351.587 46.235C353.067 45.5543 354.31 44.6354 355.297 43.4442C356.284 42.253 356.964 40.9257 357.339 39.4282H349.97C349.29 40.8917 348.098 41.6234 346.363 41.6234C345.205 41.6234 344.219 41.249 343.419 40.5173C342.619 39.7685 342.176 38.6965 342.057 37.3011H357.73C357.849 36.6034 357.883 35.9227 357.883 35.2761ZM342.125 33.4553C342.313 32.213 342.806 31.2601 343.606 30.5794C344.406 29.8987 345.376 29.5584 346.55 29.5584C347.758 29.5584 348.779 29.9157 349.596 30.6134C350.413 31.3111 350.804 32.2641 350.804 33.4553H342.125Z" fill="black"/>
<path d="M323.849 24.0959C322.335 24.0959 320.973 24.3852 319.765 24.9808C318.557 25.5764 317.587 26.3762 316.889 27.3632V16.9658H309.963V46.9497H316.889V34.6804C316.889 33.1659 317.281 31.9918 318.063 31.1579C318.846 30.3241 319.901 29.8987 321.229 29.8987C322.556 29.8987 323.611 30.3241 324.394 31.1579C325.177 31.9918 325.568 33.1659 325.568 34.6804V46.9497H332.46V33.7445C332.46 30.7495 331.677 28.3842 330.111 26.6825C328.529 24.9468 326.453 24.0959 323.849 24.0959Z" fill="black"/>
<path d="M306.407 29.4903C305.522 27.7375 304.331 26.3762 302.816 25.4402C301.302 24.4873 299.617 24.0278 297.745 24.0278C296.146 24.0278 294.767 24.3512 293.576 24.9978C292.385 25.6444 291.449 26.4953 290.785 27.5503V24.3341H283.859V57.7214H290.785V43.7845C291.466 44.8055 292.402 45.6393 293.593 46.303C294.801 46.9496 296.18 47.273 297.745 47.273C299.6 47.273 301.302 46.7965 302.816 45.8265C304.331 44.8736 305.522 43.5122 306.407 41.7425C307.292 39.9727 307.717 37.9307 307.717 35.5993C307.717 33.285 307.275 31.243 306.407 29.4903ZM299.209 39.7174C298.239 40.7385 297.065 41.2319 295.686 41.2319C294.308 41.2319 293.134 40.7385 292.181 39.7345C291.228 38.7305 290.734 37.3691 290.734 35.6504C290.734 33.9147 291.211 32.5533 292.181 31.5663C293.134 30.5623 294.308 30.0688 295.686 30.0688C297.099 30.0688 298.273 30.5623 299.226 31.5493C300.179 32.5363 300.672 33.8977 300.672 35.6164C300.672 37.3351 300.179 38.6964 299.209 39.7174Z" fill="black"/>
<path d="M280.882 35.2761C280.882 33.0128 280.405 31.0218 279.435 29.3201C278.482 27.6185 277.155 26.3082 275.453 25.3892C273.751 24.4703 271.811 24.0109 269.616 24.0109C267.37 24.0109 265.396 24.4873 263.66 25.4233C261.925 26.3762 260.58 27.7206 259.627 29.4733C258.674 31.226 258.181 33.2851 258.181 35.6334C258.181 37.9818 258.674 40.0408 259.644 41.7936C260.614 43.5463 261.959 44.9077 263.694 45.8436C265.43 46.7965 267.387 47.256 269.616 47.256C271.454 47.256 273.105 46.9157 274.602 46.235C276.083 45.5543 277.325 44.6354 278.312 43.4442C279.299 42.253 279.98 40.9257 280.354 39.4282H272.986C272.305 40.8917 271.114 41.6234 269.378 41.6234C268.221 41.6234 267.234 41.249 266.434 40.5173C265.634 39.7685 265.192 38.6965 265.073 37.3011H280.745C280.83 36.6034 280.882 35.9227 280.882 35.2761ZM265.124 33.4553C265.311 32.213 265.804 31.2601 266.604 30.5794C267.404 29.8987 268.374 29.5584 269.548 29.5584C270.756 29.5584 271.777 29.9157 272.594 30.6134C273.411 31.3111 273.802 32.2641 273.802 33.4553H265.124Z" fill="black"/>
<path d="M246.847 24.0959C245.333 24.0959 243.972 24.3852 242.763 24.9808C241.555 25.5764 240.585 26.3762 239.888 27.3632V16.9658H232.962V46.9497H239.888V34.6804C239.888 33.1659 240.279 31.9918 241.062 31.1579C241.845 30.3241 242.9 29.8987 244.227 29.8987C245.554 29.8987 246.609 30.3241 247.392 31.1579C248.175 31.9918 248.566 33.1659 248.566 34.6804V46.9497H255.458V33.7445C255.458 30.7495 254.675 28.3842 253.11 26.6825C251.527 24.9468 249.434 24.0959 246.847 24.0959Z" fill="black"/>
<path d="M219.723 47.2389C221.85 47.2389 223.705 46.8476 225.27 46.0648C226.836 45.282 228.027 44.2269 228.861 42.8996C229.678 41.5723 230.103 40.1088 230.103 38.4922C230.103 36.7905 229.678 35.3952 228.844 34.3231C228.01 33.251 227.006 32.4172 225.866 31.8556C224.709 31.2941 223.228 30.6985 221.39 30.0689C219.553 29.4733 218.208 28.9287 217.34 28.4012C216.472 27.8907 216.047 27.176 216.047 26.2571C216.047 25.4232 216.302 24.7766 216.813 24.3342C217.323 23.8917 218.004 23.6705 218.838 23.6705C219.808 23.6705 220.608 23.9257 221.22 24.4533C221.85 24.9808 222.173 25.6955 222.241 26.6144H229.729C229.593 23.9428 228.572 21.8497 226.649 20.3522C224.726 18.8547 222.207 18.106 219.076 18.106C215.996 18.106 213.495 18.8547 211.572 20.3522C209.649 21.8497 208.696 23.9257 208.696 26.5634C208.696 28.3501 209.121 29.7966 209.955 30.9027C210.789 32.0088 211.793 32.8426 212.95 33.4212C214.107 33.9828 215.605 34.5613 217.442 35.1229C218.719 35.4973 219.689 35.8376 220.386 36.1439C221.067 36.4332 221.663 36.8246 222.122 37.284C222.599 37.7435 222.837 38.3221 222.837 39.0198C222.837 39.8536 222.548 40.5173 221.952 40.9937C221.356 41.4702 220.54 41.7084 219.519 41.7084C218.515 41.7084 217.715 41.4362 217.085 40.8746C216.455 40.3301 216.098 39.5133 215.996 38.4582H208.628C208.679 40.313 209.206 41.9126 210.193 43.24C211.18 44.5673 212.491 45.5713 214.141 46.2349C215.775 46.8986 217.647 47.2389 219.723 47.2389Z" fill="black"/>
<path d="M188.65 15.145V26.2741C187.901 25.151 186.88 24.2661 185.587 23.6024C184.277 22.9388 182.847 22.6155 181.265 22.6155C179.291 22.6155 177.504 23.1089 175.887 24.1129C174.288 25.1169 173.011 26.5464 172.092 28.4012C171.156 30.2561 170.697 32.4342 170.697 34.8847C170.697 37.3351 171.156 39.5133 172.092 41.4022C173.028 43.274 174.288 44.7205 175.887 45.7415C177.487 46.7625 179.274 47.273 181.265 47.273C182.949 47.273 184.43 46.9327 185.706 46.235C186.982 45.5543 187.969 44.6354 188.65 43.4782V46.9156H196.001V15.145H188.65ZM187.135 39.2921C186.114 40.3471 184.872 40.8746 183.426 40.8746C181.962 40.8746 180.72 40.3301 179.716 39.258C178.695 38.1859 178.184 36.7225 178.184 34.9017C178.184 33.0809 178.695 31.6344 179.716 30.5794C180.737 29.5413 181.979 29.0138 183.426 29.0138C184.889 29.0138 186.131 29.5413 187.135 30.5964C188.156 31.6514 188.667 33.0979 188.667 34.9357C188.667 36.7735 188.156 38.237 187.135 39.2921Z" fill="black"/>
<path d="M167.038 28.4522C165.949 26.5804 164.452 25.1339 162.563 24.1299C160.674 23.1259 158.547 22.6324 156.199 22.6324C153.85 22.6324 151.723 23.1259 149.834 24.1299C147.945 25.1339 146.448 26.5634 145.359 28.4522C144.27 30.3241 143.725 32.5023 143.725 34.9697C143.725 37.4542 144.27 39.6324 145.342 41.5042C146.414 43.3591 147.894 44.8055 149.766 45.8095C151.638 46.8135 153.748 47.307 156.096 47.307C158.445 47.307 160.572 46.8135 162.478 45.8095C164.384 44.8055 165.881 43.3761 166.987 41.4872C168.093 39.5983 168.638 37.4372 168.638 34.9697C168.638 32.5023 168.127 30.3241 167.038 28.4522ZM159.721 39.3771C158.734 40.4151 157.543 40.9256 156.13 40.9256C154.735 40.9256 153.561 40.4151 152.625 39.3771C151.689 38.3391 151.23 36.8756 151.23 34.9527C151.23 33.0128 151.706 31.5153 152.642 30.5113C153.595 29.4903 154.769 28.9798 156.216 28.9798C157.611 28.9798 158.802 29.4903 159.755 30.5283C160.708 31.5663 161.201 33.0298 161.201 34.9527C161.201 36.8756 160.708 38.3561 159.721 39.3771Z" fill="black"/>
<path d="M140.101 28.4522C139.011 26.5804 137.514 25.1339 135.625 24.1299C133.736 23.1259 131.609 22.6324 129.261 22.6324C126.912 22.6324 124.785 23.1259 122.896 24.1299C121.008 25.1339 119.51 26.5634 118.421 28.4522C117.332 30.3241 116.787 32.5023 116.787 34.9697C116.787 37.4542 117.332 39.6324 118.404 41.5042C119.476 43.3591 120.957 44.8055 122.828 45.8095C124.7 46.8135 126.81 47.307 129.159 47.307C131.507 47.307 133.634 46.8135 135.54 45.8095C137.446 44.8055 138.943 43.3761 140.05 41.4872C141.156 39.6153 141.7 37.4372 141.7 34.9697C141.7 32.5023 141.19 30.3241 140.101 28.4522ZM132.783 39.3771C131.796 40.4151 130.605 40.9256 129.193 40.9256C127.797 40.9256 126.623 40.4151 125.687 39.3771C124.751 38.3391 124.292 36.8756 124.292 34.9527C124.292 33.0128 124.768 31.5153 125.704 30.5113C126.657 29.4903 127.831 28.9798 129.278 28.9798C130.673 28.9798 131.864 29.4903 132.817 30.5283C133.77 31.5663 134.264 33.0298 134.264 34.9527C134.264 36.8756 133.77 38.3561 132.783 39.3771Z" fill="black"/>
<path d="M113.673 26.3252C112.873 23.2281 111.223 20.8117 108.755 19.059C106.271 17.3062 103.225 16.4384 99.6172 16.4384C96.6392 16.4384 93.9846 17.085 91.6703 18.3953C89.356 19.7056 87.5351 21.5094 86.2419 23.8577C84.9316 26.1891 84.2849 28.8437 84.2849 31.8217C84.2849 34.7996 84.9316 37.4543 86.2419 39.7686C87.5522 42.0829 89.356 43.9037 91.7043 45.197C94.0356 46.5073 96.6903 47.1539 99.6682 47.1539C102.187 47.1539 104.45 46.6604 106.458 45.6905C108.466 44.7205 110.117 43.4442 111.427 41.8617C112.737 40.2791 113.656 38.5774 114.201 36.7566V29.9158H98.2218V35.3272H107.547C106.968 37.0459 106.067 38.3562 104.824 39.2751C103.582 40.194 102.051 40.6535 100.247 40.6535C97.6092 40.6535 95.5501 39.8707 94.0356 38.3051C92.5381 36.7396 91.7724 34.5784 91.7724 31.7876C91.7724 29.184 92.4871 27.091 93.9165 25.5424C95.3459 23.9769 97.2518 23.1941 99.6342 23.1941C101.013 23.1941 102.204 23.4663 103.225 23.9939C104.246 24.5214 105.029 25.2872 105.573 26.2912H113.673V26.3252Z" fill="black"/>
<path d="M108.466 96.8944H105.607L89.7985 72.8835V96.8944H86.9397V68.357H89.7985L105.607 92.3339V68.357H108.466V96.8944Z" fill="black"/>
<path d="M117.094 95.8223C115.426 94.8864 114.099 93.5421 113.129 91.8233C112.159 90.0876 111.682 88.0796 111.682 85.7653C111.682 83.451 112.176 81.426 113.146 79.7073C114.133 77.9716 115.46 76.6442 117.145 75.7083C118.829 74.7724 120.718 74.2959 122.828 74.2959C124.922 74.2959 126.827 74.7724 128.529 75.7083C130.231 76.6442 131.558 77.9886 132.528 79.7073C133.498 81.443 133.975 83.451 133.975 85.7653C133.975 88.0456 133.481 90.0706 132.511 91.8063C131.524 93.5421 130.18 94.8864 128.461 95.8223C126.742 96.7583 124.836 97.2347 122.743 97.2347C120.65 97.2347 118.778 96.7583 117.094 95.8223ZM126.844 93.7292C128.104 93.0656 129.108 92.0616 129.891 90.7002C130.673 89.3559 131.048 87.7052 131.048 85.7313C131.048 83.7743 130.673 82.1237 129.908 80.7623C129.142 79.418 128.138 78.414 126.878 77.7333C125.619 77.0697 124.258 76.7293 122.794 76.7293C121.331 76.7293 119.97 77.0697 118.71 77.7333C117.451 78.397 116.464 79.401 115.715 80.7623C114.967 82.1067 114.592 83.7573 114.592 85.7313C114.592 87.6882 114.967 89.3389 115.715 90.7002C116.464 92.0446 117.451 93.0486 118.693 93.7292C119.936 94.3929 121.28 94.7332 122.76 94.7332C124.224 94.7332 125.585 94.4099 126.844 93.7292Z" fill="black"/>
<path d="M152.438 68.357V96.9114H149.579V68.357H152.438Z" fill="black"/>
<path d="M173.845 76.6612C175.53 78.3119 176.381 80.6942 176.381 83.8254V96.8944H173.556V84.1487C173.556 81.7323 172.943 79.8774 171.735 78.6012C170.527 77.3249 168.876 76.6782 166.766 76.6782C164.622 76.6782 162.903 77.3589 161.627 78.7203C160.351 80.0816 159.704 82.0896 159.704 84.7273V96.8944H156.845V74.6022H159.704V78.397C160.419 77.0356 161.44 75.9976 162.767 75.2658C164.094 74.5511 165.609 74.1768 167.294 74.1768C169.982 74.1938 172.16 75.0106 173.845 76.6612Z" fill="black"/>
<path d="M184.617 77.0186V90.8704C184.617 92.2318 184.872 93.1677 185.4 93.6952C185.91 94.2058 186.829 94.478 188.139 94.478H190.76V96.9285H187.697C185.689 96.9285 184.191 96.452 183.204 95.5161C182.217 94.5801 181.741 93.0316 181.741 90.8874V77.0357H178.644V74.6193H181.741V69.0207H184.634V74.6193H190.76V77.0357H184.617V77.0186Z" fill="black"/>
<path d="M213.052 86.8544H194.555C194.64 88.539 195.048 89.9855 195.78 91.1767C196.512 92.3849 197.482 93.2868 198.673 93.8994C199.864 94.512 201.174 94.8183 202.587 94.8183C204.442 94.8183 205.99 94.3759 207.266 93.474C208.526 92.5721 209.376 91.3639 209.785 89.8323H212.814C212.269 92.0105 211.112 93.7803 209.325 95.1586C207.539 96.537 205.309 97.2177 202.604 97.2177C200.511 97.2177 198.622 96.7412 196.971 95.8053C195.303 94.8693 194.01 93.525 193.074 91.8063C192.138 90.0706 191.662 88.0626 191.662 85.7483C191.662 83.434 192.121 81.409 193.057 79.6562C193.976 77.9205 195.269 76.5761 196.937 75.6572C198.605 74.7383 200.494 74.2618 202.621 74.2618C204.748 74.2618 206.603 74.7213 208.202 75.6572C209.802 76.5761 211.027 77.8354 211.878 79.401C212.729 80.9665 213.171 82.7022 213.171 84.6081C213.137 85.5951 213.103 86.3439 213.052 86.8544ZM209.24 80.2858C208.543 79.1117 207.607 78.2268 206.399 77.6312C205.19 77.0356 203.897 76.7293 202.485 76.7293C200.358 76.7293 198.554 77.41 197.056 78.7713C195.559 80.1327 194.725 82.0556 194.572 84.523H210.261C210.261 82.8724 209.921 81.443 209.24 80.2858Z" fill="black"/>
<path d="M221.969 75.3339C223.262 74.5682 224.845 74.1938 226.734 74.1938V77.1718H225.951C223.875 77.1718 222.224 77.7333 220.965 78.8394C219.706 79.9625 219.093 81.8174 219.093 84.438V96.8944H216.234V74.6022H219.093V78.5671C219.723 77.1717 220.676 76.0997 221.969 75.3339Z" fill="black"/>
<path d="M248.005 86.8544H229.508C229.593 88.539 230.001 89.9855 230.733 91.1767C231.465 92.3849 232.435 93.2868 233.626 93.8994C234.817 94.512 236.127 94.8183 237.54 94.8183C239.394 94.8183 240.943 94.3759 242.219 93.474C243.479 92.5721 244.329 91.3639 244.738 89.8323H247.767C247.222 92.0105 246.065 93.7803 244.278 95.1586C242.492 96.537 240.262 97.2177 237.557 97.2177C235.464 97.2177 233.575 96.7412 231.924 95.8053C230.256 94.8693 228.963 93.525 228.027 91.8063C227.091 90.0706 226.615 88.0626 226.615 85.7483C226.615 83.434 227.074 81.409 228.01 79.6562C228.929 77.9205 230.222 76.5761 231.89 75.6572C233.558 74.7383 235.447 74.2618 237.574 74.2618C239.701 74.2618 241.556 74.7213 243.155 75.6572C244.755 76.5761 245.98 77.8354 246.831 79.401C247.682 80.9665 248.124 82.7022 248.124 84.6081C248.09 85.5951 248.073 86.3439 248.005 86.8544ZM244.193 80.2858C243.496 79.1117 242.56 78.2268 241.351 77.6312C240.143 77.0356 238.85 76.7293 237.438 76.7293C235.31 76.7293 233.507 77.41 232.009 78.7713C230.512 80.1327 229.678 82.0556 229.525 84.523H245.214C245.214 82.8724 244.891 81.443 244.193 80.2858Z" fill="black"/>
<path d="M252.395 95.4479C250.779 94.2567 249.877 92.6571 249.673 90.6151H252.617C252.753 91.8744 253.348 92.8784 254.386 93.6611C255.424 94.4439 256.837 94.8183 258.606 94.8183C260.155 94.8183 261.38 94.4439 262.265 93.7122C263.15 92.9805 263.592 92.0616 263.592 90.9725C263.592 90.2067 263.354 89.5771 262.861 89.1006C262.367 88.6241 261.755 88.2157 261.006 87.9435C260.257 87.6542 259.236 87.3479 257.96 87.0245C256.292 86.5821 254.948 86.1567 253.91 85.7142C252.872 85.2718 252.004 84.6252 251.272 83.7743C250.54 82.9235 250.183 81.7663 250.183 80.3199C250.183 79.2308 250.506 78.2268 251.17 77.2909C251.834 76.3549 252.753 75.6232 253.944 75.0787C255.135 74.5341 256.496 74.2618 258.028 74.2618C260.427 74.2618 262.35 74.8744 263.831 76.0827C265.294 77.2909 266.094 78.9585 266.196 81.0856H263.337C263.252 79.7753 262.742 78.7203 261.806 77.9205C260.87 77.1207 259.576 76.7123 257.943 76.7123C256.496 76.7123 255.322 77.0526 254.437 77.7333C253.535 78.414 253.093 79.2648 253.093 80.2688C253.093 81.1367 253.365 81.8514 253.893 82.413C254.42 82.9745 255.084 83.3999 255.867 83.7233C256.65 84.0296 257.722 84.3869 259.049 84.7613C260.649 85.2037 261.942 85.6121 262.895 86.0205C263.848 86.4289 264.664 87.0245 265.345 87.8243C266.026 88.6071 266.383 89.6622 266.4 90.9725C266.4 92.1807 266.077 93.2357 265.413 94.1717C264.767 95.1076 263.848 95.8563 262.674 96.4009C261.499 96.9454 260.155 97.2177 258.623 97.2177C256.105 97.2347 254.029 96.6391 252.395 95.4479Z" fill="black"/>
<path d="M273.99 77.0186V90.8704C273.99 92.2318 274.245 93.1677 274.773 93.6952C275.283 94.2058 276.202 94.478 277.512 94.478H280.133V96.9285H277.07C275.062 96.9285 273.564 96.452 272.577 95.5161C271.59 94.5801 271.114 93.0316 271.114 90.8874V77.0357H268.017V74.6193H271.114V69.0207H274.007V74.6193H280.133V77.0357H273.99V77.0186Z" fill="black"/>
<path d="M298.035 94.5801H308.279V96.9114H295.176V68.357H298.035V94.5801Z" fill="black"/>
<path d="M314.116 95.8223C312.448 94.8864 311.121 93.5421 310.151 91.8233C309.181 90.0876 308.704 88.0796 308.704 85.7653C308.704 83.451 309.198 81.426 310.168 79.7073C311.155 77.9716 312.482 76.6442 314.167 75.7083C315.851 74.7724 317.74 74.2959 319.85 74.2959C321.944 74.2959 323.849 74.7724 325.551 75.7083C327.253 76.6442 328.58 77.9886 329.55 79.7073C330.52 81.443 330.996 83.451 330.996 85.7653C330.996 88.0456 330.503 90.0706 329.533 91.8063C328.546 93.5421 327.202 94.8864 325.483 95.8223C323.764 96.7583 321.858 97.2347 319.765 97.2347C317.672 97.2347 315.783 96.7583 314.116 95.8223ZM323.849 93.7292C325.109 93.0656 326.113 92.0616 326.895 90.7002C327.678 89.3389 328.053 87.7052 328.053 85.7313C328.053 83.7743 327.678 82.1237 326.912 80.7623C326.147 79.418 325.143 78.414 323.883 77.7333C322.624 77.0697 321.263 76.7293 319.799 76.7293C318.336 76.7293 316.975 77.0697 315.715 77.7333C314.456 78.397 313.469 79.401 312.72 80.7623C311.972 82.1067 311.597 83.7573 311.597 85.7313C311.597 87.6882 311.972 89.3389 312.72 90.7002C313.469 92.0446 314.456 93.0486 315.698 93.7292C316.941 94.3929 318.285 94.7332 319.765 94.7332C321.229 94.7332 322.607 94.4099 323.849 93.7292Z" fill="black"/>
<path d="M334.196 79.6903C335.115 77.9545 336.374 76.6272 337.99 75.6913C339.607 74.7553 341.445 74.2789 343.487 74.2789C345.614 74.2789 347.435 74.7724 348.983 75.7423C350.515 76.7293 351.638 77.9715 352.319 79.5031V74.6022H355.178V96.8944H352.319V91.9595C351.604 93.491 350.481 94.7502 348.949 95.7372C347.418 96.7242 345.58 97.2347 343.453 97.2347C341.445 97.2347 339.624 96.7582 338.007 95.8053C336.391 94.8523 335.115 93.508 334.213 91.7553C333.294 90.0195 332.851 87.9945 332.851 85.7142C332.851 83.434 333.294 81.409 334.196 79.6903ZM351.213 81.0176C350.481 79.6562 349.477 78.6012 348.218 77.8694C346.958 77.1377 345.563 76.7633 344.031 76.7633C342.449 76.7633 341.036 77.1207 339.777 77.8184C338.518 78.5331 337.531 79.5541 336.816 80.8985C336.102 82.2428 335.727 83.8424 335.727 85.6972C335.727 87.518 336.085 89.1176 336.816 90.496C337.548 91.8744 338.518 92.9124 339.777 93.6441C341.036 94.3588 342.449 94.7332 344.031 94.7332C345.563 94.7332 346.958 94.3589 348.218 93.6271C349.477 92.8954 350.481 91.8403 351.213 90.479C351.944 89.1176 352.319 87.5351 352.319 85.7483C352.319 83.9615 351.944 82.3789 351.213 81.0176Z" fill="black"/>
<path d="M375.632 76.6612C377.316 78.3119 378.167 80.6942 378.167 83.8254V96.8944H375.342V84.1487C375.342 81.7323 374.73 79.8774 373.522 78.6012C372.313 77.3249 370.663 76.6782 368.553 76.6782C366.409 76.6782 364.69 77.3589 363.414 78.7203C362.137 80.0816 361.491 82.0896 361.491 84.7273V96.8944H358.632V74.6022H361.491V78.397C362.205 77.0356 363.226 75.9976 364.554 75.2658C365.881 74.5511 367.396 74.1768 369.08 74.1768C371.769 74.1938 373.947 75.0106 375.632 76.6612Z" fill="black"/>
<path d="M383.579 95.4479C381.962 94.2567 381.06 92.6571 380.856 90.6151H383.8C383.936 91.8744 384.532 92.8784 385.57 93.6611C386.608 94.4439 388.02 94.8183 389.79 94.8183C391.339 94.8183 392.564 94.4439 393.449 93.7122C394.334 92.9805 394.776 92.0616 394.776 90.9725C394.776 90.2067 394.538 89.5771 394.044 89.1006C393.551 88.6241 392.938 88.2157 392.189 87.9435C391.441 87.6542 390.42 87.3479 389.143 87.0245C387.476 86.5821 386.131 86.1567 385.093 85.7142C384.055 85.2718 383.188 84.6252 382.456 83.7743C381.724 82.9235 381.367 81.7663 381.367 80.3199C381.367 79.2308 381.69 78.2268 382.354 77.2909C383.017 76.3549 383.936 75.6232 385.127 75.0787C386.319 74.5341 387.68 74.2618 389.212 74.2618C391.611 74.2618 393.534 74.8744 395.014 76.0827C396.478 77.2909 397.278 78.9585 397.38 81.0856H394.521C394.436 79.7753 393.925 78.7203 392.989 77.9205C392.053 77.1207 390.76 76.7123 389.126 76.7123C387.68 76.7123 386.506 77.0526 385.621 77.7333C384.719 78.414 384.277 79.2648 384.277 80.2688C384.277 81.1367 384.549 81.8514 385.076 82.413C385.604 82.9745 386.268 83.3999 387.05 83.7233C387.833 84.0296 388.905 84.3869 390.233 84.7613C391.832 85.2037 393.125 85.6121 394.078 86.0205C395.031 86.4289 395.848 87.0245 396.529 87.8243C397.209 88.6071 397.567 89.6622 397.584 90.9725C397.584 92.1807 397.261 93.2357 396.597 94.1717C395.95 95.1076 395.031 95.8563 393.857 96.4009C392.683 96.9454 391.339 97.2177 389.807 97.2177C387.289 97.2347 385.196 96.6391 383.579 95.4479Z" fill="black"/>
<path d="M60.4781 79.5881C60.0187 79.5881 59.5592 79.5201 59.0997 79.3499C42.7124 73.6322 29.235 66.7744 19.0759 58.9806C10.4483 52.361 4.35626 45.1118 1.4804 38.0328C-0.204275 33.8977 -0.476546 29.3712 0.697622 24.9808C1.76969 20.9648 4.03294 17.2381 7.07897 14.4813C9.76765 12.0649 12.9498 10.4824 16.2681 9.9208C19.9438 9.30819 23.7215 9.95483 27.176 11.7927C29.3712 12.9668 34.6124 16.3532 36.1779 22.7005C36.7395 24.9467 35.3611 27.227 33.1149 27.7716C30.8686 28.3331 28.5884 26.9547 28.0438 24.7085C27.2611 21.5604 24.164 19.6885 23.228 19.195C18.208 16.5234 14.175 19.3652 12.6775 20.7095C10.8227 22.3772 9.44432 24.6575 8.78066 27.1249C8.08297 29.7455 8.23612 32.4172 9.2231 34.8676C10.8397 38.8326 14.7366 45.0948 24.147 52.31C33.5914 59.5592 46.269 65.9916 61.8224 71.42C64.0006 72.1858 65.1578 74.5681 64.392 76.7633C63.8475 78.499 62.2138 79.5881 60.4781 79.5881Z" fill="#D72C32"/>
</svg>
