<svg viewBox="0 0 72 72" xmlns="http://www.w3.org/2000/svg">
<path d="M67.0042 31.0262C65.0658 29.0163 62.5905 27.3697 59.8457 26.2653C59.4041 26.0872 58.9545 25.9252 58.4985 25.7752C60.9097 23.714 62.4409 20.6478 62.4409 17.2294C62.4409 11.0376 57.4161 6 51.24 6C45.0639 6 40.039 11.0376 40.039 17.2294C40.039 20.6462 41.5694 23.7108 43.9783 25.772C40.9374 26.7762 38.1822 28.4027 35.9693 30.5354C33.7565 28.4027 31.0013 26.7762 27.9604 25.772C30.3693 23.7108 31.8997 20.6462 31.8997 17.2294C31.8989 11.0376 26.8748 6 20.6979 6C14.5218 6 9.49694 11.0376 9.49694 17.2294C9.49694 20.6357 11.0178 23.6915 13.4138 25.7528C10.7138 26.6439 8.27372 28.0394 6.24569 29.8873C2.15923 33.608 0 38.8285 0 44.9834C0 45.9186 0.00320005 46.7872 0.00880013 47.5636C0.0384006 51.4511 1.56642 55.1004 4.30966 57.841C7.59051 61.1182 13.385 65.2656 22.3547 66.4149C22.9291 66.4887 23.5068 66.2978 23.926 65.896C24.3452 65.4942 24.5604 64.9247 24.5116 64.3456C24.2756 61.508 25.1276 58.9438 26.974 56.9315C29.1548 54.5551 32.5765 53.1362 36.1261 53.1354C36.1269 53.1354 36.1285 53.1354 36.1293 53.1354C36.1301 53.1354 36.1317 53.1354 36.1325 53.1354C39.683 53.1362 43.1038 54.5551 45.2855 56.9315C47.1319 58.9438 47.9839 61.5072 47.7479 64.3456C47.6599 65.4051 48.4455 66.3355 49.5015 66.4237C49.5559 66.4285 49.6095 66.4301 49.6631 66.4301C50.6512 66.4301 51.4912 65.6698 51.5744 64.6648C51.9016 60.7252 50.704 57.1497 48.1111 54.3249C46.6623 52.7464 44.7879 51.4527 42.6902 50.5833C42.5814 50.5384 42.4718 50.4951 42.3622 50.4526C43.8335 48.9038 44.7375 46.8089 44.7375 44.5062C44.7375 39.7477 40.8758 35.8762 36.1293 35.8762C31.3829 35.8762 27.5212 39.7477 27.5212 44.5062C27.5212 46.8089 28.4252 48.9038 29.8964 50.4526C29.7868 50.4951 29.6772 50.5384 29.5684 50.5833C27.4708 51.4527 25.5964 52.7464 24.1476 54.3249C22.0971 56.5586 20.9195 59.2615 20.6779 62.2419C14.0058 60.9073 9.60814 57.6983 7.0193 55.1133C4.99607 53.0929 3.87046 50.4013 3.84806 47.5339C3.84246 46.7672 3.83926 45.909 3.83926 44.9834C3.83926 39.9426 5.56408 35.7078 8.82653 32.7362C11.8546 29.9788 16.069 28.4597 20.6931 28.4589C20.6947 28.4589 20.6963 28.4589 20.6971 28.4589C20.6987 28.4589 20.6995 28.4589 20.7011 28.4589C26.178 28.4597 31.3197 30.7399 34.4653 34.56C34.5173 34.625 34.5733 34.6868 34.6349 34.7461C34.6357 34.7469 34.6357 34.7469 34.6365 34.7477C34.6597 34.7702 34.6837 34.7926 34.7085 34.8143C34.7133 34.8183 34.7181 34.8223 34.7229 34.8263C34.7317 34.8335 34.7405 34.8416 34.7493 34.8488C34.7557 34.8544 34.7629 34.8592 34.7701 34.864C34.8045 34.8913 34.8397 34.9186 34.8757 34.9434C34.8845 34.949 34.8933 34.9555 34.9013 34.9611C34.9357 34.9843 34.9709 35.006 35.0061 35.0268C35.0213 35.0357 35.0357 35.0445 35.0509 35.0525C35.0877 35.0726 35.1253 35.0918 35.1637 35.1095C35.1821 35.1183 35.2005 35.1255 35.2189 35.1335C35.2429 35.1439 35.2669 35.1536 35.2909 35.1624C35.3117 35.1704 35.3333 35.1784 35.3541 35.1856C35.3893 35.1977 35.4253 35.2081 35.4613 35.2185C35.4845 35.2249 35.5085 35.2306 35.5317 35.2362C35.5533 35.241 35.5749 35.2458 35.5965 35.2498C35.6269 35.2562 35.6573 35.261 35.6885 35.2659C35.7181 35.2699 35.7477 35.2739 35.7773 35.2771C35.7981 35.2795 35.8189 35.2811 35.8397 35.2819C35.8709 35.2843 35.9029 35.2851 35.9341 35.2859C35.9453 35.2859 35.9557 35.2875 35.9669 35.2875C36.0173 35.2875 36.0677 35.2851 36.1181 35.2811C36.1261 35.2803 36.1341 35.2795 36.1413 35.2795C36.1893 35.2755 36.2381 35.2691 36.2861 35.261C36.2925 35.2602 36.2981 35.2586 36.3045 35.2578C36.3461 35.2506 36.3885 35.241 36.4293 35.2314C36.4397 35.229 36.4509 35.2265 36.4613 35.2233C36.5061 35.2113 36.5509 35.1977 36.5957 35.1824C36.6045 35.1792 36.6141 35.176 36.6229 35.172C36.6645 35.1568 36.7062 35.1407 36.7462 35.1223C36.7518 35.1199 36.7574 35.1175 36.7621 35.1151C36.8086 35.0942 36.8534 35.071 36.8982 35.0461C36.9038 35.0429 36.9094 35.0397 36.915 35.0365C37.007 34.9843 37.095 34.9234 37.179 34.8552C37.1814 34.8528 37.1846 34.8512 37.187 34.8496C37.1902 34.8472 37.1934 34.844 37.1966 34.8408C37.2126 34.8271 37.2286 34.8135 37.2438 34.7999C37.2558 34.7886 37.2678 34.7774 37.2798 34.7662C37.291 34.7557 37.3022 34.7453 37.3126 34.7349C37.331 34.7173 37.3486 34.6988 37.3662 34.6804C37.371 34.6747 37.3758 34.6699 37.3806 34.6643C37.4086 34.633 37.4366 34.6018 37.4622 34.5697C40.607 30.7447 45.7527 28.4613 51.2336 28.4605C51.2352 28.4605 51.236 28.4605 51.2376 28.4605C51.2392 28.4605 51.24 28.4605 51.2416 28.4605C53.692 28.4613 56.1712 28.9377 58.4129 29.8392C60.6601 30.7431 62.6753 32.0793 64.241 33.7027C66.9322 36.4938 68.2842 40.0597 68.1506 44.0154C68.1146 45.0781 68.9442 45.9683 70.0042 46.0044C70.0266 46.0052 70.0482 46.0052 70.0706 46.0052C71.1011 46.0052 71.9531 45.1856 71.9883 44.1453C72.1603 39.1221 70.4363 34.5857 67.0042 31.0262ZM31.3621 44.5062C31.3621 41.8707 33.5005 39.726 36.1301 39.726C38.7598 39.726 40.8982 41.8699 40.8982 44.5062C40.8982 47.1409 38.7606 49.2848 36.1325 49.2864C36.1317 49.2864 36.1309 49.2864 36.1301 49.2864C36.1293 49.2864 36.1285 49.2864 36.1277 49.2864C33.4997 49.2848 31.3621 47.1409 31.3621 44.5062ZM13.337 17.2294C13.337 13.1607 16.6395 9.84982 20.6979 9.84982C24.7564 9.84982 28.0588 13.1607 28.0588 17.2294C28.0588 21.2974 24.7588 24.6067 20.7019 24.6091C20.7003 24.6091 20.6995 24.6091 20.6979 24.6091C20.6963 24.6091 20.6947 24.6091 20.6939 24.6091C16.6371 24.6067 13.337 21.2974 13.337 17.2294ZM43.8791 17.2294C43.8791 13.1607 47.1815 9.84982 51.24 9.84982C55.2984 9.84982 58.6009 13.1607 58.6009 17.2294C58.6009 21.2974 55.3008 24.6067 51.244 24.6091C51.2424 24.6091 51.2416 24.6091 51.24 24.6091C51.2384 24.6091 51.2376 24.6091 51.236 24.6091C47.1791 24.6067 43.8791 21.2974 43.8791 17.2294Z"/>
</svg>
