<svg width="64" height="64" viewBox="0 0 64 64" fill="none" xmlns="http://www.w3.org/2000/svg">
<path d="M17.44 13.3333C17.6 15.7067 18 18.0267 18.64 20.24L15.44 23.44C14.3467 20.24 13.6533 16.8533 13.4133 13.3333H17.44ZM43.7333 45.3867C46 46.0267 48.32 46.4267 50.6667 46.5867V50.56C47.1467 50.32 43.76 49.6267 40.5333 48.56L43.7333 45.3867ZM20 8H10.6667C9.2 8 8 9.2 8 10.6667C8 35.7067 28.2933 56 53.3333 56C54.8 56 56 54.8 56 53.3333V44.0267C56 42.56 54.8 41.36 53.3333 41.36C50.0267 41.36 46.8 40.8267 43.8133 39.84C43.5486 39.744 43.2682 39.6988 42.9867 39.7067C42.2933 39.7067 41.6267 39.9733 41.0933 40.48L35.2267 46.3467C27.6678 42.481 21.519 36.3322 17.6533 28.7733L23.52 22.9067C24.2667 22.16 24.48 21.12 24.1867 20.1867C23.1751 17.1148 22.6619 13.9008 22.6667 10.6667C22.6667 9.2 21.4667 8 20 8Z" fill="#B86AAB"/>
</svg>
