<svg width="67" height="61" viewBox="0 0 67 61" fill="none" xmlns="http://www.w3.org/2000/svg">
<path d="M65.9349 37.7349L56.632 17.9111L57.9021 15.4075C58.3694 14.487 58.001 13.3625 57.0805 12.8952C56.1601 12.428 55.0348 12.7963 54.5683 13.7168L54.3471 14.1537C52.4392 12.0153 49.8117 10.7498 46.9896 10.7132L42.8856 10.6602C42.8778 10.6602 42.8692 10.6602 42.8614 10.6602C41.2004 10.6602 39.2068 10.5403 37.4834 10.4056C37.9148 9.36208 38.1485 8.15035 38.1485 6.87632C38.1485 5.20202 37.7365 3.60014 36.9873 2.36661C36.0739 0.862071 34.7087 0 33.24 0C31.7713 0 30.4062 0.862071 29.4943 2.36583C28.7459 3.59936 28.3331 5.20124 28.3331 6.87554C28.3331 8.54985 28.7451 10.1517 29.4943 11.3853C29.6399 11.6251 29.7964 11.8478 29.9631 12.0542L29.8276 11.9919C27.8433 11.08 25.7462 10.6314 23.596 10.6595L19.492 10.7124C16.6699 10.749 14.0416 12.0145 12.1345 14.1529L11.9663 13.822C11.499 12.9015 10.3745 12.5339 9.45402 13.0004C8.53354 13.4668 8.16597 14.5921 8.63244 15.5126L9.84884 17.9111L0.545171 37.7349C-0.134674 39.1834 -0.18062 40.8686 0.418236 42.3591C0.98049 43.7577 2.02635 44.8121 3.36345 45.3269C5.45983 46.1344 8.72667 46.5853 12.3237 46.5627C15.9114 46.5409 19.1704 46.0542 21.2668 45.2288C22.6047 44.7015 23.6794 43.5879 24.2175 42.173C24.7976 40.6466 24.7089 38.9419 23.9753 37.4958L14.026 17.8839C15.2533 15.7782 17.3123 14.4808 19.5403 14.452L23.6443 14.399C25.2361 14.3788 26.7905 14.7121 28.2662 15.3903L29.942 16.1605C28.64 17.7827 27.2413 19.6337 27.267 22.241L27.4742 43.2757C27.4952 45.3767 28.2623 47.3142 29.5534 48.7401L15.5547 54.6407C14.3329 55.1554 13.6686 56.4513 13.9396 57.7923C14.2028 59.0928 15.2845 60.0016 16.5702 60.0016H50.3872C51.6729 60.0016 52.7546 59.0935 53.0178 57.7923C53.2888 56.452 52.6246 55.1562 51.4027 54.6407L37.404 48.7401C38.6959 47.3142 39.463 45.3767 39.4832 43.2757L39.6904 22.241C39.7169 19.566 38.5152 17.0802 36.4749 15.5897L35.2235 14.6646C35.3426 14.4372 35.4579 14.2129 35.5677 13.9972C37.6018 14.1817 40.4901 14.399 42.8458 14.3998L46.9382 14.4527C49.1661 14.4816 51.2251 15.7797 52.4524 17.8847L42.5055 37.4966C41.772 38.9427 41.684 40.6474 42.2633 42.1737C42.8007 43.5887 43.8761 44.7023 45.214 45.2295C47.3096 46.055 50.5694 46.5409 54.1571 46.5635C57.7565 46.5853 61.021 46.1352 63.1174 45.3277C64.4545 44.8121 65.5003 43.7585 66.0626 42.3599C66.6614 40.8686 66.6147 39.1834 65.9349 37.7349ZM20.6415 39.1873C20.8961 39.6895 20.9265 40.3094 20.7225 40.846C20.6259 41.1006 20.3899 41.557 19.8962 41.7509C16.3342 43.1542 8.24229 43.2009 4.70679 41.8389C4.22319 41.6528 3.98567 41.2112 3.88599 40.9651C3.67261 40.434 3.68819 39.8359 3.92882 39.3235L11.9935 22.1397L20.6415 39.1873ZM33.24 3.73798C33.4635 3.73798 34.4089 4.78383 34.4089 6.87632C34.4089 8.31155 33.9448 9.33716 33.5484 9.77949C33.4814 9.85425 33.4207 9.93446 33.3662 10.0186C33.3241 10.0154 33.2829 10.0147 33.2408 10.0147C33.0173 10.0147 32.0719 8.96881 32.0719 6.87632C32.0719 4.78383 33.0173 3.73798 33.24 3.73798ZM45.6283 56.262H21.3307L33.4799 51.141L45.6283 56.262ZM35.9539 22.2028L35.7468 43.2375C35.7304 44.9352 34.8232 46.4654 33.4799 47.0822C32.1365 46.4654 31.2293 44.9352 31.2129 43.2375L31.0058 22.2028C30.9918 20.8166 31.9364 19.6439 33.029 18.2865L33.0453 18.267C33.1341 18.1565 33.226 18.0342 33.3202 17.9034L34.2602 18.598C34.2633 18.6003 34.2664 18.6027 34.2695 18.605C35.3224 19.3736 35.968 20.752 35.9539 22.2028ZM62.5941 40.9651C62.4952 41.212 62.2569 41.6528 61.7733 41.8389C60.0483 42.5039 57.2394 42.8326 54.4009 42.8326C51.4214 42.8326 48.4084 42.4697 46.5846 41.7509C46.0909 41.5562 45.8549 41.0998 45.7584 40.846C45.5543 40.3094 45.5847 39.6895 45.8393 39.1873L54.4865 22.1397L62.5512 39.3235C62.7919 39.8359 62.8074 40.434 62.5941 40.9651Z" fill="#B86AAB"/>
</svg>
