<svg width="50" height="60" viewBox="0 0 50 60" fill="none" xmlns="http://www.w3.org/2000/svg">
<path d="M24.7456 60H24.7359C24.5157 60 24.2977 59.9591 24.0924 59.8802L20.0367 58.3133C14.2675 56.0842 9.34942 52.2234 5.8138 47.1491C2.27817 42.0749 0.360062 36.1241 0.266314 29.9397L-4.80734e-05 12.2653C-0.00748837 11.7624 0.19712 11.2802 0.563926 10.9357C0.930732 10.592 1.42551 10.4186 1.92699 10.4581L3.88899 10.6136C7.69842 10.9157 11.5145 10.1642 14.9244 8.44101C18.3351 6.7171 21.2026 4.08993 23.2181 0.843729C23.544 0.319933 24.1169 0.000744029 24.7345 0H24.7441C24.7449 0 24.7456 0 24.7456 0C25.3632 0 25.9368 0.319189 26.2627 0.843729C28.2783 4.08993 31.1465 6.7171 34.5564 8.44101C37.967 10.1649 41.7824 10.9164 45.5918 10.6136L47.5538 10.4581C48.0553 10.4186 48.5501 10.592 48.9169 10.9357C49.2837 11.2795 49.4883 11.7624 49.4809 12.2653L49.3663 19.8425C49.3574 20.4281 49.062 20.972 48.5754 21.2986L44.4936 24.0366C37.7929 29.0387 32.2335 35.2231 27.9695 42.4178L25.8416 46.0085C25.5879 46.4363 25.1667 46.7392 24.6801 46.8441C24.1935 46.949 23.6854 46.8456 23.2784 46.5591L13.1648 39.4521C12.3575 38.8852 12.1633 37.7714 12.7303 36.9641C13.2972 36.1576 14.4111 35.9627 15.2183 36.5296L23.7523 42.5265L24.8959 40.5965C29.4092 32.9806 35.296 26.4368 42.3932 21.1461C42.4171 21.1282 42.4409 21.1111 42.4654 21.0947L45.8076 18.853L45.8783 14.173L45.8723 14.1738C41.4096 14.5279 36.9388 13.6477 32.9433 11.6277C29.7366 10.0064 26.939 7.70368 24.7382 4.89199C22.5381 7.70442 19.7398 10.0072 16.533 11.6277C13.1142 13.3561 9.34645 14.2496 5.53404 14.2496C4.8912 14.2496 4.24761 14.2244 3.60403 14.173L3.59808 14.1723L3.83542 29.8839C3.91801 35.3533 5.6144 40.6173 8.74155 45.1053C11.8687 49.5933 16.219 53.0084 21.3216 54.98L24.7382 56.3007L28.1548 54.98C33.2573 53.0084 37.6069 49.5933 40.7348 45.1053C43.862 40.6173 45.5583 35.3533 45.6409 29.8839L45.6819 27.1675C45.6967 26.1816 46.5077 25.3937 47.4943 25.4086C48.4802 25.4235 49.2681 26.2352 49.2532 27.2211L49.2123 29.9375C49.1193 36.1211 47.2004 42.0719 43.6648 47.1469C40.1292 52.2212 35.2111 56.0819 29.4419 58.3111L25.3862 59.878C25.1839 59.9591 24.9659 60 24.7456 60Z" fill="#FFFFFF"/>
</svg>
