<svg width="17" height="13" viewBox="0 0 17 13" fill="none" xmlns="http://www.w3.org/2000/svg">
<path d="M1.56066 7.73445C1.10334 7.42481 0.481595 7.54452 0.171952 8.00184C-0.13769 8.45916 -0.0179756 9.08091 0.439343 9.39055L1.56066 7.73445ZM6.07692 12L5.51627 12.828C5.74427 12.9824 6.02584 13.036 6.29459 12.976C6.56334 12.9161 6.79549 12.748 6.93629 12.5114L6.07692 12ZM16.4447 1.89567C16.9394 1.65005 17.1413 1.04994 16.8957 0.555276C16.6501 0.0606125 16.0499 -0.141282 15.5553 0.104332L16.4447 1.89567ZM10.4615 5.58333L11.2096 6.24698L10.4615 5.58333ZM8.15385 8.68713L8.98907 9.23703L8.15385 8.68713ZM13.5123 2.72957L12.8692 1.96378V1.96378L13.5123 2.72957ZM0.439343 9.39055L5.51627 12.828L6.63758 11.172L1.56066 7.73445L0.439343 9.39055ZM6.07692 12C6.93629 12.5114 6.93628 12.5114 6.93628 12.5114C6.93628 12.5114 6.93628 12.5114 6.93629 12.5114C6.9363 12.5113 6.93633 12.5113 6.93637 12.5112C6.93646 12.5111 6.93661 12.5108 6.93681 12.5105C6.93722 12.5098 6.93787 12.5087 6.93875 12.5072C6.9405 12.5043 6.94319 12.4998 6.94677 12.4938C6.95394 12.4818 6.96472 12.4637 6.97889 12.4401C7.00724 12.3928 7.04916 12.323 7.10298 12.234C7.21064 12.0558 7.36579 11.8005 7.55503 11.4935C7.93395 10.8787 8.44754 10.0595 8.98907 9.23703L7.31862 8.13722C6.76242 8.98201 6.23755 9.81928 5.85244 10.4441C5.65967 10.7569 5.50141 11.0172 5.39117 11.1997C5.33604 11.2909 5.29288 11.3628 5.26339 11.412C5.24864 11.4366 5.23731 11.4555 5.2296 11.4684C5.22575 11.4749 5.2228 11.4798 5.22078 11.4832C5.21977 11.4849 5.219 11.4862 5.21846 11.4871C5.21819 11.4876 5.21798 11.4879 5.21783 11.4882C5.21775 11.4883 5.21769 11.4884 5.21765 11.4885C5.21763 11.4885 5.2176 11.4886 5.21759 11.4886C5.21757 11.4886 5.21756 11.4886 6.07692 12ZM8.98907 9.23703C9.80716 7.99447 10.2561 7.32166 11.2096 6.24698L9.71349 4.91968C8.66097 6.10606 8.14791 6.87765 7.31862 8.13722L8.98907 9.23703ZM11.2096 6.24698C12.2362 5.08979 13.004 4.46227 14.1554 3.49535L12.8692 1.96378C11.7269 2.92308 10.8508 3.63776 9.71349 4.91968L11.2096 6.24698ZM14.1554 3.49535C14.9772 2.80518 15.7698 2.23081 16.4447 1.89567L15.5553 0.104332C14.6672 0.545309 13.7312 1.23989 12.8692 1.96378L14.1554 3.49535Z" fill="#FFFFFF"/>
</svg>
