<svg width="44" height="53" viewBox="0 0 44 53" fill="none" xmlns="http://www.w3.org/2000/svg">
<path d="M41.033 47.5743C37.4904 46.3283 34.1848 45.0031 31.0935 43.6098C33.9027 39.9058 36.554 36.0772 38.7201 32.1693C43.233 24.0137 44.835 16.9909 43.6053 10.7156C42.9961 7.62327 41.3263 4.95005 38.7766 2.96779C36.4637 1.17809 33.5643 0.124662 30.6422 0.0113895C27.8217 -0.0905554 25.1817 0.65704 22.9817 2.17489C20.9622 3.57946 19.4166 5.61836 18.4463 8.09901C18.3109 8.01972 18.1643 7.92911 18.0402 7.87247C15.7499 6.64913 13.2453 6.2187 10.8084 6.62648C8.59708 7.00028 6.48733 8.04238 4.70477 9.65084C2.68528 11.4745 1.18477 13.9552 0.474 16.6397C-0.304461 19.5621 -0.123948 22.5752 0.992975 25.3277C2.89964 30.0398 6.92733 34.8652 12.6586 39.2715C15.5243 41.4803 18.8186 43.5645 22.4627 45.5354C21.8084 46.3283 21.154 47.1212 20.5109 47.9141C19.5294 49.1035 19.6873 50.8592 20.8607 51.8447C21.3796 52.2864 22.0114 52.4903 22.6432 52.4903C23.4443 52.4903 24.234 52.1505 24.7755 51.4822C25.7007 50.3721 26.6258 49.2394 27.5509 48.0954C31.1386 49.7718 35.0309 51.3576 39.2053 52.8188C39.5099 52.9208 39.8145 52.9774 40.1191 52.9774C41.2699 52.9774 42.3417 52.2525 42.7478 51.1084C43.2555 49.6699 42.4884 48.0841 41.033 47.5743ZM16.0432 34.8539C9.80426 30.0511 7.20938 25.8827 6.14887 23.2435C5.49451 21.6237 5.39297 19.834 5.85554 18.0896C6.29554 16.4472 7.20938 14.9293 8.43913 13.8193C9.43195 12.9244 12.0945 11.0214 15.434 12.8111C16.0545 13.1396 18.1078 14.3856 18.6268 16.4811C18.9991 17.9763 20.4996 18.8938 21.9889 18.52C23.4781 18.1462 24.3919 16.6397 24.0196 15.1445C23.8053 14.261 23.4668 13.4908 23.0719 12.7658C23.1171 11.9729 23.2299 11.3499 23.2976 11.1121C24.7304 5.94685 28.7581 5.53907 30.4278 5.60703C33.6771 5.73163 37.3776 7.89513 38.1448 11.803C39.115 16.7303 37.7048 22.5072 33.8576 29.4621C31.6689 33.4153 28.9273 37.3232 25.994 41.1292C22.2484 39.1469 18.9089 37.0514 16.0432 34.8539Z" fill="#F9F9F9"/>
</svg>
