<svg width="51" height="60" viewBox="0 0 51 60" fill="none" xmlns="http://www.w3.org/2000/svg">
<g clip-path="url(#clip0)">
<path d="M25.2744 35.4254C19.975 35.4254 15.6631 31.1143 15.6631 25.8141C15.6631 20.514 19.9742 16.2036 25.2744 16.2036C30.5745 16.2036 34.8849 20.5147 34.8849 25.8141C34.8849 31.1135 30.5738 35.4254 25.2744 35.4254ZM25.2744 19.7622C21.9374 19.7622 19.2217 22.4772 19.2217 25.8141C19.2217 29.1511 21.9367 31.8668 25.2744 31.8668C28.6121 31.8668 31.3263 29.1518 31.3263 25.8141C31.3263 22.4764 28.6113 19.7622 25.2744 19.7622Z" fill="#B86AAB"/>
<path d="M25.2744 60C24.8192 60 24.364 59.8265 24.0163 59.4788C22.6151 58.0776 21.0285 56.5889 19.3493 55.0127C17.3617 53.1474 15.3058 51.2176 13.2678 49.1662C12.5753 48.4693 12.579 47.3424 13.2759 46.6499C13.9728 45.9575 15.0997 45.9612 15.7922 46.6581C17.7872 48.6658 19.8194 50.5733 21.7848 52.4179C23.0051 53.5633 24.1772 54.6635 25.2752 55.7267C26.325 54.7117 27.4534 53.6538 28.6277 52.5521C32.7416 48.6939 37.4042 44.3205 41.0088 39.6194C45.0337 34.3697 46.9902 29.6775 46.9902 25.2744C46.9902 19.4739 44.7313 14.021 40.6299 9.91894C36.5279 5.81762 31.0743 3.55863 25.2744 3.55863C19.4746 3.55863 14.021 5.81762 9.91894 9.91894C5.81762 14.0203 3.55863 19.4739 3.55863 25.2744C3.55863 29.96 5.75386 34.9643 10.2704 40.5714C10.8864 41.3365 10.7663 42.4567 10.0005 43.0735C9.23539 43.6896 8.11516 43.5688 7.49833 42.8037C2.45249 36.5382 0 30.8044 0 25.2744C0 21.8633 0.668726 18.5531 1.9869 15.4363C3.25985 12.4263 5.08217 9.72396 7.40269 7.40343C9.72322 5.08291 12.4263 3.2606 15.4356 1.98764C18.5531 0.668726 21.8626 0 25.2744 0C28.6863 0 31.9958 0.668726 35.1126 1.9869C38.1226 3.25985 40.8249 5.08217 43.1454 7.40269C45.466 9.72322 47.2883 12.4263 48.5612 15.4356C49.8794 18.5523 50.5481 21.8626 50.5481 25.2737C50.5481 30.4886 48.3514 35.8895 43.832 41.7835C40.0502 46.7167 35.2742 51.1954 31.0609 55.1469C29.4232 56.6831 27.8759 58.1339 26.5318 59.4781C26.1849 59.8265 25.7296 60 25.2744 60Z" fill="#B86AAB"/>
</g>
<defs>
<clipPath id="clip0">
<rect width="50.5481" height="60" fill="white"/>
</clipPath>
</defs>
</svg>
