<svg width="40" height="43" viewBox="0 0 40 43" fill="none" xmlns="http://www.w3.org/2000/svg">
<path d="M33.9991 7.77643C30.5329 4.28814 26.0379 2.24398 21.2318 1.94503V1.2654C21.2318 0.566795 20.68 0 19.9998 0C19.3196 0 18.7677 0.566795 18.7677 1.2654V1.94503C13.9616 2.24398 9.46666 4.28761 6.00045 7.77643C2.24522 11.5558 0.114263 16.6068 0.000297259 21.9996C-0.0125367 22.6033 0.391478 23.1316 0.965414 23.2623C1.53935 23.3931 2.12304 23.0894 2.3597 22.5368C3.30326 20.3356 5.42549 18.913 7.76641 18.913C8.8034 18.913 9.82242 19.1925 10.7136 19.7213C11.5802 20.2354 12.3112 20.9725 12.8276 21.853C13.0504 22.2331 13.4508 22.4651 13.8831 22.4651C14.3153 22.4651 14.7158 22.2326 14.9386 21.853C15.455 20.9725 16.186 20.2354 17.0526 19.7213C17.5865 19.4044 18.1661 19.1782 18.7677 19.047V37.5435C18.7677 39.1574 17.4895 40.4702 15.9181 40.4702C14.3467 40.4702 13.0684 39.1574 13.0684 37.5435C13.0684 36.8449 12.5165 36.2781 11.8363 36.2781C11.1561 36.2781 10.6043 36.8449 10.6043 37.5435C10.6043 40.5525 12.9878 43.0011 15.9181 43.0011C18.8478 43.0011 21.2318 40.553 21.2318 37.5435V17.6471C21.2318 16.9485 20.68 16.3817 19.9998 16.3817C18.5311 16.3817 17.0854 16.7787 15.82 17.5295C15.1008 17.9561 14.4478 18.4912 13.8831 19.1123C13.3184 18.4912 12.6654 17.9561 11.9462 17.5295C10.6808 16.7787 9.23513 16.3817 7.76641 16.3817C6.0369 16.3817 4.39209 16.9295 3.02348 17.896C3.81508 14.7662 5.4219 11.9022 7.72534 9.58385C11.0232 6.26533 15.3821 4.43788 19.9998 4.43735C19.9998 4.43735 19.9998 4.43735 20.0003 4.43735C20.0008 4.43735 20.0003 4.43735 20.0008 4.43735C24.6185 4.43735 28.9774 6.26533 32.2753 9.58385C34.5787 11.9022 36.185 14.7657 36.9771 17.8954C35.609 16.929 33.9637 16.3812 32.2342 16.3812C30.7655 16.3812 29.3198 16.7782 28.0544 17.529C27.3352 17.9556 26.6817 18.4907 26.117 19.1118C25.6267 18.573 25.0697 18.0979 24.4635 17.7041C23.888 17.3308 23.1272 17.5074 22.7637 18.0984C22.4003 18.6895 22.5722 19.4709 23.1477 19.8442C23.9255 20.3487 24.5877 21.0431 25.062 21.8519C25.2848 22.2321 25.6853 22.4641 26.1175 22.4641C26.5497 22.4641 26.9497 22.2316 27.173 21.8519C27.6894 20.9714 28.4204 20.2343 29.287 19.7203C30.1777 19.192 31.1967 18.9125 32.2337 18.9125C34.5746 18.9125 36.6968 20.335 37.6404 22.5368C37.8406 23.0035 38.2877 23.2924 38.7677 23.2924C38.856 23.2924 38.9459 23.2824 39.0347 23.2623C39.6086 23.1316 40.0126 22.6027 39.9998 21.9996C39.8853 16.6068 37.7543 11.5558 33.9991 7.77643Z" fill="#F9F9F9"/>
</svg>
