<svg width="59" height="47" viewBox="0 0 59 47" fill="none" xmlns="http://www.w3.org/2000/svg">
<path d="M59 6.37534C59 5.94618 58.8273 5.53516 58.5205 5.2337C58.2143 4.93293 57.7998 4.76964 57.3692 4.77453L53.122 4.8464V1.6064C53.122 1.59732 53.1213 1.58895 53.1213 1.57988C53.1213 1.56592 53.1206 1.55197 53.1199 1.53801C53.1192 1.52475 53.1185 1.51219 53.1178 1.49893C53.1171 1.48497 53.1157 1.47032 53.1143 1.45636C53.1129 1.4438 53.1115 1.43124 53.1101 1.41868C53.1087 1.40472 53.1066 1.39007 53.1045 1.37611C53.1024 1.36355 53.1003 1.35169 53.0989 1.33913C53.0969 1.32517 53.0941 1.31122 53.0913 1.29726C53.0892 1.2847 53.0864 1.27284 53.0836 1.26027C53.0808 1.24702 53.0773 1.23306 53.0745 1.2198C53.0717 1.20724 53.0682 1.19538 53.0647 1.18282C53.0612 1.16956 53.0577 1.157 53.0535 1.14374C53.05 1.13118 53.0458 1.11931 53.0416 1.10675C53.0374 1.09419 53.0332 1.08163 53.029 1.06907C53.0249 1.05651 53.02 1.04465 53.0151 1.03209C53.0102 1.02022 53.006 1.00836 53.0011 0.996496C52.9962 0.983935 52.9906 0.972072 52.985 0.959511C52.9801 0.948346 52.9752 0.936483 52.9696 0.925318C52.964 0.912757 52.9578 0.900894 52.9515 0.889031C52.9459 0.877865 52.9403 0.8667 52.9347 0.856233C52.9284 0.84437 52.9214 0.832507 52.9151 0.820644C52.9088 0.810176 52.9032 0.799709 52.8969 0.789242C52.8899 0.777378 52.883 0.766213 52.8753 0.75435C52.869 0.743883 52.862 0.734113 52.8557 0.723646C52.848 0.712481 52.8403 0.701315 52.8326 0.69015C52.8256 0.680381 52.8186 0.669913 52.811 0.660144C52.8033 0.649676 52.7949 0.639209 52.7872 0.628044C52.7795 0.618274 52.7718 0.608505 52.7641 0.598735C52.7557 0.588268 52.7473 0.578498 52.739 0.568728C52.7306 0.558959 52.7229 0.549887 52.7145 0.540118C52.7061 0.530348 52.697 0.521276 52.6886 0.511507C52.6795 0.502435 52.6712 0.492665 52.6621 0.483594C52.653 0.474522 52.6439 0.46545 52.6348 0.457076C52.6257 0.448004 52.6159 0.438933 52.6061 0.429861C52.5971 0.421487 52.588 0.413113 52.5782 0.404739C52.5684 0.395668 52.5586 0.387294 52.5481 0.37892C52.539 0.371244 52.5293 0.363568 52.5195 0.355891C52.509 0.347517 52.4985 0.339144 52.488 0.33077C52.4782 0.323094 52.4684 0.316115 52.4587 0.309137C52.4475 0.301461 52.437 0.293087 52.4258 0.285411C52.416 0.278433 52.4055 0.272152 52.395 0.265174C52.3839 0.257498 52.3727 0.25052 52.3608 0.243541C52.3503 0.237261 52.3398 0.230981 52.3293 0.2247C52.3175 0.217722 52.3056 0.210744 52.2937 0.204463C52.2832 0.198183 52.272 0.1926 52.2608 0.187017C52.249 0.180737 52.2371 0.174457 52.2252 0.168874C52.214 0.163291 52.2021 0.157709 52.1909 0.152824C52.1791 0.147241 52.1672 0.141659 52.1546 0.136774C52.1427 0.131889 52.1308 0.127004 52.1189 0.12212C52.1071 0.117235 52.0945 0.11235 52.0826 0.107465C52.07 0.10258 52.0574 0.0983935 52.0448 0.0942065C52.033 0.0900196 52.0211 0.0858326 52.0085 0.0816457C51.9952 0.0774587 51.9819 0.0732718 51.9687 0.0697826C51.9568 0.0662935 51.9449 0.0628044 51.9323 0.0593152C51.9183 0.0558261 51.905 0.052337 51.8911 0.0488478C51.8792 0.0460565 51.8673 0.0432652 51.8554 0.0404739C51.8414 0.0376826 51.8268 0.0348913 51.8128 0.0321C51.8009 0.0300065 51.789 0.0279131 51.7771 0.0258196C51.7624 0.0237261 51.7478 0.0216326 51.7331 0.0195391C51.7212 0.0181435 51.7093 0.01605 51.6974 0.0146544C51.6828 0.0132587 51.6681 0.011863 51.6527 0.0104674C51.6401 0.00976957 51.6282 0.00837392 51.6157 0.00767609C51.601 0.00697826 51.5863 0.00628044 51.5716 0.00558261C51.5632 0.00558261 51.5548 0.00488478 51.5464 0.00418696C51.3402 0.00209348 51.1298 0 50.9208 0C46.3178 0 41.7799 0.961605 37.7983 2.78154C34.5563 4.26302 31.7225 6.28951 29.5003 8.7012C27.2782 6.28951 24.4437 4.26302 21.2024 2.78154C17.2208 0.961605 12.6828 0 8.07986 0C7.87086 0 7.65976 0.00209348 7.45285 0.00558261C7.44446 0.00558261 7.43608 0.00628044 7.42769 0.00697826C7.41301 0.00767609 7.39833 0.00767609 7.38365 0.00907174C7.37107 0.00976957 7.35918 0.0111652 7.3466 0.011863C7.33192 0.0132587 7.31655 0.0146544 7.30187 0.01605C7.28998 0.0174457 7.2781 0.0188413 7.26622 0.0209348C7.25154 0.0230283 7.23686 0.0251217 7.22218 0.0272152C7.2103 0.0293087 7.19841 0.0314022 7.18653 0.0334957C7.17185 0.036287 7.15787 0.0390783 7.14389 0.0418696C7.13201 0.0446609 7.12012 0.0474522 7.10824 0.0502435C7.09426 0.0537326 7.08098 0.0572218 7.067 0.0607109C7.05512 0.0642 7.04323 0.0676892 7.03135 0.0711783C7.01807 0.0753652 7.00479 0.0788544 6.99151 0.0830413C6.97962 0.0872283 6.96704 0.0914152 6.95516 0.0949044C6.94257 0.0990913 6.92999 0.103976 6.91741 0.108163C6.90553 0.113048 6.89294 0.117933 6.88106 0.122817C6.86918 0.127702 6.8573 0.132587 6.84541 0.137472C6.83353 0.143054 6.82095 0.147939 6.80906 0.153522C6.79788 0.159104 6.786 0.163989 6.77481 0.169572C6.76293 0.175154 6.75105 0.181435 6.73916 0.187715C6.72798 0.193298 6.71749 0.199578 6.70631 0.205161C6.69443 0.211441 6.68254 0.21842 6.67136 0.225398C6.66087 0.231678 6.65039 0.237959 6.6399 0.244239C6.62872 0.251217 6.61684 0.258894 6.60565 0.265872C6.59517 0.27285 6.58538 0.279131 6.57489 0.286109C6.56371 0.293785 6.55323 0.301461 6.54204 0.309137C6.53225 0.316115 6.52177 0.323791 6.51198 0.33077C6.5008 0.339841 6.49031 0.348215 6.47983 0.356589C6.47004 0.364265 6.46026 0.371941 6.45117 0.380315C6.44068 0.388689 6.4309 0.397063 6.42111 0.406135C6.41133 0.414509 6.40224 0.422883 6.39315 0.431257C6.38337 0.440328 6.37428 0.448702 6.36519 0.457774C6.3561 0.466846 6.34702 0.475918 6.33793 0.484989C6.32884 0.494061 6.32046 0.503133 6.31207 0.512205C6.30298 0.521974 6.29389 0.531744 6.2855 0.541513C6.27712 0.550585 6.26943 0.559657 6.26174 0.569426C6.25195 0.579196 6.24356 0.589663 6.23518 0.600131C6.22749 0.609202 6.2198 0.618972 6.21281 0.628044C6.20442 0.638511 6.19603 0.649676 6.18834 0.660842C6.18135 0.670611 6.17436 0.680381 6.16737 0.69015C6.15968 0.701315 6.15129 0.713178 6.14361 0.724344C6.13731 0.734113 6.13102 0.743883 6.12473 0.75435C6.11704 0.766213 6.11005 0.778076 6.10306 0.789939C6.09677 0.799709 6.09118 0.810176 6.08559 0.820644C6.0786 0.832507 6.07161 0.845068 6.06532 0.857629C6.05972 0.868096 6.05413 0.878563 6.04924 0.889729C6.04295 0.902289 6.03666 0.91485 6.03106 0.927411C6.02617 0.938576 6.02128 0.949742 6.01639 0.960209C6.01079 0.97277 6.0052 0.985331 6.00031 0.997892C5.99541 1.00906 5.99122 1.02092 5.98633 1.03209C5.98143 1.04465 5.97654 1.05721 5.97235 1.07047C5.96815 1.08233 5.96396 1.09489 5.95977 1.10675C5.95557 1.11931 5.95138 1.13187 5.94788 1.14444C5.94439 1.157 5.94089 1.16956 5.9374 1.18282C5.9339 1.19538 5.93041 1.20794 5.92761 1.2205C5.92412 1.23376 5.92132 1.24702 5.91852 1.26027C5.91573 1.27284 5.91293 1.2854 5.91083 1.29796C5.90804 1.31191 5.90594 1.32517 5.90315 1.33913C5.90105 1.35169 5.89895 1.36425 5.89685 1.37681C5.89476 1.39077 5.89336 1.40472 5.89126 1.41868C5.88986 1.43124 5.88847 1.4438 5.88707 1.45706C5.88567 1.47102 5.88497 1.48497 5.88357 1.49963C5.88287 1.51289 5.88217 1.52615 5.88148 1.53871C5.88078 1.55266 5.88078 1.56662 5.88008 1.57988C5.88008 1.58895 5.87938 1.59802 5.87938 1.6064V35.8215C5.87938 35.8264 5.87938 35.8313 5.88008 35.8362C5.88008 35.8411 5.88008 35.8452 5.88008 35.8501C5.88008 35.8585 5.88078 35.8669 5.88148 35.8759C5.88217 35.8906 5.88217 35.9046 5.88357 35.9192C5.88427 35.9318 5.88567 35.9436 5.88637 35.9562C5.88777 35.9709 5.88916 35.9855 5.89056 36.0002C5.89196 36.012 5.89336 36.0239 5.89546 36.0358C5.89755 36.0504 5.89965 36.0651 5.90175 36.0797C5.90384 36.0916 5.90594 36.1034 5.90804 36.1146C5.91083 36.1293 5.91363 36.1432 5.91643 36.1579C5.91922 36.1697 5.92202 36.1816 5.92482 36.1928C5.92831 36.2067 5.93111 36.2207 5.9353 36.2339C5.9388 36.2458 5.94159 36.2577 5.94509 36.2688C5.94928 36.2821 5.95278 36.2953 5.95697 36.3086C5.96046 36.3205 5.96466 36.3323 5.96885 36.3442C5.97305 36.3568 5.97794 36.3693 5.98213 36.3819C5.98633 36.3937 5.99122 36.4056 5.99611 36.4175C6.00101 36.4293 6.0059 36.4419 6.01079 36.4538C6.01569 36.4656 6.02128 36.4775 6.02687 36.4893C6.03246 36.5005 6.03736 36.5124 6.04295 36.5235C6.04854 36.5354 6.05483 36.5473 6.06112 36.5591C6.06671 36.5703 6.07231 36.5808 6.0786 36.5919C6.08489 36.6038 6.09188 36.6156 6.09887 36.6268C6.10516 36.6373 6.11145 36.6477 6.11774 36.6582C6.12473 36.6694 6.13242 36.6812 6.13941 36.6924C6.1457 36.7029 6.15269 36.7126 6.15968 36.7231C6.16737 36.7343 6.17506 36.7454 6.18345 36.7559C6.19044 36.7657 6.19743 36.7754 6.20442 36.7852C6.21281 36.7957 6.2212 36.8062 6.22958 36.8166C6.23727 36.8264 6.24426 36.8355 6.25265 36.8452C6.26104 36.8557 6.27013 36.8655 6.27851 36.8752C6.2869 36.8843 6.29459 36.8941 6.30298 36.9031C6.31207 36.9129 6.32115 36.922 6.32954 36.9311C6.33793 36.9401 6.34702 36.9492 6.3561 36.9583C6.36519 36.9673 6.37428 36.9757 6.38337 36.9841C6.39245 36.9932 6.40224 37.0022 6.41203 37.0106C6.42111 37.019 6.4302 37.0267 6.43999 37.0343C6.44977 37.0427 6.46026 37.0518 6.47004 37.0602C6.47913 37.0678 6.48892 37.0748 6.4987 37.0825C6.50919 37.0909 6.51967 37.0992 6.53086 37.1076C6.53994 37.1146 6.54973 37.1209 6.55952 37.1278C6.5707 37.1362 6.58188 37.1439 6.59377 37.1516C6.60355 37.1579 6.61334 37.1641 6.62313 37.1704C6.63501 37.1781 6.64689 37.1858 6.65878 37.1927C6.66856 37.199 6.67905 37.2039 6.68883 37.2102C6.70072 37.2172 6.7133 37.2242 6.72588 37.2311C6.73637 37.2367 6.74685 37.2416 6.75734 37.2472C6.76992 37.2535 6.7818 37.2597 6.79438 37.266C6.80557 37.2716 6.81675 37.2758 6.82794 37.2814C6.84052 37.287 6.8524 37.2925 6.86498 37.2981C6.87687 37.303 6.88875 37.3079 6.90063 37.3121C6.91252 37.317 6.9251 37.3218 6.93698 37.326C6.95026 37.3309 6.96354 37.3351 6.97683 37.3393C6.98801 37.3428 6.99919 37.347 7.01108 37.3505C7.02576 37.3553 7.04114 37.3588 7.05581 37.363C7.0656 37.3658 7.07609 37.3686 7.08587 37.3714C7.10265 37.3756 7.12012 37.3798 7.1369 37.3833C7.14529 37.3853 7.15368 37.3874 7.16276 37.3888C7.18303 37.393 7.20331 37.3965 7.22358 37.3993C7.22917 37.4 7.23546 37.4014 7.24105 37.4021C7.26412 37.4056 7.28719 37.4084 7.31025 37.4112C7.31375 37.4119 7.31724 37.4119 7.32074 37.4126C7.37456 37.4181 7.42909 37.4209 7.48361 37.4209C7.48361 37.4209 7.48361 37.4209 7.48431 37.4209C7.49339 37.4209 7.50318 37.4209 7.51227 37.4209C7.701 37.4174 7.89253 37.416 8.08196 37.416C11.8776 37.416 15.6138 38.1383 18.9544 39.5102C14.7666 38.8466 10.014 38.9031 5.55783 38.9562C4.74838 38.9659 3.96968 38.975 3.20986 38.9799V6.37534C3.20986 5.4912 2.49197 4.77453 1.60633 4.77453C0.72068 4.77453 0 5.4912 0 6.37534V40.5905C0 40.5953 0 40.6002 0.000699011 40.6051C0.000699011 40.61 0.000699011 40.6142 0.000699011 40.6191C0.000699011 40.6274 0.00139802 40.6358 0.00209703 40.6449C0.00279604 40.6595 0.00279604 40.6735 0.00419406 40.6882C0.00489307 40.7007 0.0062911 40.7133 0.00699011 40.7251C0.00838813 40.7398 0.00978615 40.7545 0.0111842 40.7691C0.0125822 40.781 0.0139802 40.7935 0.0160772 40.8054C0.0181743 40.82 0.0202713 40.8347 0.0223683 40.8487C0.0244654 40.8605 0.0265624 40.8724 0.0286594 40.8842C0.0314555 40.8982 0.0342515 40.9122 0.0370476 40.9268C0.0398436 40.9387 0.0426397 40.9505 0.0454357 40.9631C0.0489307 40.9764 0.0517268 40.9903 0.0552218 41.0036C0.0587169 41.0154 0.062212 41.028 0.065707 41.0399C0.0692021 41.0531 0.0733961 41.0657 0.0775902 41.0789C0.0817843 41.0915 0.0859783 41.1034 0.0901724 41.1152C0.0943664 41.1278 0.0985605 41.1396 0.103454 41.1522C0.108347 41.1648 0.11324 41.1766 0.118133 41.1892C0.123026 41.2011 0.12722 41.2129 0.132812 41.2241C0.138404 41.2366 0.143996 41.2485 0.149588 41.2611C0.154481 41.2722 0.160073 41.2834 0.164967 41.2946C0.171258 41.3071 0.177549 41.319 0.18384 41.3316C0.189432 41.342 0.195024 41.3525 0.200616 41.363C0.207606 41.3755 0.214596 41.3874 0.221586 41.3992C0.227178 41.409 0.23347 41.4195 0.239062 41.4292C0.246751 41.4411 0.25444 41.453 0.26143 41.4648C0.267721 41.4746 0.274012 41.4844 0.280303 41.4941C0.287992 41.506 0.296381 41.5172 0.304769 41.5283C0.311759 41.5374 0.31805 41.5472 0.32504 41.5563C0.333428 41.5674 0.341816 41.5779 0.350903 41.5891C0.357893 41.5981 0.365583 41.6072 0.372573 41.6163C0.38166 41.6267 0.390747 41.6372 0.399135 41.647C0.406824 41.656 0.414513 41.6651 0.422901 41.6735C0.431989 41.6833 0.441076 41.693 0.450862 41.7028C0.45925 41.7119 0.467638 41.7202 0.476026 41.7293C0.485113 41.7384 0.4949 41.7475 0.503987 41.7565C0.513074 41.7649 0.522161 41.774 0.531248 41.7823C0.540335 41.7907 0.550121 41.7991 0.559908 41.8068C0.569694 41.8151 0.57948 41.8235 0.589266 41.8319C0.599052 41.8396 0.608838 41.8472 0.617925 41.8549C0.628411 41.8633 0.638896 41.8717 0.649381 41.8793C0.659167 41.8863 0.668953 41.8933 0.678739 41.9003C0.689924 41.908 0.701108 41.9163 0.712292 41.924C0.722078 41.9303 0.731864 41.9366 0.74165 41.9428C0.753534 41.9505 0.764718 41.9582 0.776601 41.9652C0.786387 41.9715 0.796872 41.977 0.807357 41.9826C0.819241 41.9896 0.831124 41.9966 0.843706 42.0029C0.854191 42.0084 0.864676 42.014 0.875161 42.0189C0.887744 42.0252 0.899627 42.0315 0.912209 42.0378C0.923393 42.0433 0.934577 42.0482 0.945762 42.0531C0.958344 42.0587 0.970227 42.0643 0.982809 42.0699C0.994692 42.0747 1.00658 42.0796 1.01916 42.0838C1.03104 42.0887 1.04292 42.0936 1.05551 42.0978C1.06879 42.1027 1.08207 42.1068 1.09535 42.111C1.10653 42.1145 1.11772 42.1187 1.1289 42.1222C1.14358 42.1271 1.15896 42.1306 1.17434 42.1348C1.18412 42.1375 1.19461 42.1403 1.2044 42.1431C1.22117 42.1473 1.23865 42.1515 1.25612 42.155C1.26451 42.1571 1.2729 42.1592 1.28129 42.1606C1.30156 42.1648 1.32183 42.1682 1.3421 42.171C1.34769 42.1717 1.35398 42.1731 1.35958 42.1738C1.38264 42.1773 1.40571 42.1801 1.42878 42.1829C1.43227 42.1836 1.43577 42.1836 1.43926 42.1843C1.49309 42.1899 1.54761 42.1927 1.60213 42.1927C1.60213 42.1927 1.60213 42.1927 1.60283 42.1927C1.61192 42.1927 1.6217 42.1927 1.63079 42.1927C1.81952 42.1892 2.01105 42.1878 2.20049 42.1878C3.29793 42.1878 4.41216 42.1745 5.59209 42.1606C9.85535 42.1096 14.264 42.0573 18.1288 42.6295C22.2565 43.2401 24.9757 44.4655 26.4415 46.3754C26.7448 46.7711 27.2153 47.0028 27.7144 47.0028H29.4962C29.4969 47.0028 29.4976 47.0028 29.4976 47.0028C29.4983 47.0028 29.4983 47.0028 29.499 47.0028C29.4997 47.0028 29.4997 47.0028 29.5003 47.0028C29.501 47.0028 29.5017 47.0028 29.5017 47.0028H31.2807C31.2814 47.0028 31.2821 47.0028 31.2821 47.0028C31.287 47.0028 31.2912 47.0021 31.2961 47.0021C31.3206 47.0021 31.345 47.0014 31.3695 47C31.3751 47 31.3814 46.9993 31.387 46.9986C31.4107 46.9972 31.4345 46.9951 31.4583 46.9923C31.4632 46.9916 31.4681 46.9909 31.473 46.9902C31.4974 46.9874 31.5226 46.9839 31.5464 46.9798C31.5505 46.9791 31.5547 46.9784 31.5589 46.9777C31.5841 46.9735 31.6093 46.9686 31.6337 46.963C31.6372 46.9623 31.6414 46.9609 31.6449 46.9602C31.6701 46.9546 31.6952 46.9477 31.7204 46.9407C31.7239 46.94 31.7274 46.9386 31.7309 46.9379C31.7561 46.9302 31.7819 46.9225 31.8064 46.9142C31.8092 46.9135 31.812 46.9121 31.8155 46.9114C31.842 46.9023 31.8686 46.8918 31.8945 46.8814C31.8959 46.8807 31.8966 46.8807 31.898 46.88C31.9259 46.8688 31.9532 46.8562 31.9797 46.8437C31.9818 46.843 31.9839 46.8416 31.986 46.8409C32.0084 46.8297 32.0315 46.8186 32.0531 46.806C32.0643 46.7997 32.0755 46.7927 32.0874 46.7865C32.1 46.7795 32.1126 46.7718 32.1244 46.7648C32.1377 46.7565 32.151 46.7481 32.1636 46.7397C32.1734 46.7334 32.1832 46.7264 32.1929 46.7202C32.2069 46.7104 32.2209 46.7006 32.2342 46.6909C32.2426 46.6846 32.251 46.6783 32.2586 46.672C32.2726 46.6616 32.2866 46.6504 32.3006 46.6392C32.3076 46.6336 32.3139 46.6281 32.3202 46.6225C32.3432 46.6029 32.3656 46.5827 32.388 46.5618C32.3991 46.5513 32.4103 46.5408 32.4208 46.5297C32.4292 46.5213 32.4376 46.5122 32.446 46.5031C32.4586 46.4899 32.4711 46.4766 32.483 46.4627C32.49 46.455 32.4963 46.4473 32.5033 46.4396C32.518 46.4222 32.532 46.4048 32.5459 46.3873C32.5487 46.3838 32.5515 46.3803 32.555 46.3768C34.0209 44.4669 36.74 43.2415 40.8677 42.6309C44.7325 42.0587 49.1412 42.1117 53.4044 42.162C54.5843 42.1759 55.6993 42.1892 56.796 42.1892C56.9855 42.1892 57.177 42.1906 57.3657 42.1941C57.3706 42.1941 57.3748 42.1941 57.3797 42.1941C57.3846 42.1941 57.3895 42.1948 57.3944 42.1948C57.4028 42.1948 57.4111 42.1941 57.4188 42.1941C57.4342 42.1941 57.4503 42.1934 57.4657 42.1927C57.4755 42.192 57.4859 42.1913 57.4957 42.1913C57.5139 42.1899 57.5321 42.1892 57.5503 42.1871C57.5572 42.1864 57.5642 42.1857 57.5712 42.185C57.5922 42.1829 57.6132 42.1801 57.6334 42.1773C57.6376 42.1766 57.6418 42.1759 57.646 42.1752C57.6698 42.1717 57.6928 42.1675 57.7159 42.1627C57.7173 42.1627 57.7187 42.162 57.7201 42.162C58.2143 42.0608 58.6253 41.7321 58.8392 41.2897C58.8399 41.2883 58.8406 41.2876 58.8406 41.2862C58.8511 41.2646 58.8609 41.2429 58.87 41.2213C58.8714 41.2178 58.8728 41.2143 58.8742 41.2108C58.8826 41.1913 58.8903 41.1711 58.8979 41.1515C58.9 41.1452 58.9021 41.1397 58.9042 41.1334C58.9105 41.1152 58.9168 41.0978 58.9224 41.0796C58.9252 41.0713 58.9273 41.0629 58.9301 41.0545C58.935 41.0385 58.9399 41.0224 58.9441 41.0057C58.9469 40.9952 58.9497 40.9847 58.9518 40.9743C58.9553 40.9596 58.9588 40.945 58.9616 40.9303C58.9644 40.9177 58.9664 40.9052 58.9685 40.8933C58.9713 40.8801 58.9734 40.8668 58.9755 40.8535C58.9776 40.8396 58.9797 40.8263 58.9818 40.8124C58.9832 40.7998 58.9853 40.7873 58.9867 40.7747C58.9881 40.76 58.9895 40.7454 58.9909 40.7307C58.9916 40.7182 58.993 40.7063 58.9937 40.6937C58.9944 40.6791 58.9951 40.6644 58.9958 40.6498C58.9958 40.6414 58.9965 40.633 58.9972 40.6247C58.9972 40.6198 58.9972 40.6156 58.9972 40.6107C58.9972 40.6058 58.9979 40.6009 58.9979 40.596V6.37534H59ZM27.9961 11.8637V41.4258C26.05 39.6637 23.7517 38.1613 21.2017 36.996C17.5102 35.3093 13.3413 34.3603 9.08504 34.2305V3.21907C12.8821 3.34678 16.5903 4.19463 19.8673 5.69217C23.1638 7.19878 25.9662 9.32784 27.9961 11.8637ZM40.0484 39.5109C43.389 38.139 47.1252 37.416 50.9208 37.416C51.018 37.416 51.1124 37.407 51.2046 37.3902C51.306 37.4105 51.4108 37.4209 51.5185 37.4209C52.4041 37.4209 53.122 36.7043 53.122 35.8201V11.9824C53.122 11.0982 52.4041 10.3816 51.5185 10.3816C50.6328 10.3816 49.915 11.0982 49.915 11.9824V34.2312C45.6587 34.361 41.4891 35.31 37.7983 36.9967C35.335 38.1222 33.1065 39.5633 31.2031 41.2485V11.6195C33.2156 9.19107 35.9431 7.14993 39.1327 5.69217C42.4097 4.19463 46.1179 3.34678 49.915 3.21907V6.47443C49.915 6.47722 49.915 6.48002 49.915 6.4835C49.915 6.48978 49.915 6.49606 49.915 6.50165C49.915 6.51421 49.9164 6.52607 49.9164 6.53863C49.9171 6.5477 49.9171 6.55747 49.9178 6.56655C49.9185 6.58469 49.9205 6.60213 49.9219 6.61958C49.9226 6.62865 49.9233 6.63842 49.9247 6.64749C49.9268 6.66494 49.9289 6.68308 49.9317 6.70053C49.9331 6.7096 49.9338 6.71797 49.9352 6.72705C49.938 6.74519 49.9415 6.76333 49.945 6.78078C49.9464 6.78915 49.9478 6.79683 49.9499 6.8052C49.9541 6.82404 49.9583 6.84219 49.9625 6.86033C49.9646 6.86731 49.966 6.87429 49.9681 6.88127C49.973 6.9008 49.9786 6.91965 49.9842 6.93849C49.9863 6.94407 49.9877 6.95035 49.9898 6.95593C49.996 6.97617 50.003 6.99641 50.01 7.01595C50.0114 7.02013 50.0128 7.02432 50.0149 7.02851C50.0226 7.05014 50.031 7.07107 50.0401 7.09201C50.0415 7.0948 50.0422 7.09689 50.0436 7.09968C50.0534 7.12201 50.0631 7.14435 50.0736 7.16668C50.0743 7.16737 50.0743 7.16807 50.075 7.16947C50.3225 7.68237 50.8349 8.04245 51.4318 8.07315C51.4346 8.07315 51.4381 8.07385 51.4409 8.07385C51.4605 8.07455 51.4807 8.07525 51.501 8.07525C51.5073 8.07525 51.5136 8.07594 51.5199 8.07594C51.5241 8.07594 51.5283 8.07594 51.5325 8.07594C51.5374 8.07594 51.5423 8.07594 51.5471 8.07594L55.795 8.00407V38.9806C55.0352 38.9757 54.2565 38.9666 53.4471 38.9569C48.9888 38.9038 44.2355 38.8473 40.0484 39.5109Z" fill="#ffffff"/>
</svg>
