<svg width="65" height="60" viewBox="0 0 65 60" fill="none" xmlns="http://www.w3.org/2000/svg">
<g clip-path="url(#clip0)">
<path d="M7.08897 60C6.55526 60 6.03182 59.9755 5.51943 59.9274C4.75835 59.8547 4.1149 59.3313 3.8891 58.601C3.66331 57.8699 3.89858 57.0749 4.48597 56.5854C6.87265 54.5966 8.81957 51.5041 9.82856 48.1543C6.93818 45.7297 4.62413 42.8977 2.94091 39.72C0.989251 36.0354 0 32.0942 0 28.0061C0 24.1889 0.866088 20.4884 2.57537 17.0075C4.21517 13.6679 6.55605 10.6733 9.53328 8.10743C15.6006 2.87932 23.6496 0 32.1984 0C40.7464 0 48.7954 2.87932 54.8627 8.10743C57.8408 10.6733 60.1816 13.6679 61.8214 17.0075C63.5299 20.4884 64.3968 24.1889 64.3968 28.0061C64.3968 31.8234 63.5307 35.5238 61.8214 39.0047C60.1816 42.3451 57.8408 45.3389 54.8627 47.9048C48.7954 53.1329 40.7464 56.0122 32.1984 56.0122C29.5741 56.0122 27.5103 55.5282 27.4235 55.5077C26.4058 55.2653 25.7766 54.2437 26.0189 53.2253C26.2613 52.2068 27.2829 51.5784 28.3014 51.8207C28.3156 51.8239 30.0399 52.2226 32.1984 52.2226C47.863 52.2226 60.6072 41.359 60.6072 28.0061C60.6072 14.6532 47.8622 3.78962 32.1984 3.78962C16.5346 3.78962 3.78963 14.6532 3.78963 28.0061C3.78963 31.4697 4.63045 34.814 6.28999 37.946C7.9069 40.9982 10.2099 43.692 13.135 45.9523C13.7216 46.4055 13.99 47.1595 13.8219 47.8819C13.1421 50.796 11.89 53.5561 10.2257 55.8906C10.9923 55.739 11.7723 55.5338 12.5555 55.2772C15.2682 54.3874 17.8744 52.9379 20.3013 50.9689C21.1138 50.3096 22.3075 50.4344 22.9667 51.2468C23.626 52.0592 23.5012 53.2529 22.6888 53.9121C19.9019 56.1725 16.8899 57.8439 13.7366 58.8781C11.4739 59.6195 9.20564 60 7.08897 60Z" fill="#FFFFFF"/>
</g>
<defs>
<clipPath id="clip0">
<rect width="64.396" height="60" fill="white"/>
</clipPath>
</defs>
</svg>
