<svg width="47" height="60" viewBox="0 0 47 60" fill="none" xmlns="http://www.w3.org/2000/svg">
<g clip-path="url(#clip0)">
<path d="M46.117 29.7827C45.7923 29.4784 45.3544 29.325 44.9105 29.3599L43.7376 29.4527C41.5545 29.6259 39.3674 29.1952 37.4128 28.2074C35.8632 27.4244 34.5086 26.3154 33.4384 24.9627C33.8606 24.3608 34.2412 23.743 34.5751 23.1154C34.9847 22.3442 34.6917 21.3874 33.9211 20.9777C33.1506 20.5681 32.1931 20.8612 31.7835 21.6317C31.6656 21.8536 31.5391 22.0756 31.4054 22.2962C29.927 20.6814 28.108 19.3445 26.0606 18.3791C25.4863 18.1084 24.893 17.866 24.2838 17.6527C26.6283 15.8515 28.1423 13.0217 28.1423 9.84348C28.1423 4.41564 23.7266 0 18.2995 0C12.8723 0 8.45598 4.41564 8.45598 9.84348C8.45598 12.9157 9.87056 15.6625 12.0827 17.4689C11.7073 17.5881 11.3365 17.7192 10.9704 17.8614C8.62984 18.7689 6.58567 20.092 4.89383 21.795C1.65899 25.0509 -0.0328519 29.4448 0.000734646 34.4999C0.00666168 35.3725 0.719223 36.0739 1.59181 36.0699C2.4644 36.064 3.16775 35.3521 3.16182 34.4789C3.13416 30.2838 4.50857 26.6683 7.13688 24.0223C9.83236 21.3083 13.6461 19.7778 17.9089 19.6903C20.3252 19.741 22.6697 20.2731 24.7125 21.2372C26.6006 22.1282 28.193 23.3466 29.4587 24.8665C28.405 26.0118 27.1834 27.0378 25.9005 27.8327C23.7477 29.1669 21.5857 29.6668 18.8902 29.4527L17.7173 29.3599C17.2734 29.325 16.8355 29.4784 16.5108 29.7827C16.1861 30.0869 16.005 30.5143 16.0116 30.9595L16.171 41.5248C16.2283 45.324 17.4071 48.9803 19.579 52.0979C21.7516 55.2156 24.7731 57.5877 28.3175 58.9568L30.7416 59.894C30.9234 59.9644 31.1223 60 31.3172 60C31.5121 60 31.7051 59.9638 31.8869 59.894L34.311 58.9568C37.8554 57.587 40.8768 55.2156 43.0494 52.0979C45.222 48.9803 46.4002 45.324 46.4575 41.5248L46.6168 30.9595C46.6234 30.5143 46.4417 30.0869 46.117 29.7827ZM18.2995 3.16108C21.9841 3.16108 24.9819 6.15884 24.9819 9.84348C24.9819 13.5275 21.9854 16.5246 18.3014 16.5259H18.2995H18.2922C14.6109 16.5219 11.6177 13.5261 11.6177 9.84414C11.6171 6.15884 14.6148 3.16108 18.2995 3.16108ZM43.2964 41.4774C43.2483 44.6444 42.2664 47.6922 40.4554 50.2909C38.6443 52.8895 36.126 54.8665 33.171 56.0085L31.3132 56.7263L29.4554 56.0085C26.5012 54.8665 23.9822 52.8895 22.1711 50.2909C20.3601 47.6922 19.3782 44.6444 19.3301 41.4774L19.1971 32.6402C22.3193 32.7936 24.9911 32.1146 27.5647 30.5196C28.9405 29.6668 30.2365 28.615 31.3837 27.4369C32.6646 28.9167 34.2261 30.139 35.9864 31.0287C38.1023 32.0982 40.4336 32.6514 42.7932 32.6514C43.0046 32.6514 43.2174 32.6467 43.4294 32.6382L43.2964 41.4774Z" fill="#B86AAB"/>
</g>
<defs>
<clipPath id="clip0">
<rect width="46.6168" height="60" fill="white"/>
</clipPath>
</defs>
</svg>
