<svg width="50" height="60" viewBox="0 0 50 60" fill="none" xmlns="http://www.w3.org/2000/svg">
<g clip-path="url(#clip0)">
<path d="M48.9176 10.9358C48.5508 10.592 48.056 10.4179 47.5546 10.4581L45.5926 10.6136C41.7831 10.9157 37.967 10.1642 34.5571 8.44105C31.1465 6.71713 28.279 4.08996 26.2634 0.843762C25.9353 0.316989 25.3587 -0.00368813 24.7389 3.2019e-05H24.7292C24.1139 0.00226411 23.5433 0.321453 23.2189 0.843762C21.2033 4.08996 18.3351 6.71713 14.9252 8.44105C11.5153 10.165 7.69916 10.9164 3.88974 10.6136L1.92773 10.4581C1.42626 10.4179 0.931476 10.592 0.56467 10.9358C0.19712 11.2795 -0.00748837 11.7624 -4.80775e-05 12.2654L0.266314 29.9398C0.353366 35.6852 2.03413 41.2803 5.12706 46.121C8.2051 50.9378 12.5473 54.8001 17.684 57.2903C18.5717 57.7204 19.6393 57.3499 20.0701 56.463C20.5002 55.5753 20.1297 54.5077 19.2428 54.0769C14.7005 51.8745 10.8605 48.458 8.1374 44.1976C5.4016 39.9165 3.91503 34.9672 3.8384 29.8855L3.60105 14.1738L3.607 14.1745C4.25059 14.2259 4.89417 14.2512 5.53702 14.2512C9.34942 14.2512 13.1172 13.3569 16.536 11.6292C19.7428 10.008 22.5403 7.7052 24.7411 4.89352C26.9412 7.70595 29.7395 10.0087 32.9463 11.6292C36.9417 13.6485 41.4126 14.5294 45.8753 14.1753L45.8812 14.1745L45.6439 29.8862C45.5613 35.3556 43.8649 40.6196 40.7378 45.1076C37.6106 49.5956 33.2603 53.0107 28.1577 54.9823L26.5015 55.6222L26.4725 51.8842V47.3746C28.1912 47.08 29.7797 46.4134 31.0736 45.4253C33.0088 43.9484 34.0742 41.9403 34.0742 39.7707C34.0742 37.6011 33.0088 35.5929 31.0736 34.116C29.4137 32.8489 27.2701 32.1094 24.9874 32.0075C24.8156 31.9524 24.6318 31.9226 24.4413 31.9226C21.1557 31.9226 18.3797 29.9971 18.3797 27.7189C18.3797 25.4399 21.1557 23.5151 24.4413 23.5151C27.7269 23.5151 30.5029 25.4406 30.5029 27.7189C30.5029 28.7047 31.3027 29.5045 32.2886 29.5045C33.2744 29.5045 34.0742 28.7047 34.0742 27.7189C34.0742 25.5493 33.0088 23.5411 31.0736 22.0642C29.7797 21.0762 28.1912 20.4095 26.4725 20.1149V16.0889C26.4725 15.1031 25.6727 14.3033 24.6868 14.3033C23.701 14.3033 22.9012 15.1031 22.9012 16.0889V20.042C20.9942 20.2868 19.2257 20.9832 17.8098 22.0642C15.8746 23.5411 14.8091 25.5493 14.8091 27.7189C14.8091 29.8885 15.8746 31.8966 17.8098 33.3735C19.4697 34.6406 21.6133 35.3801 23.8959 35.4821C24.0678 35.5371 24.2516 35.5669 24.4421 35.5669C27.7277 35.5669 30.5037 37.4924 30.5037 39.7707C30.5037 42.0489 27.7277 43.9744 24.4421 43.9744C21.1564 43.9744 18.3804 42.0489 18.3804 39.7707C18.3804 38.7848 17.5806 37.985 16.5948 37.985C15.6089 37.985 14.8091 38.7848 14.8091 39.7707C14.8091 41.9403 15.8746 43.9484 17.8098 45.4253C19.2264 46.5064 20.995 47.2028 22.9012 47.4476V51.8909C22.9012 51.8954 22.9012 51.8998 22.9012 51.905L22.9503 58.2293C22.9577 59.2099 23.7553 60.0008 24.7359 60.0008H24.7456C24.9658 60.0008 25.1838 59.9599 25.3892 59.881L29.4449 58.3141C35.2141 56.085 40.1321 52.2242 43.6678 47.15C47.2034 42.0757 49.1215 36.1249 49.2145 29.9405L49.4816 12.2661C49.489 11.7624 49.2837 11.2795 48.9176 10.9358Z" fill="#FFFFFF"/>
</g>
<defs>
<clipPath id="clip0">
<rect width="49.4817" height="60" fill="white"/>
</clipPath>
</defs>
</svg>
