<svg width="68" height="60" viewBox="0 0 68 60" fill="none" xmlns="http://www.w3.org/2000/svg">
<g clip-path="url(#clip0)">
<path d="M66.0789 13.6019L36.6546 0.638065C34.7003 -0.227403 32.4641 -0.212566 30.5197 0.679278L2.34832 13.5921C0.931423 14.2416 0.032161 15.6477 0.000839276 17.2625C-0.0304824 18.8821 0.816852 20.3279 2.21314 21.0351L11.4341 25.7037C9.94713 27.5385 9.08166 29.9156 9.08166 32.4485V40.6458C7.61778 41.4041 6.327 42.5242 5.33459 43.9189L1.58506 49.19C0.387415 50.8739 0.00331203 53.0071 0.530835 55.043C1.03446 56.9866 2.31864 58.5766 4.0537 59.4042C4.88785 59.8023 5.78134 59.9993 6.67154 59.9993C7.80241 59.9993 8.93 59.6803 9.92734 59.0514C11.8751 57.8224 13.0381 55.6546 13.0381 53.2527V43.5183C14.1146 43.4128 15.224 43.609 16.2634 44.1348L24.2504 48.1786C26.8922 49.5164 29.8323 50.2137 32.751 50.1972C35.6705 50.1799 38.6024 49.448 41.2301 48.0805L54.1148 41.3744C56.0551 40.3647 57.261 38.3164 57.261 36.0299V23.0075C57.261 22.6506 57.1662 22.3168 57.0014 22.0275C56.9676 21.9236 56.9255 21.8214 56.8736 21.7217C56.3692 20.7524 55.174 20.3757 54.2055 20.8801L35.1669 30.7901C33.623 31.5938 31.8476 31.6045 30.2955 30.819L19.3783 25.2907L34.4176 18.3975C35.4108 17.9425 35.8469 16.7679 35.3919 15.7747C34.9369 14.7815 33.7623 14.3454 32.7691 14.8004L14.9174 22.9828C14.9009 22.9902 14.8844 22.9993 14.8679 23.0067L3.99518 17.5023C3.94243 17.4504 3.94325 17.2443 3.99683 17.1891L32.1682 4.27633C33.0963 3.85101 34.1209 3.84359 35.0564 4.25819L64.4831 17.2229C65.483 17.6631 66.6509 17.2097 67.0911 16.2099C67.5312 15.2101 67.0787 14.0421 66.0789 13.6019ZM9.08166 53.2527C9.08166 54.2888 8.60854 55.2054 7.8156 55.7057C7.44139 55.9415 6.67648 56.2728 5.75661 55.8335C5.07907 55.5104 4.56969 54.86 4.3595 54.0506C4.12541 53.1489 4.28944 52.2133 4.8079 51.4839L8.55743 46.2128C8.72146 45.982 8.8962 45.7652 9.08001 45.5624V53.2527H9.08166ZM32.704 35.3623C34.1687 35.3623 35.6326 35.0079 36.9934 34.2998L53.3046 25.81V36.0299C53.3046 36.8237 52.9057 37.5441 52.2883 37.8647L39.4035 44.5709C35.1669 46.7757 30.2955 46.8046 26.0374 44.6492L18.0504 40.6054C16.4835 39.8124 14.755 39.4555 13.0381 39.5544V32.4477C13.0381 30.5165 13.8129 28.7419 15.0987 27.5591L28.5077 34.3476C29.8438 35.0243 31.2739 35.3623 32.704 35.3623Z" fill="#B86AAB"/>
</g>
<defs>
<clipPath id="clip0">
<rect width="67.26" height="60" fill="white"/>
</clipPath>
</defs>
</svg>
