<svg width="65" height="60" viewBox="0 0 65 60" fill="none" xmlns="http://www.w3.org/2000/svg">
<g clip-path="url(#clip0)">
<path d="M62.4437 8.2043H52.9297V4.05222C52.9297 1.8175 51.1114 0 48.8775 0H48.5756C46.3416 0 44.5234 1.8175 44.5234 4.05222V8.2043H23.2103C22.2358 8.2043 21.4454 8.99462 21.4454 9.96916C21.4454 10.9437 22.2358 11.734 23.2103 11.734H44.5241V15.7313C44.5241 17.9652 46.3416 19.7835 48.5764 19.7835H48.8783C51.1122 19.7835 52.9297 17.966 52.9297 15.7313V11.734H60.6789V56.471H3.52973V11.734H13.043C13.7133 11.734 14.2962 11.3602 14.595 10.8106C14.7312 10.5605 14.8078 10.2741 14.8078 9.96916V4.05222C14.8078 3.76427 15.0424 3.52973 15.3303 3.52973H15.6322C15.9202 3.52973 16.1547 3.76427 16.1547 4.05222V15.7313C16.1547 16.0192 15.9202 16.2538 15.6322 16.2538H15.3303C15.0424 16.2538 14.8078 16.0192 14.8078 15.7313V15.1484C14.8078 14.1739 14.0175 13.3836 13.043 13.3836C12.0684 13.3836 11.2781 14.1739 11.2781 15.1484V15.7313C11.2781 17.9652 13.0956 19.7835 15.3303 19.7835H15.6322C17.8662 19.7835 19.6844 17.966 19.6844 15.7313V4.05222C19.6844 1.8175 17.8669 0 15.6322 0H15.3303C13.0964 0 11.2781 1.8175 11.2781 4.05222V8.2043H1.76487C0.790319 8.2043 0 8.99462 0 9.96916V58.2359C0 59.2104 0.790319 60.0008 1.76487 60.0008H62.4437C63.4183 60.0008 64.2086 59.2104 64.2086 58.2359V9.96916C64.2086 8.99384 63.4183 8.2043 62.4437 8.2043ZM48.8775 16.253H48.5756C48.2876 16.253 48.0531 16.0185 48.0531 15.7305V9.98078C48.0531 9.97691 48.0531 9.97303 48.0531 9.96916C48.0531 9.96529 48.0531 9.96142 48.0531 9.95755V4.05222C48.0531 3.76427 48.2876 3.52973 48.5756 3.52973H48.8775C49.1654 3.52973 49.4 3.76427 49.4 4.05222V9.96297C49.4 9.9653 49.4 9.96684 49.4 9.96916C49.4 9.97149 49.4 9.97303 49.4 9.97536V15.7313C49.4 16.0192 49.1654 16.253 48.8775 16.253Z" fill="#B86AAB"/>
<path d="M48.3829 30.3215C48.1755 29.6829 47.6228 29.2169 46.9579 29.1202L37.6459 27.7671L33.4814 19.3291C33.1842 18.7268 32.5704 18.3452 31.8992 18.3452C31.2274 18.3452 30.6143 18.7268 30.3163 19.3291L26.1518 27.7671L16.8398 29.1202C16.1749 29.2169 15.623 29.6822 15.4148 30.3215C15.2073 30.9601 15.38 31.6614 15.8614 32.1305L22.5997 38.6992L21.009 47.9741C20.8952 48.6359 21.1676 49.3054 21.711 49.7002C22.2544 50.095 22.9751 50.1468 23.5696 49.8349L31.8985 45.456L40.2274 49.8349C40.4859 49.9704 40.7677 50.0377 41.0487 50.0377C41.4148 50.0377 41.7786 49.9239 42.0859 49.701C42.6293 49.3062 42.9018 48.6367 42.788 47.9748L41.1973 38.7L47.9355 32.1313C48.4178 31.6622 48.5911 30.9609 48.3829 30.3215ZM38.0701 36.8198C37.6544 37.2254 37.464 37.8098 37.5623 38.3819L38.7056 45.0465L32.7205 41.9C32.4635 41.7645 32.181 41.6972 31.8992 41.6972C31.6175 41.6972 31.335 41.7645 31.078 41.9L25.0929 45.0465L26.2362 38.3819C26.3345 37.809 26.1449 37.2254 25.7284 36.8198L20.8859 32.0996L27.5776 31.1273C28.1528 31.0437 28.6497 30.683 28.9067 30.1621L31.8992 24.0981L34.8918 30.1621C35.1488 30.683 35.6457 31.0437 36.2208 31.1273L42.9126 32.0996L38.0701 36.8198Z" fill="#B86AAB"/>
</g>
<defs>
<clipPath id="clip0">
<rect width="64.2086" height="60" fill="white"/>
</clipPath>
</defs>
</svg>
