<svg width="65" height="60" viewBox="0 0 65 60" fill="none" xmlns="http://www.w3.org/2000/svg">
<g clip-path="url(#clip0)">
<path d="M61.4551 39.7192C63.4067 36.0354 64.396 32.0942 64.396 28.0061C64.396 24.1889 63.5299 20.4885 61.8206 17.0075C60.1808 13.6671 57.8399 10.6733 54.8627 8.10743C48.7953 2.87933 40.7463 0 32.1984 0C23.6504 0 15.6006 2.87933 9.53327 8.10743C6.55526 10.6733 4.21438 13.6679 2.57536 17.0075C0.866087 20.4885 0 24.1889 0 28.0061C0 31.8234 0.866087 35.5238 2.57536 39.0047C4.21517 42.3443 6.55605 45.3389 9.53327 47.9048C15.6006 53.1329 23.6496 56.0123 32.1976 56.0123C34.8219 56.0123 36.8857 55.5283 36.9725 55.5078C37.9902 55.2654 38.6194 54.2438 38.377 53.2253C38.1347 52.2068 37.113 51.5784 36.0946 51.8208C36.078 51.8247 34.3474 52.2226 32.1976 52.2226C16.5338 52.2219 3.78962 41.359 3.78962 28.0061C3.78962 14.6532 16.5338 3.78963 32.1984 3.78963C47.8629 3.78963 60.6071 14.6532 60.6071 28.0061C60.6071 31.4697 59.7663 34.814 58.1068 37.946C56.4899 40.9982 54.1869 43.692 51.2618 45.9524C50.6752 46.4056 50.4067 47.1595 50.5749 47.8819C51.2547 50.796 52.5068 53.5561 54.1711 55.8907C53.4045 55.7391 52.6244 55.5338 51.8413 55.2764C49.1285 54.3867 46.5224 52.9371 44.0954 50.9681C43.283 50.3089 42.0893 50.4336 41.4301 51.246C40.7708 52.0584 40.8956 53.2522 41.708 53.9114C44.4949 56.1717 47.5069 57.8431 50.6602 58.8774C52.9229 59.6195 55.1911 60.0008 57.3078 60.0008C57.8415 60.0008 58.3649 59.9764 58.8773 59.9282C59.6384 59.8556 60.2819 59.3321 60.5077 58.6018C60.7335 57.8708 60.4982 57.0765 59.9108 56.5862C57.5241 54.5975 55.5772 51.505 54.5682 48.1551C57.4586 45.7297 59.7718 42.897 61.4551 39.7192Z" fill="#B86AAB"/>
<path d="M32.2631 19.7338C34.9419 19.7338 37.2054 21.256 37.2054 23.0576C37.2054 24.1037 38.0541 24.9525 39.1002 24.9525C40.1463 24.9525 40.995 24.1037 40.995 23.0576C40.995 21.0878 39.9932 19.1938 38.2476 17.8611C37.1478 17.0219 35.8151 16.4392 34.3719 16.1511V12.9244C34.3719 11.8783 33.5232 11.0295 32.4771 11.0295C31.431 11.0295 30.5823 11.8783 30.5823 12.9244V16.0745C28.9748 16.3271 27.4866 16.939 26.2795 17.8611C24.5331 19.1938 23.532 21.0878 23.532 23.0576C23.532 25.0275 24.5339 26.9215 26.2795 28.2542C27.77 29.3918 29.6878 30.059 31.7294 30.1585C31.8992 30.2082 32.0784 30.235 32.2639 30.235C34.9427 30.235 37.2062 31.7572 37.2062 33.5588C37.2062 35.3605 34.9427 36.8827 32.2639 36.8827C29.5851 36.8827 27.3216 35.3605 27.3216 33.5588C27.3216 32.5128 26.4729 31.664 25.4268 31.664C24.3807 31.664 23.532 32.5128 23.532 33.5588C23.532 35.5287 24.5339 37.4227 26.2795 38.7554C27.4866 39.6767 28.9756 40.2894 30.5823 40.542V44.1193C30.5823 45.1654 31.431 46.0141 32.4771 46.0141C33.5232 46.0141 34.3719 45.1654 34.3719 44.1193V40.4654C35.8151 40.1773 37.1478 39.5946 38.2476 38.7554C39.9939 37.4227 40.995 35.5287 40.995 33.5588C40.995 31.589 39.9932 29.695 38.2476 28.3623C36.757 27.2247 34.8393 26.5575 32.7976 26.458C32.6279 26.4083 32.4486 26.3815 32.2631 26.3815C29.5843 26.3815 27.3208 24.8593 27.3208 23.0576C27.32 21.256 29.5835 19.7338 32.2631 19.7338Z" fill="#B86AAB"/>
</g>
<defs>
<clipPath id="clip0">
<rect width="64.396" height="60" fill="white"/>
</clipPath>
</defs>
</svg>
