<svg width="71" height="85" viewBox="0 0 71 85" fill="none" xmlns="http://www.w3.org/2000/svg">
<g clip-path="url(#clip0)">
<path d="M37.2305 20.464C37.3034 19.1918 37.4855 18.1922 37.5948 17.8106C39.9081 9.52319 46.4106 8.8871 49.0882 8.97797C54.3339 9.17789 60.3083 12.6491 61.5469 18.9192C63.1133 26.8249 60.8365 36.0755 54.6254 47.2343C51.0917 53.5771 46.6656 59.8471 41.9481 65.9354C44.571 67.2985 47.3031 68.6434 50.181 69.9337C54.7164 63.9908 58.9968 57.848 62.4758 51.5779C69.7616 38.4926 72.3298 27.2429 70.3444 17.1745C69.3609 12.213 66.6651 7.92388 62.5486 4.76159C58.8147 1.89009 54.1518 0.199907 49.416 0.0181665C44.8806 -0.1454 40.6002 1.05409 37.0666 3.48941C33.8062 5.74299 31.3108 9.01432 29.7444 12.9944C31.7662 14.1576 35.0812 16.5565 37.2305 20.464Z" fill="#B86AAB"/>
<path d="M36.2469 73.0597C35.1904 74.3319 34.134 75.6041 33.0958 76.8762C31.5111 78.7845 31.7661 81.6015 33.6604 83.1826C34.4983 83.8914 35.5183 84.2186 36.5383 84.2186C37.8315 84.2186 39.1065 83.6733 39.9808 82.6011C41.4744 80.82 42.968 79.0026 44.4434 77.1852C41.5837 75.8403 38.8698 74.4591 36.2469 73.0597Z" fill="#B86AAB"/>
<path d="M64.7343 85C64.2425 85 63.7507 84.9273 63.2589 84.7456C45.7184 78.6391 31.2925 71.315 20.4185 62.9912C11.1838 55.9215 4.66298 48.1794 1.58474 40.619C-0.218497 36.2027 -0.509928 31.3684 0.74687 26.6795C1.89438 22.3904 4.31691 18.4103 7.5773 15.4661C10.4552 12.8854 13.8613 11.1952 17.4131 10.5955C21.3474 9.94122 25.391 10.6318 29.0886 12.5946C31.4383 13.8486 37.0483 17.4653 38.724 24.2442C39.3251 26.6432 37.8497 29.0785 35.4454 29.6601C33.0411 30.2598 30.6004 28.7877 30.0175 26.3887C29.1797 23.0265 25.8646 21.0274 24.8628 20.5003C19.4896 17.647 15.1727 20.6821 13.5699 22.1178C11.5845 23.8989 10.1091 26.3342 9.39874 28.9694C8.65195 31.7682 8.81588 34.6216 9.87232 37.2386C11.6027 41.4732 15.7738 48.1612 25.8464 55.867C35.9554 63.6092 49.5252 70.479 66.1732 76.2765C68.5047 77.0943 69.7433 79.6387 68.9236 81.9831C68.3408 83.8369 66.5922 85 64.7343 85Z" fill="#D72C32"/>
</g>
<defs>
<clipPath id="clip0">
<rect width="71" height="85" fill="white"/>
</clipPath>
</defs>
</svg>
