<svg width="58" height="60" viewBox="0 0 58 60" fill="none" xmlns="http://www.w3.org/2000/svg">
<g clip-path="url(#clip0)">
<path d="M56.5374 18.7204L29.6239 0.30231C29.0343 -0.101096 28.2571 -0.101096 27.6675 0.30231L0.754057 18.7204C-0.0354348 19.2609 -0.237499 20.3384 0.303022 21.1279C0.843542 21.9174 1.92098 22.1194 2.71047 21.5789L28.6453 3.83049L53.816 21.0557L53.8355 56.5359H34.0008L30.0071 52.6621C29.9609 52.6 29.9111 52.5394 29.8548 52.4824L12.284 34.6142C10.9395 33.098 10.1991 31.1473 10.1991 29.1188C10.1991 24.5485 13.9171 20.8305 18.4873 20.8305C20.4849 20.8305 22.4312 21.4454 23.9669 22.5611C25.5069 23.6804 26.5222 25.193 26.9033 26.9358C27.0765 27.7296 27.7786 28.2961 28.5912 28.2975C28.5927 28.2975 28.5941 28.2975 28.5956 28.2975C29.406 28.2975 30.1089 27.7353 30.2857 26.9437C31.0788 23.4011 34.6596 20.8298 38.8012 20.8298C43.3715 20.8298 47.0894 24.5478 47.0894 29.118C47.0894 31.1531 46.3454 33.1074 44.9937 34.6264L32.3316 47.4676C31.6597 48.1488 31.6676 49.245 32.3489 49.9169C33.0301 50.5888 34.1263 50.5808 34.7982 49.8996L47.4921 37.0281C47.5109 37.0086 47.5296 36.9891 47.547 36.9697C49.4868 34.8105 50.5556 32.022 50.5556 29.118C50.5556 22.6376 45.2831 17.3659 38.8034 17.3659C36.0849 17.3659 33.4047 18.216 31.257 19.7596C30.2164 20.5072 29.3259 21.4014 28.6136 22.3994C27.9114 21.3992 27.0324 20.5051 26.0055 19.7589C23.8824 18.216 21.213 17.3666 18.4895 17.3666C12.009 17.3666 6.73731 22.639 6.73731 29.1188C6.73731 32.014 7.80031 34.7968 9.73074 36.9538C9.74878 36.974 9.76754 36.9935 9.78631 37.013L27.2093 54.7318C27.2699 54.8169 27.3377 54.8985 27.4156 54.9743L32.0941 59.512C32.4174 59.8252 32.8497 60.0006 33.3 60.0006H55.5494C56.4984 60.0006 57.2706 59.2371 57.2814 58.2888L57.2922 20.1709C57.2973 19.5915 57.0151 19.0473 56.5374 18.7204Z" fill="#B86AAB"/>
</g>
<defs>
<clipPath id="clip0">
<rect width="57.2909" height="60" fill="white"/>
</clipPath>
</defs>
</svg>
