<svg width="58" height="60" viewBox="0 0 58 60" fill="none" xmlns="http://www.w3.org/2000/svg">
<g clip-path="url(#clip0)">
<path d="M48.7246 10.8508C43.7572 5.98345 37.3154 3.13114 30.4277 2.714V1.76568C30.4277 0.790877 29.6369 0 28.6621 0C27.6873 0 26.8964 0.790877 26.8964 1.76568V2.714C20.0088 3.13114 13.567 5.98271 8.59953 10.8508C3.21789 16.1243 0.163996 23.1723 0.000670144 30.6971C-0.0177224 31.5395 0.561273 32.2766 1.38379 32.4591C2.2063 32.6415 3.04279 32.2178 3.38195 31.4468C4.73416 28.3752 7.77555 26.3903 11.1303 26.3903C12.6165 26.3903 14.0768 26.7802 15.354 27.5181C16.5959 28.2354 17.6435 29.2639 18.3836 30.4926C18.7029 31.023 19.2767 31.3467 19.8962 31.3467C20.5157 31.3467 21.0895 31.0223 21.4088 30.4926C22.1489 29.2639 23.1966 28.2354 24.4384 27.5181C25.2035 27.076 26.0341 26.7603 26.8964 26.5772V52.3862C26.8964 54.6382 25.0645 56.4701 22.8125 56.4701C20.5605 56.4701 18.7286 54.6382 18.7286 52.3862C18.7286 51.4114 17.9378 50.6206 16.963 50.6206C15.9882 50.6206 15.1973 51.4114 15.1973 52.3862C15.1973 56.5849 18.6131 60.0015 22.8125 60.0015C27.0112 60.0015 30.4277 56.5856 30.4277 52.3862V24.6239C30.4277 23.6491 29.6369 22.8582 28.6621 22.8582C26.5572 22.8582 24.4855 23.4122 22.672 24.4598C21.6413 25.055 20.7055 25.8017 19.8962 26.6684C19.0869 25.8017 18.1511 25.055 17.1204 24.4598C15.3069 23.4122 13.2352 22.8582 11.1303 22.8582C8.65176 22.8582 6.29458 23.6226 4.33321 24.9711C5.46766 20.604 7.7704 16.6077 11.0715 13.3728C15.7976 8.74232 22.0444 6.19239 28.6621 6.19165C28.6621 6.19165 28.6621 6.19165 28.6628 6.19165C28.6635 6.19165 28.6628 6.19165 28.6635 6.19165C35.2812 6.19165 41.528 8.74232 46.2541 13.3728C49.5552 16.6077 51.8572 20.6033 52.9924 24.9704C51.0318 23.6219 48.6738 22.8575 46.1953 22.8575C44.0904 22.8575 42.0187 23.4114 40.2052 24.4591C39.1745 25.0543 38.2379 25.801 37.4287 26.6676C36.7261 25.9158 35.9278 25.2529 35.059 24.7033C34.2343 24.1825 33.144 24.4289 32.6231 25.2536C32.1022 26.0784 32.3487 27.1687 33.1734 27.6895C34.288 28.3936 35.237 29.3625 35.9168 30.4911C36.2361 31.0215 36.8099 31.3452 37.4294 31.3452C38.0489 31.3452 38.622 31.0208 38.942 30.4911C39.6821 29.2625 40.7298 28.234 41.9716 27.5166C43.2481 26.7795 44.7084 26.3896 46.1945 26.3896C49.5493 26.3896 52.5907 28.3745 53.9429 31.4468C54.2298 32.0978 54.8706 32.501 55.5585 32.501C55.6851 32.501 55.8138 32.487 55.9411 32.4591C56.7636 32.2766 57.3426 31.5387 57.3242 30.6971C57.1601 23.1723 54.1062 16.1243 48.7246 10.8508Z" fill="#B86AAB"/>
</g>
<defs>
<clipPath id="clip0">
<rect width="57.3243" height="60" fill="white"/>
</clipPath>
</defs>
</svg>
