<svg width="60" height="60" viewBox="0 0 60 60" fill="none" xmlns="http://www.w3.org/2000/svg">
<g clip-path="url(#clip0)">
<path d="M57.9783 0H12.5416C11.5491 0 10.7438 0.805243 10.7438 1.79775V12.5416V52.8307C10.7438 53.0771 10.7191 53.3176 10.6712 53.5498C10.3371 55.1768 8.89438 56.4045 7.16929 56.4045C5.1985 56.4045 3.59551 54.8007 3.59551 52.8307V14.3393H7.26817C8.26067 14.3393 9.06592 13.5341 9.06592 12.5416C9.06592 11.5491 8.26067 10.7438 7.26817 10.7438H1.79775C0.805243 10.7438 0 11.5491 0 12.5416V52.8307C0 56.7835 3.21648 60 7.16929 60C7.18202 60 7.19401 59.9992 7.20674 59.9992C10.6494 59.9813 13.5258 57.5251 14.1925 54.2734C14.2067 54.203 14.2202 54.1326 14.2322 54.0622C14.3019 53.6622 14.3386 53.2502 14.3386 52.8307V12.5416V3.59551H56.1798V52.8307C56.1798 54.8015 54.5768 56.4045 52.606 56.4045H16.7895C15.797 56.4045 14.9918 57.2097 14.9918 58.2022C14.9918 59.1948 15.797 60 16.7895 60H52.6067C56.5603 60 59.776 56.7835 59.776 52.8307V1.79775C59.776 0.805243 58.9715 0 57.9783 0Z" fill="#FFFFFF"/>
<path d="M21.3542 31.9475H34.4987C35.4913 31.9475 36.2965 31.1423 36.2965 30.1498V10.4711C36.2965 9.47858 35.4913 8.67334 34.4987 8.67334H21.3542C20.3616 8.67334 19.5564 9.47858 19.5564 10.4711V30.1498C19.5564 31.143 20.3609 31.9475 21.3542 31.9475ZM23.1519 12.2688H32.701V28.352H23.1519V12.2688Z" fill="#FFFFFF"/>
<path d="M41.5124 22.0875H49.4165C50.409 22.0875 51.2142 21.2822 51.2142 20.2897C51.2142 19.2972 50.409 18.4919 49.4165 18.4919H41.5124C40.5198 18.4919 39.7146 19.2972 39.7146 20.2897C39.7146 21.2822 40.5198 22.0875 41.5124 22.0875Z" fill="#FFFFFF"/>
<path d="M21.2987 41.7252H49.4171C50.4096 41.7252 51.2149 40.9199 51.2149 39.9274C51.2149 38.9349 50.4096 38.1296 49.4171 38.1296H21.2987C20.3062 38.1296 19.501 38.9349 19.501 39.9274C19.501 40.9199 20.3055 41.7252 21.2987 41.7252Z" fill="#FFFFFF"/>
<path d="M21.2987 50.9349H49.4171C50.4096 50.9349 51.2149 50.1296 51.2149 49.1371C51.2149 48.1446 50.4096 47.3394 49.4171 47.3394H21.2987C20.3062 47.3394 19.501 48.1446 19.501 49.1371C19.501 50.1296 20.3055 50.9349 21.2987 50.9349Z" fill="#FFFFFF"/>
<path d="M41.5124 31.9065H49.4165C50.409 31.9065 51.2142 31.1013 51.2142 30.1088C51.2142 29.1163 50.409 28.311 49.4165 28.311H41.5124C40.5198 28.311 39.7146 29.1163 39.7146 30.1088C39.7146 31.1013 40.5198 31.9065 41.5124 31.9065Z" fill="#FFFFFF"/>
<path d="M41.5124 12.2689H49.4165C50.409 12.2689 51.2142 11.4636 51.2142 10.4711C51.2142 9.47858 50.409 8.67334 49.4165 8.67334H41.5124C40.5198 8.67334 39.7146 9.47858 39.7146 10.4711C39.7146 11.4636 40.5198 12.2689 41.5124 12.2689Z" fill="#FFFFFF"/>
</g>
<defs>
<clipPath id="clip0">
<rect width="59.776" height="60" fill="white"/>
</clipPath>
</defs>
</svg>
