<svg width="72" height="60" viewBox="0 0 72 60" fill="none" xmlns="http://www.w3.org/2000/svg">
<g clip-path="url(#clip0)">
<path d="M66.6964 24.8481C64.7669 22.8525 62.303 21.2176 59.5708 20.121C59.1312 19.9443 58.6837 19.7834 58.2297 19.6345C60.6299 17.5879 62.1541 14.5435 62.1541 11.1495C62.1541 5.00179 57.1523 0 51.0046 0C44.8569 0 39.8551 5.00179 39.8551 11.1495C39.8551 14.5419 41.3785 17.5847 43.7762 19.6313C40.7494 20.6283 38.0068 22.2433 35.8041 24.3607C33.6014 22.2433 30.8588 20.6283 27.832 19.6313C30.2297 17.5847 31.7531 14.5419 31.7531 11.1495C31.7523 5.00179 26.7513 0 20.6028 0C14.4551 0 9.45331 5.00179 9.45331 11.1495C9.45331 14.5316 10.9672 17.5656 13.3522 19.6122C10.6645 20.4969 8.23572 21.8825 6.217 23.7173C2.14931 27.4115 0 32.5949 0 38.706C0 39.6345 0.00318535 40.4969 0.00875971 41.2678C0.0382242 45.1276 1.55923 48.7509 4.28987 51.472C7.55564 54.7259 13.3235 58.8437 22.252 59.9849C22.8238 60.0581 23.3988 59.8686 23.816 59.4696C24.2333 59.0707 24.4475 58.5053 24.399 57.9303C24.164 55.1129 25.0121 52.567 26.8501 50.569C29.0209 48.2094 32.4268 46.8007 35.9602 46.7999C35.961 46.7999 35.9626 46.7999 35.9634 46.7999C35.9642 46.7999 35.9658 46.7999 35.9666 46.7999C39.5007 46.8007 42.9058 48.2094 45.0774 50.569C46.9154 52.567 47.7635 55.1121 47.5286 57.9303C47.441 58.9823 48.223 59.906 49.2741 59.9936C49.3283 59.9984 49.3816 60 49.435 60C50.4185 60 51.2546 59.2451 51.3374 58.2473C51.6631 54.3357 50.471 50.7856 47.8901 47.9809C46.4479 46.4137 44.5821 45.1292 42.4941 44.266C42.3858 44.2214 42.2767 44.1784 42.1676 44.1362C43.6321 42.5984 44.532 40.5184 44.532 38.2321C44.532 33.5075 40.688 29.6635 35.9634 29.6635C31.2387 29.6635 27.3948 33.5075 27.3948 38.2321C27.3948 40.5184 28.2946 42.5984 29.7591 44.1362C29.65 44.1784 29.5409 44.2214 29.4326 44.266C27.3446 45.1292 25.4788 46.4137 24.0366 47.9809C21.9956 50.1987 20.8234 52.8823 20.5829 55.8415C13.9415 54.5164 9.564 51.3303 6.98706 48.7637C4.97312 46.7577 3.85268 44.0852 3.83038 41.2383C3.82481 40.477 3.82162 39.6249 3.82162 38.706C3.82162 33.701 5.53852 29.4963 8.78598 26.5459C11.8001 23.8081 15.9952 22.2998 20.598 22.299C20.5996 22.299 20.6012 22.299 20.602 22.299C20.6036 22.299 20.6044 22.299 20.606 22.299C26.0577 22.2998 31.1758 24.5638 34.307 28.3568C34.3587 28.4213 34.4145 28.4826 34.4758 28.5415C34.4766 28.5423 34.4766 28.5423 34.4774 28.5431C34.5005 28.5654 34.5244 28.5877 34.5491 28.6092C34.5539 28.6132 34.5586 28.6172 34.5634 28.6211C34.5722 28.6283 34.5809 28.6363 34.5897 28.6434C34.5961 28.649 34.6032 28.6538 34.6104 28.6586C34.6446 28.6856 34.6797 28.7127 34.7155 28.7374C34.7243 28.743 34.733 28.7494 34.741 28.7549C34.7752 28.778 34.8103 28.7995 34.8453 28.8202C34.8604 28.829 34.8748 28.8377 34.8899 28.8457C34.9265 28.8656 34.964 28.8847 35.0022 28.9022C35.0205 28.911 35.0388 28.9182 35.0571 28.9261C35.081 28.9365 35.1049 28.946 35.1288 28.9548C35.1495 28.9628 35.171 28.9707 35.1917 28.9779C35.2268 28.9898 35.2626 29.0002 35.2984 29.0105C35.3215 29.0169 35.3454 29.0225 35.3685 29.0281C35.39 29.0328 35.4115 29.0376 35.433 29.0416C35.4633 29.048 35.4935 29.0528 35.5246 29.0575C35.5541 29.0615 35.5835 29.0655 35.613 29.0687C35.6337 29.0711 35.6544 29.0727 35.6751 29.0735C35.7062 29.0758 35.738 29.0766 35.7691 29.0774C35.7802 29.0774 35.7906 29.079 35.8017 29.079C35.8519 29.079 35.9021 29.0766 35.9522 29.0727C35.9602 29.0719 35.9681 29.0711 35.9753 29.0711C36.0231 29.0671 36.0717 29.0607 36.1194 29.0528C36.1258 29.052 36.1314 29.0504 36.1378 29.0496C36.1792 29.0424 36.2214 29.0328 36.262 29.0233C36.2723 29.0209 36.2835 29.0185 36.2938 29.0153C36.3384 29.0034 36.383 28.9898 36.4276 28.9747C36.4364 28.9715 36.4459 28.9683 36.4547 28.9644C36.4961 28.9492 36.5375 28.9333 36.5773 28.915C36.5829 28.9126 36.5885 28.9102 36.5933 28.9078C36.6395 28.8871 36.6841 28.864 36.7286 28.8393C36.7342 28.8362 36.7398 28.833 36.7454 28.8298C36.8369 28.778 36.9245 28.7175 37.0082 28.6498C37.0106 28.6474 37.0137 28.6458 37.0161 28.6442C37.0193 28.6418 37.0225 28.6387 37.0257 28.6355C37.0416 28.6219 37.0575 28.6084 37.0727 28.5949C37.0846 28.5837 37.0966 28.5726 37.1085 28.5614C37.1196 28.5511 37.1308 28.5407 37.1411 28.5304C37.1595 28.5128 37.177 28.4945 37.1945 28.4762C37.1993 28.4706 37.2041 28.4659 37.2088 28.4603C37.2367 28.4292 37.2646 28.3982 37.2901 28.3663C40.4205 24.5686 45.5425 22.3014 50.9982 22.3006C50.9998 22.3006 51.0006 22.3006 51.0022 22.3006C51.0038 22.3006 51.0046 22.3006 51.0062 22.3006C53.4454 22.3014 55.9132 22.7744 58.1445 23.6695C60.3814 24.567 62.3874 25.8937 63.9458 27.5055C66.6247 30.2767 67.9705 33.8172 67.8375 37.7448C67.8017 38.7999 68.6275 39.6839 69.6827 39.7197C69.705 39.7205 69.7265 39.7205 69.7488 39.7205C70.7744 39.7205 71.6225 38.9066 71.6576 37.8738C71.8288 32.8863 70.1127 28.3822 66.6964 24.8481ZM31.218 38.2321C31.218 35.6154 33.3466 33.486 35.9642 33.486C38.5817 33.486 40.7103 35.6146 40.7103 38.2321C40.7103 40.8481 38.5825 42.9767 35.9666 42.9783C35.9658 42.9783 35.965 42.9783 35.9642 42.9783C35.9634 42.9783 35.9626 42.9783 35.9618 42.9783C33.3458 42.9767 31.218 40.8481 31.218 38.2321ZM13.2757 11.1495C13.2757 7.10969 16.563 3.82242 20.6028 3.82242C24.6426 3.82242 27.9299 7.10969 27.9299 11.1495C27.9299 15.1885 24.645 18.4742 20.6068 18.4766C20.6052 18.4766 20.6044 18.4766 20.6028 18.4766C20.6012 18.4766 20.5996 18.4766 20.5988 18.4766C16.5606 18.4742 13.2757 15.1885 13.2757 11.1495ZM43.6775 11.1495C43.6775 7.10969 46.9648 3.82242 51.0046 3.82242C55.0444 3.82242 58.3317 7.10969 58.3317 11.1495C58.3317 15.1885 55.0468 18.4742 51.0086 18.4766C51.007 18.4766 51.0062 18.4766 51.0046 18.4766C51.003 18.4766 51.0022 18.4766 51.0006 18.4766C46.9624 18.4742 43.6775 15.1885 43.6775 11.1495Z" fill="#FFFFFF"/>
</g>
<defs>
<clipPath id="clip0">
<rect width="71.6711" height="60" fill="white"/>
</clipPath>
</defs>
</svg>
