<svg width="75" height="60" viewBox="0 0 75 60" fill="none" xmlns="http://www.w3.org/2000/svg">
<g clip-path="url(#clip0)">
<path d="M65.4632 29.326C63.4372 29.326 61.4486 29.9601 59.8635 31.1116C59.3843 31.4594 58.9475 31.8513 58.5589 32.2781C56.8732 30.4601 54.3621 29.326 51.6272 29.326C46.7631 29.326 42.8051 33.2832 42.8051 38.1482C42.8051 40.3281 43.6072 42.4215 45.0632 44.0423C45.084 44.0648 45.1048 44.0873 45.1256 44.1089L53.0899 52.1938C53.8637 52.9793 55.1284 52.9892 55.9139 52.2154C56.6993 51.4416 56.7093 50.1769 55.9355 49.3915L48.0062 41.3424C47.2274 40.4604 46.7989 39.328 46.7989 38.149C46.7989 35.4865 48.9647 33.3207 51.6272 33.3207C54.0684 33.3207 56.1726 34.8034 56.6294 36.846C56.8333 37.7588 57.6437 38.4069 58.578 38.4069C58.5797 38.4069 58.5814 38.4069 58.583 38.4069C59.5199 38.4044 60.3287 37.7513 60.5292 36.8369C60.9743 34.8 63.0494 33.3215 65.4632 33.3215C68.1257 33.3215 70.2915 35.4873 70.2915 38.1498C70.2915 39.3247 69.8655 40.4546 69.0909 41.3357L57.1386 53.4893C57.0895 53.5392 57.0438 53.5908 57.0013 53.6449L54.5668 56.0062H4.06784C4.53544 49.7451 7.1988 43.9225 11.6843 39.437C16.6433 34.478 23.2372 31.7464 30.2504 31.7464C33.7958 31.7464 37.2346 32.4404 40.4704 33.8091C41.4863 34.2384 42.6578 33.7633 43.0871 32.7482C43.5165 31.7323 43.0414 30.5608 42.0263 30.1315C40.8024 29.6139 39.5535 29.1813 38.2838 28.8318C42.7602 26.0986 45.7547 21.1679 45.7547 15.55C45.7547 6.97581 38.7788 0 30.2047 0C21.6305 0 14.6555 6.97582 14.6555 15.5491C14.6555 21.1779 17.6625 26.1185 22.1539 28.8476C20.9058 29.1938 19.6786 29.6206 18.4746 30.1298C14.8719 31.6533 11.6369 33.834 8.85955 36.6122C6.08221 39.3896 3.90143 42.6245 2.37714 46.2273C0.800421 49.9581 0 53.9195 0 58.0031C0 59.1056 0.894442 60 1.99689 60H55.3755C55.8947 60 56.3931 59.7978 56.7659 59.4367L59.9526 56.3457C60.0208 56.2791 60.0815 56.2084 60.1381 56.1352L71.9739 44.0981C71.9955 44.0756 72.0171 44.0531 72.0379 44.0298C73.4874 42.4107 74.2853 40.3223 74.2853 38.1482C74.2853 33.2841 70.3273 29.326 65.4632 29.326ZM18.6493 15.5491C18.6493 9.17739 23.8329 3.99379 30.2047 3.99379C36.5764 3.99379 41.76 9.17739 41.76 15.5491C41.76 21.9209 36.5764 27.1045 30.2047 27.1045C23.8329 27.1045 18.6493 21.9209 18.6493 15.5491Z" fill="#FFFFFF"/>
</g>
<defs>
<clipPath id="clip0">
<rect width="74.2853" height="60" fill="white"/>
</clipPath>
</defs>
</svg>
