<svg width="53" height="53" viewBox="0 0 53 53" fill="none" xmlns="http://www.w3.org/2000/svg">
<path d="M18.2561 32.418C17.8497 32.418 17.5759 32.4577 17.4346 32.4975V35.0989C17.6024 35.1386 17.8122 35.1497 18.1015 35.1497C19.1593 35.1497 19.8107 34.6153 19.8107 33.7121C19.8107 32.9038 19.2498 32.418 18.2561 32.418ZM25.9565 32.4445C25.5149 32.4445 25.2278 32.4842 25.0577 32.524V38.2877C25.2278 38.3275 25.5016 38.3275 25.7489 38.3275C27.5532 38.3407 28.728 37.347 28.728 35.2446C28.7412 33.4117 27.6702 32.4445 25.9565 32.4445Z" fill="#B86AAB"/>
<path d="M30.9163 4.41663H13.2497C12.0783 4.41663 10.9549 4.88195 10.1266 5.71024C9.29833 6.53852 8.83301 7.66192 8.83301 8.83329V44.1666C8.83301 45.338 9.29833 46.4614 10.1266 47.2897C10.9549 48.118 12.0783 48.5833 13.2497 48.5833H39.7497C40.921 48.5833 42.0444 48.118 42.8727 47.2897C43.701 46.4614 44.1663 45.338 44.1663 44.1666V17.6666L30.9163 4.41663ZM20.9744 35.7529C20.292 36.3933 19.285 36.6804 18.1124 36.6804C17.8851 36.6828 17.6578 36.6696 17.4323 36.6406V39.7897H15.458V31.0977C16.349 30.9648 17.2492 30.9042 18.15 30.9166C19.38 30.9166 20.2545 31.1507 20.8441 31.6211C21.405 32.0672 21.7849 32.7981 21.7849 33.6594C21.7827 34.525 21.4956 35.256 20.9744 35.7529ZM29.3815 38.7452C28.454 39.5159 27.0429 39.8825 25.3182 39.8825C24.2847 39.8825 23.5538 39.8162 23.0569 39.75V31.0999C23.9482 30.9698 24.8481 30.9086 25.7488 30.9166C27.4205 30.9166 28.507 31.217 29.355 31.8574C30.2715 32.5375 30.8457 33.6218 30.8457 35.1787C30.8457 36.8637 30.2295 38.0275 29.3815 38.7452ZM37.5413 32.617H34.1582V34.6288H37.3205V36.2498H34.1582V39.7919H32.1574V30.9829H37.5413V32.617ZM30.9163 19.875H28.708V8.83329L39.7497 19.875H30.9163Z" fill="#B86AAB"/>
</svg>
