<svg width="76" height="60" viewBox="0 0 76 60" fill="none" xmlns="http://www.w3.org/2000/svg">
<g clip-path="url(#clip0)">
<path d="M75.1915 8.13873C75.1915 7.59087 74.9715 7.06616 74.5804 6.68132C74.1902 6.29736 73.662 6.08891 73.1132 6.09514L67.7004 6.1869V2.05072C67.7004 2.03914 67.6995 2.02845 67.6995 2.01687C67.6995 1.99905 67.6987 1.98123 67.6978 1.96342C67.6969 1.94649 67.696 1.93045 67.6951 1.91353C67.6942 1.89571 67.6924 1.877 67.6906 1.85919C67.6889 1.84315 67.6871 1.82712 67.6853 1.81108C67.6835 1.79327 67.6808 1.77456 67.6782 1.75674C67.6755 1.74071 67.6728 1.72556 67.671 1.70953C67.6684 1.69171 67.6648 1.67389 67.6612 1.65608C67.6586 1.64004 67.655 1.6249 67.6514 1.60886C67.6479 1.59193 67.6434 1.57412 67.6399 1.55719C67.6363 1.54116 67.6318 1.52601 67.6274 1.50998C67.6229 1.49305 67.6185 1.47702 67.6131 1.46009C67.6087 1.44406 67.6033 1.42891 67.598 1.41288C67.5927 1.39684 67.5873 1.38081 67.582 1.36477C67.5766 1.34873 67.5704 1.33359 67.5641 1.31756C67.5579 1.30241 67.5526 1.28727 67.5463 1.27212C67.5401 1.25609 67.533 1.24094 67.5258 1.22491C67.5196 1.21065 67.5134 1.19551 67.5062 1.18126C67.4991 1.16522 67.4911 1.15008 67.4831 1.13493C67.476 1.12068 67.4688 1.10643 67.4617 1.09306C67.4537 1.07792 67.4448 1.06277 67.4368 1.04763C67.4287 1.03427 67.4216 1.02091 67.4136 1.00754C67.4047 0.992398 67.3958 0.978145 67.386 0.963C67.378 0.949638 67.369 0.937166 67.361 0.923803C67.3512 0.90955 67.3414 0.895296 67.3316 0.881043C67.3227 0.868571 67.3138 0.855208 67.304 0.842737C67.2942 0.829374 67.2835 0.816011 67.2737 0.801758C67.2639 0.789286 67.2541 0.776814 67.2443 0.764343C67.2336 0.75098 67.2229 0.738508 67.2123 0.726036C67.2016 0.713565 67.1918 0.701984 67.1811 0.689512C67.1704 0.67704 67.1588 0.665459 67.1481 0.652987C67.1365 0.641406 67.1258 0.628935 67.1143 0.617354C67.1027 0.605773 67.0911 0.594192 67.0795 0.583502C67.0679 0.571921 67.0555 0.56034 67.043 0.548759C67.0314 0.538069 67.0198 0.527379 67.0074 0.516688C66.9949 0.505108 66.9824 0.494417 66.9691 0.483727C66.9575 0.473928 66.945 0.464129 66.9325 0.454329C66.9192 0.443639 66.9058 0.432949 66.8924 0.422259C66.88 0.41246 66.8675 0.403551 66.855 0.394643C66.8408 0.384844 66.8274 0.374154 66.8132 0.364354C66.8007 0.355446 66.7873 0.347428 66.774 0.33852C66.7597 0.328721 66.7455 0.319812 66.7303 0.310904C66.7169 0.302886 66.7036 0.294869 66.6902 0.286851C66.6751 0.277943 66.6599 0.269034 66.6448 0.261017C66.6314 0.252999 66.6172 0.245872 66.6029 0.238746C66.5878 0.230728 66.5726 0.222711 66.5575 0.215584C66.5432 0.208457 66.5281 0.20133 66.5138 0.195094C66.4987 0.187968 66.4836 0.180841 66.4675 0.174605C66.4524 0.168369 66.4372 0.162133 66.4221 0.155897C66.4069 0.149661 66.3909 0.143426 66.3758 0.13719C66.3597 0.130954 66.3437 0.125609 66.3277 0.120264C66.3125 0.114919 66.2974 0.109574 66.2813 0.104229C66.2644 0.0988835 66.2475 0.0935384 66.2306 0.0890842C66.2154 0.08463 66.2003 0.0801758 66.1842 0.0757216C66.1664 0.0712674 66.1495 0.0668132 66.1317 0.0623589C66.1165 0.0587956 66.1014 0.0552322 66.0862 0.0516688C66.0684 0.0481055 66.0497 0.0445421 66.0319 0.0409787C66.0167 0.0383062 66.0016 0.0356337 65.9865 0.0329612C65.9678 0.0302886 65.9491 0.0276161 65.9303 0.0249436C65.9152 0.0231619 65.9 0.0204894 65.8849 0.0187077C65.8662 0.016926 65.8475 0.0151443 65.8279 0.0133626C65.8119 0.0124718 65.7967 0.0106901 65.7807 0.00979926C65.762 0.00890842 65.7433 0.00801758 65.7246 0.00712674C65.7139 0.00712674 65.7032 0.00623589 65.6925 0.00534505C65.4297 0.00267253 65.1615 0 64.8952 0C59.029 0 53.2456 1.22758 48.1714 3.5509C44.0397 5.44215 40.4282 8.02916 37.5962 11.1079C34.7642 8.02916 31.1519 5.44215 27.021 3.5509C21.9468 1.22758 16.1634 0 10.2972 0C10.0309 0 9.76185 0.00267253 9.49816 0.00712674C9.48747 0.00712674 9.47678 0.00801758 9.46609 0.00890842C9.44738 0.00979926 9.42867 0.00979926 9.40997 0.0115809C9.39393 0.0124718 9.37879 0.0142535 9.36275 0.0151443C9.34404 0.016926 9.32444 0.0187077 9.30574 0.0204894C9.29059 0.0222711 9.27545 0.0240527 9.2603 0.0267253C9.2416 0.0293978 9.22289 0.0320703 9.20418 0.0347428C9.18904 0.0374154 9.17389 0.0400879 9.15875 0.0427604C9.14004 0.0463238 9.12222 0.0498872 9.10441 0.0534505C9.08926 0.0570139 9.07412 0.0605773 9.05897 0.0641406C9.04116 0.0685949 9.02423 0.0730491 9.00641 0.0775033C8.99127 0.0819575 8.97612 0.0864117 8.96098 0.0908659C8.94405 0.0962109 8.92713 0.100665 8.9102 0.10601C8.89506 0.111355 8.87902 0.1167 8.86388 0.121155C8.84784 0.1265 8.83181 0.132735 8.81577 0.138081C8.80063 0.144316 8.78459 0.150552 8.76945 0.156788C8.75431 0.163024 8.73916 0.16926 8.72402 0.175496C8.70887 0.182623 8.69284 0.188859 8.67769 0.195985C8.66344 0.203112 8.6483 0.209348 8.63404 0.216475C8.6189 0.223601 8.60375 0.231619 8.58861 0.239637C8.57436 0.246763 8.56099 0.254781 8.54674 0.261908C8.5316 0.269925 8.51645 0.278834 8.5022 0.287742C8.48884 0.29576 8.47547 0.303777 8.46211 0.311795C8.44786 0.320703 8.43271 0.330502 8.41846 0.339411C8.4051 0.348319 8.39262 0.356337 8.37926 0.365245C8.36501 0.375045 8.35164 0.384844 8.33739 0.394643C8.32492 0.403551 8.31156 0.413351 8.29909 0.422259C8.28483 0.43384 8.27147 0.44453 8.25811 0.45522C8.24564 0.46502 8.23316 0.474819 8.22158 0.485509C8.20822 0.496199 8.19575 0.506889 8.18328 0.51847C8.1708 0.52916 8.15922 0.53985 8.14764 0.55054C8.13517 0.562121 8.12359 0.572811 8.11201 0.584392C8.10043 0.595973 8.08885 0.607554 8.07727 0.619135C8.06568 0.630716 8.05499 0.642297 8.0443 0.653878C8.03272 0.66635 8.02114 0.678822 8.01045 0.691294C7.99976 0.702874 7.98996 0.714455 7.98016 0.726927C7.96769 0.739399 7.957 0.752762 7.94631 0.766124C7.93651 0.777705 7.92671 0.790177 7.9178 0.801758C7.90711 0.815121 7.89642 0.829374 7.88663 0.843628C7.87772 0.856099 7.86881 0.868571 7.8599 0.881043C7.8501 0.895296 7.83941 0.910441 7.82961 0.924694C7.82159 0.937166 7.81358 0.949638 7.80556 0.963C7.79576 0.978145 7.78685 0.993289 7.77794 1.00843C7.76993 1.02091 7.7628 1.03427 7.75567 1.04763C7.74676 1.06277 7.73785 1.07881 7.72984 1.09485C7.72271 1.10821 7.71558 1.12157 7.70935 1.13582C7.70133 1.15186 7.69331 1.16789 7.68619 1.18393C7.67995 1.19818 7.67371 1.21244 7.66748 1.2258C7.66035 1.24183 7.65322 1.25787 7.64699 1.2739C7.64075 1.28816 7.63541 1.3033 7.62917 1.31756C7.62294 1.33359 7.6167 1.34963 7.61136 1.36655C7.60601 1.3817 7.60067 1.39773 7.59532 1.41288C7.58998 1.42891 7.58463 1.44495 7.58018 1.46098C7.57572 1.47702 7.57127 1.49305 7.56681 1.50998C7.56236 1.52601 7.55791 1.54205 7.55434 1.55808C7.54989 1.57501 7.54632 1.59193 7.54276 1.60886C7.5392 1.6249 7.53563 1.64093 7.53296 1.65697C7.5294 1.67478 7.52673 1.69171 7.52316 1.70953C7.52049 1.72556 7.51782 1.7416 7.51514 1.75763C7.51247 1.77545 7.51069 1.79327 7.50802 1.81108C7.50624 1.82712 7.50445 1.84315 7.50267 1.86008C7.50089 1.8779 7.5 1.89571 7.49822 1.91442C7.49733 1.93135 7.49644 1.94827 7.49555 1.96431C7.49466 1.98212 7.49466 1.99994 7.49376 2.01687C7.49376 2.02845 7.49287 2.04003 7.49287 2.05072V45.7296C7.49287 45.7358 7.49287 45.7421 7.49376 45.7483C7.49376 45.7545 7.49376 45.7599 7.49376 45.7661C7.49376 45.7768 7.49466 45.7875 7.49555 45.7991C7.49644 45.8178 7.49644 45.8356 7.49822 45.8543C7.49911 45.8703 7.50089 45.8855 7.50178 45.9015C7.50356 45.9202 7.50534 45.9389 7.50713 45.9577C7.50891 45.9728 7.51069 45.9879 7.51336 46.0031C7.51604 46.0218 7.51871 46.0405 7.52138 46.0592C7.52405 46.0744 7.52673 46.0895 7.5294 46.1038C7.53296 46.1225 7.53652 46.1403 7.54009 46.159C7.54365 46.1741 7.54721 46.1893 7.55078 46.2035C7.55523 46.2213 7.5588 46.2392 7.56414 46.2561C7.5686 46.2712 7.57216 46.2864 7.57661 46.3006C7.58196 46.3176 7.58641 46.3345 7.59176 46.3514C7.59621 46.3666 7.60156 46.3817 7.6069 46.3968C7.61225 46.4129 7.61848 46.4289 7.62383 46.4449C7.62917 46.4601 7.63541 46.4752 7.64164 46.4904C7.64788 46.5055 7.65412 46.5216 7.66035 46.5367C7.66659 46.5518 7.67371 46.567 7.68084 46.5821C7.68797 46.5964 7.6942 46.6115 7.70133 46.6258C7.70846 46.6409 7.71647 46.6561 7.72449 46.6712C7.73162 46.6855 7.73875 46.6988 7.74676 46.7131C7.75478 46.7282 7.76369 46.7434 7.7726 46.7576C7.78062 46.771 7.78863 46.7844 7.79665 46.7977C7.80556 46.812 7.81536 46.8271 7.82427 46.8414C7.83228 46.8547 7.84119 46.8672 7.8501 46.8806C7.8599 46.8948 7.8697 46.9091 7.88039 46.9224C7.8893 46.9349 7.89821 46.9474 7.90711 46.9599C7.91781 46.9732 7.9285 46.9866 7.93919 46.9999C7.94898 47.0124 7.95789 47.024 7.96858 47.0365C7.97927 47.0498 7.99085 47.0623 8.00154 47.0748C8.01223 47.0864 8.02203 47.0988 8.03272 47.1104C8.0443 47.1229 8.05589 47.1345 8.06658 47.146C8.07727 47.1576 8.08885 47.1692 8.10043 47.1808C8.11201 47.1924 8.12359 47.2031 8.13517 47.2137C8.14675 47.2253 8.15922 47.2369 8.1717 47.2476C8.18328 47.2583 8.19486 47.2681 8.20733 47.2779C8.2198 47.2886 8.23316 47.3002 8.24564 47.3108C8.25722 47.3206 8.26969 47.3296 8.28216 47.3394C8.29552 47.35 8.30888 47.3607 8.32314 47.3714C8.33472 47.3803 8.34719 47.3883 8.35966 47.3973C8.37392 47.4079 8.38817 47.4177 8.40331 47.4275C8.41579 47.4356 8.42826 47.4436 8.44073 47.4516C8.45587 47.4614 8.47102 47.4712 8.48616 47.4801C8.49863 47.4881 8.512 47.4944 8.52447 47.5024C8.53961 47.5113 8.55565 47.5202 8.57168 47.5291C8.58505 47.5362 8.59841 47.5425 8.61177 47.5496C8.62781 47.5576 8.64295 47.5656 8.65899 47.5736C8.67324 47.5808 8.68749 47.5861 8.70175 47.5932C8.71778 47.6004 8.73293 47.6075 8.74896 47.6146C8.7641 47.6209 8.77925 47.6271 8.79439 47.6324C8.80954 47.6387 8.82557 47.6449 8.84072 47.6503C8.85764 47.6565 8.87457 47.6618 8.8915 47.6672C8.90575 47.6716 8.92 47.677 8.93515 47.6814C8.95385 47.6877 8.97345 47.6921 8.99216 47.6975C9.00463 47.701 9.018 47.7046 9.03047 47.7082C9.05185 47.7135 9.07412 47.7189 9.0955 47.7233C9.10619 47.726 9.11688 47.7286 9.12846 47.7304C9.15429 47.7358 9.18013 47.7402 9.20596 47.7438C9.21309 47.7447 9.22111 47.7465 9.22823 47.7474C9.25763 47.7518 9.28703 47.7554 9.31643 47.7589C9.32088 47.7598 9.32534 47.7598 9.32979 47.7607C9.39839 47.7678 9.46787 47.7714 9.53736 47.7714C9.53736 47.7714 9.53736 47.7714 9.53825 47.7714C9.54983 47.7714 9.5623 47.7714 9.57388 47.7714C9.81441 47.767 10.0585 47.7652 10.2999 47.7652C15.1372 47.7652 19.8987 48.6872 24.1561 50.4386C18.819 49.5914 12.7622 49.6636 7.08309 49.7313C6.05149 49.7437 5.05909 49.7553 4.09075 49.7616V8.13873C4.09075 7.01004 3.17585 6.09514 2.04716 6.09514C0.918458 6.09514 0 7.01004 0 8.13873V51.8176C0 51.8238 0 51.8301 0.000890842 51.8363C0.000890842 51.8426 0.000890842 51.8479 0.000890842 51.8541C0.000890842 51.8648 0.00178168 51.8755 0.00267253 51.8871C0.00356337 51.9058 0.00356337 51.9236 0.00534505 51.9423C0.00623589 51.9584 0.00801758 51.9744 0.00890842 51.9895C0.0106901 52.0083 0.0124718 52.027 0.0142535 52.0457C0.0160352 52.0608 0.0178168 52.0769 0.0204894 52.092C0.0231619 52.1107 0.0258344 52.1294 0.0285069 52.1472C0.0311795 52.1624 0.033852 52.1775 0.0365245 52.1927C0.0400879 52.2105 0.0436513 52.2283 0.0472146 52.247C0.050778 52.2621 0.0543414 52.2773 0.0579047 52.2933C0.0623589 52.3103 0.0659223 52.3281 0.0703765 52.345C0.0748307 52.3601 0.079285 52.3762 0.0837392 52.3913C0.0881934 52.4082 0.0935384 52.4243 0.0988835 52.4412C0.104229 52.4572 0.109574 52.4724 0.114919 52.4875C0.120264 52.5036 0.125609 52.5187 0.131845 52.5347C0.138081 52.5508 0.144316 52.5659 0.150552 52.582C0.156788 52.5971 0.162133 52.6122 0.16926 52.6265C0.176387 52.6425 0.183513 52.6577 0.19064 52.6737C0.196876 52.688 0.204003 52.7022 0.210239 52.7165C0.218256 52.7325 0.226274 52.7477 0.234291 52.7637C0.241418 52.7771 0.248545 52.7904 0.255672 52.8038C0.26458 52.8198 0.273489 52.835 0.282397 52.8501C0.289524 52.8626 0.297541 52.8759 0.304668 52.8884C0.314467 52.9036 0.324267 52.9187 0.333175 52.9338C0.341193 52.9463 0.34921 52.9588 0.357228 52.9713C0.367027 52.9864 0.377717 53.0007 0.388407 53.0149C0.397316 53.0265 0.405333 53.039 0.414242 53.0505C0.424932 53.0648 0.435622 53.0782 0.447203 53.0924C0.456111 53.104 0.46591 53.1156 0.474819 53.1272C0.4864 53.1405 0.497981 53.1539 0.508671 53.1664C0.51847 53.1779 0.528269 53.1895 0.53896 53.2002C0.55054 53.2127 0.562121 53.2251 0.574593 53.2376C0.585283 53.2492 0.595973 53.2599 0.606664 53.2715C0.618244 53.2831 0.630716 53.2946 0.642297 53.3062C0.653878 53.3169 0.665459 53.3285 0.67704 53.3392C0.688621 53.3499 0.701093 53.3606 0.713565 53.3703C0.726036 53.381 0.738508 53.3917 0.75098 53.4024C0.763452 53.4122 0.775924 53.422 0.787504 53.4318C0.800867 53.4425 0.81423 53.4532 0.827592 53.463C0.840064 53.4719 0.852536 53.4808 0.865008 53.4897C0.879261 53.4995 0.893515 53.5102 0.907768 53.52C0.92024 53.528 0.932712 53.536 0.945184 53.5441C0.960328 53.5539 0.974581 53.5637 0.989726 53.5726C1.0022 53.5806 1.01556 53.5877 1.02892 53.5948C1.04407 53.6038 1.05921 53.6127 1.07525 53.6207C1.08861 53.6278 1.10197 53.6349 1.11533 53.6412C1.13137 53.6492 1.14651 53.6572 1.16255 53.6652C1.1768 53.6723 1.19106 53.6786 1.20531 53.6848C1.22134 53.6919 1.23649 53.6991 1.25252 53.7062C1.26767 53.7124 1.28281 53.7187 1.29885 53.724C1.31399 53.7303 1.32914 53.7365 1.34517 53.7418C1.3621 53.7481 1.37902 53.7534 1.39595 53.7588C1.4102 53.7632 1.42446 53.7686 1.43871 53.773C1.45742 53.7793 1.47702 53.7837 1.49661 53.789C1.50909 53.7926 1.52245 53.7962 1.53492 53.7997C1.5563 53.8051 1.57857 53.8104 1.60084 53.8149C1.61153 53.8176 1.62222 53.8202 1.63291 53.822C1.65875 53.8274 1.68458 53.8318 1.71042 53.8354C1.71754 53.8363 1.72556 53.838 1.73269 53.8389C1.76209 53.8434 1.79148 53.847 1.82088 53.8505C1.82534 53.8514 1.82979 53.8514 1.83424 53.8523C1.90284 53.8594 1.97232 53.863 2.04181 53.863C2.04181 53.863 2.04181 53.863 2.0427 53.863C2.05428 53.863 2.06675 53.863 2.07833 53.863C2.31886 53.8585 2.56295 53.8568 2.80437 53.8568C4.20299 53.8568 5.623 53.8398 7.12674 53.822C12.56 53.757 18.1785 53.6902 23.104 54.4207C28.3644 55.2001 31.8298 56.7645 33.6979 59.2027C34.0845 59.7078 34.684 60.0036 35.3201 60.0036H37.5909C37.5918 60.0036 37.5926 60.0036 37.5926 60.0036C37.5935 60.0036 37.5935 60.0036 37.5944 60.0036C37.5953 60.0036 37.5953 60.0036 37.5962 60.0036C37.5971 60.0036 37.598 60.0036 37.598 60.0036H39.8652C39.8661 60.0036 39.867 60.0036 39.867 60.0036C39.8732 60.0036 39.8785 60.0027 39.8848 60.0027C39.916 60.0027 39.9471 60.0018 39.9783 60C39.9855 60 39.9935 59.9991 40.0006 59.9982C40.0309 59.9964 40.0612 59.9938 40.0915 59.9902C40.0977 59.9893 40.1039 59.9884 40.1102 59.9875C40.1413 59.984 40.1734 59.9795 40.2037 59.9742C40.209 59.9733 40.2144 59.9724 40.2197 59.9715C40.2518 59.9661 40.2839 59.9599 40.3151 59.9528C40.3195 59.9519 40.3249 59.9501 40.3293 59.9492C40.3614 59.9421 40.3935 59.9332 40.4255 59.9243C40.43 59.9234 40.4344 59.9216 40.4389 59.9207C40.471 59.9109 40.5039 59.9011 40.5351 59.8904C40.5387 59.8895 40.5422 59.8878 40.5467 59.8869C40.5805 59.8753 40.6144 59.8619 40.6473 59.8486C40.6491 59.8477 40.65 59.8477 40.6518 59.8468C40.6874 59.8325 40.7222 59.8165 40.756 59.8005C40.7587 59.7996 40.7614 59.7978 40.764 59.7969C40.7926 59.7826 40.8219 59.7684 40.8496 59.7523C40.8638 59.7443 40.8781 59.7354 40.8932 59.7274C40.9093 59.7185 40.9253 59.7087 40.9404 59.6998C40.9574 59.6891 40.9743 59.6784 40.9903 59.6677C41.0028 59.6597 41.0153 59.6508 41.0277 59.6428C41.0456 59.6303 41.0634 59.6178 41.0803 59.6054C41.091 59.5973 41.1017 59.5893 41.1115 59.5813C41.1293 59.5679 41.1471 59.5537 41.1649 59.5394C41.1738 59.5323 41.1819 59.5252 41.1899 59.5181C41.2193 59.4931 41.2478 59.4673 41.2763 59.4406C41.2905 59.4272 41.3048 59.4138 41.3181 59.3996C41.3288 59.3889 41.3395 59.3773 41.3502 59.3657C41.3663 59.3488 41.3823 59.3319 41.3974 59.3141C41.4063 59.3043 41.4144 59.2945 41.4233 59.2847C41.442 59.2624 41.4598 59.2401 41.4776 59.2178C41.4812 59.2134 41.4847 59.2089 41.4892 59.2045C43.3573 56.7662 46.8227 55.2019 52.0831 54.4224C57.0086 53.6919 62.6271 53.7597 68.0603 53.8238C69.5641 53.8416 70.985 53.8585 72.3827 53.8585C72.6241 53.8585 72.8682 53.8603 73.1087 53.8648C73.115 53.8648 73.1203 53.8648 73.1266 53.8648C73.1328 53.8648 73.139 53.8657 73.1453 53.8657C73.156 53.8657 73.1666 53.8648 73.1764 53.8648C73.196 53.8648 73.2165 53.8639 73.2361 53.863C73.2486 53.8621 73.262 53.8612 73.2744 53.8612C73.2976 53.8594 73.3208 53.8585 73.3439 53.8559C73.3528 53.855 73.3617 53.8541 73.3707 53.8532C73.3974 53.8505 73.4241 53.847 73.4499 53.8434C73.4553 53.8425 73.4606 53.8416 73.466 53.8407C73.4963 53.8363 73.5257 53.8309 73.5551 53.8247C73.5568 53.8247 73.5586 53.8238 73.5604 53.8238C74.1902 53.6946 74.714 53.275 74.9866 52.7102C74.9875 52.7085 74.9884 52.7076 74.9884 52.7058C75.0018 52.6782 75.0143 52.6506 75.0258 52.6229C75.0276 52.6185 75.0294 52.614 75.0312 52.6096C75.0419 52.5846 75.0517 52.5588 75.0615 52.5339C75.0641 52.5258 75.0668 52.5187 75.0695 52.5107C75.0775 52.4875 75.0855 52.4653 75.0927 52.4421C75.0962 52.4314 75.0989 52.4207 75.1024 52.41C75.1087 52.3895 75.1149 52.369 75.1203 52.3477C75.1238 52.3343 75.1274 52.3209 75.1301 52.3076C75.1345 52.2889 75.139 52.2702 75.1425 52.2515C75.1461 52.2354 75.1488 52.2194 75.1514 52.2042C75.155 52.1873 75.1577 52.1704 75.1604 52.1535C75.163 52.1356 75.1657 52.1187 75.1684 52.1009C75.1702 52.0849 75.1728 52.0688 75.1746 52.0528C75.1764 52.0341 75.1782 52.0154 75.1799 51.9967C75.1808 51.9806 75.1826 51.9655 75.1835 51.9495C75.1844 51.9308 75.1853 51.912 75.1862 51.8933C75.1862 51.8826 75.1871 51.872 75.188 51.8613C75.188 51.855 75.188 51.8497 75.188 51.8435C75.188 51.8372 75.1889 51.831 75.1889 51.8247V8.13873H75.1915ZM35.6791 15.1452V52.884C33.199 50.6346 30.2699 48.7166 27.0201 47.2289C22.3156 45.0757 17.0026 43.8642 11.5783 43.6985V4.10946C16.4173 4.27248 21.1432 5.35485 25.3195 7.2666C29.5207 9.18993 33.0921 11.9079 35.6791 15.1452ZM51.039 50.4395C55.2964 48.6881 60.0579 47.7652 64.8952 47.7652C65.019 47.7652 65.1393 47.7536 65.2569 47.7322C65.386 47.758 65.5197 47.7714 65.6569 47.7714C66.7855 47.7714 67.7004 46.8565 67.7004 45.7278V15.2967C67.7004 14.168 66.7855 13.2531 65.6569 13.2531C64.5282 13.2531 63.6133 14.168 63.6133 15.2967V43.6994C58.1889 43.8651 52.875 45.0766 48.1714 47.2298C45.0321 48.6667 42.1921 50.5063 39.7663 52.6577V14.8334C42.331 11.7333 45.8071 9.12757 49.872 7.2666C54.0483 5.35485 58.7742 4.27248 63.6133 4.10946V8.26523C63.6133 8.2688 63.6133 8.27236 63.6133 8.27681C63.6133 8.28483 63.6133 8.29285 63.6133 8.29998C63.6133 8.31601 63.615 8.33116 63.615 8.34719C63.6159 8.35877 63.6159 8.37124 63.6168 8.38282C63.6177 8.40599 63.6204 8.42826 63.6222 8.45053C63.6231 8.46211 63.6239 8.47458 63.6257 8.48616C63.6284 8.50843 63.6311 8.5316 63.6346 8.55387C63.6364 8.56545 63.6373 8.57614 63.6391 8.58772C63.6427 8.61088 63.6471 8.63404 63.6516 8.65631C63.6533 8.667 63.6551 8.6768 63.6578 8.68749C63.6631 8.71154 63.6685 8.73471 63.6738 8.75787C63.6765 8.76678 63.6783 8.77569 63.681 8.78459C63.6872 8.80954 63.6943 8.83359 63.7015 8.85764C63.7041 8.86477 63.7059 8.87279 63.7086 8.87991C63.7166 8.90575 63.7255 8.93158 63.7344 8.95653C63.7362 8.96187 63.738 8.96722 63.7406 8.97256C63.7504 9.00018 63.7611 9.0269 63.7727 9.05363C63.7745 9.05719 63.7754 9.05986 63.7772 9.06343C63.7896 9.09194 63.8021 9.12044 63.8155 9.14895C63.8164 9.14984 63.8164 9.15073 63.8173 9.15251C64.1326 9.80728 64.7856 10.267 65.5464 10.3062C65.5499 10.3062 65.5544 10.307 65.558 10.307C65.5829 10.3079 65.6087 10.3088 65.6346 10.3088C65.6426 10.3088 65.6506 10.3097 65.6586 10.3097C65.664 10.3097 65.6693 10.3097 65.6747 10.3097C65.6809 10.3097 65.6871 10.3097 65.6934 10.3097L71.107 10.218V49.7624C70.1387 49.7562 69.1463 49.7446 68.1147 49.7322C62.4329 49.6645 56.3752 49.5923 51.039 50.4395Z" fill="#B86AAB"/>
</g>
<defs>
<clipPath id="clip0">
<rect width="75.1915" height="60" fill="white"/>
</clipPath>
</defs>
</svg>
