<svg width="100" height="60" viewBox="0 0 100 60" fill="none" xmlns="http://www.w3.org/2000/svg">
<path d="M92.6781 35.914C89.9464 32.9451 86.4052 30.5084 82.4392 28.8688C81.575 28.512 80.6892 28.1943 79.7889 27.9128C83.3714 25.0368 85.6689 20.6232 85.6689 15.6816C85.6679 7.03492 78.633 0 69.9862 0C61.3395 0 54.3046 7.03492 54.3046 15.6816C54.3046 20.7449 56.7177 25.2544 60.4527 28.1232C56.5135 29.5741 52.83 31.9232 49.5909 35.0828C46.3519 31.9222 42.6684 29.5731 38.7292 28.1232C42.4642 25.2544 44.8773 20.7449 44.8773 15.6816C44.8783 7.03492 37.8434 0 29.1967 0C20.55 0 13.5151 7.03492 13.5151 15.6816C13.5151 20.6108 15.8012 25.0141 19.3682 27.8912C18.7381 28.0902 18.1153 28.3067 17.5007 28.545C13.7667 29.9928 10.5049 32.1037 7.80627 34.8209C2.64609 40.0151 -0.052595 47.0243 0.00102796 55.0904C0.0103089 56.4516 1.1168 57.5488 2.47594 57.5488C2.48109 57.5488 2.48728 57.5488 2.49243 57.5488C3.85879 57.5395 4.96012 56.4248 4.95084 55.0574C4.9065 48.338 7.10814 42.5467 11.3186 38.3085C13.5254 36.0872 16.2075 34.3548 19.2909 33.1596C22.3649 31.9686 25.6947 31.3633 29.1884 31.3622C29.1915 31.3622 29.1946 31.3622 29.1967 31.3622C29.1987 31.3622 29.2018 31.3622 29.2039 31.3622C35.4592 31.3643 41.4681 33.9928 46.321 38.8076C43.545 42.5921 40.2513 48.933 41.8022 54.085C42.4065 56.0917 44.0121 58.7192 48.2256 59.8886C48.2535 59.8969 48.2813 59.9051 48.3102 59.9123H48.3112C48.4133 59.9402 48.5175 59.9608 48.6247 59.9752C48.635 59.9763 48.6464 59.9783 48.6567 59.9794C48.6928 59.9835 48.7289 59.9876 48.766 59.9897C48.7835 59.9907 48.801 59.9928 48.8175 59.9938C48.8474 59.9959 48.8784 59.9959 48.9083 59.9969C48.9248 59.9969 48.9413 59.999 48.9578 59.999C48.9712 59.999 48.9846 59.9979 48.997 59.9969C49.0258 59.9969 49.0547 59.9959 49.0836 59.9948C49.1022 59.9938 49.1207 59.9928 49.1393 59.9917C49.1496 59.9907 49.1599 59.9907 49.1692 59.9897C52.6712 59.7834 55.2471 58.1294 56.4299 55.3224C57.7953 52.0803 56.9889 48.139 56.0721 45.4032C55.2874 43.0624 54.1314 40.7349 52.8351 38.8364C57.6932 34.0032 63.7144 31.3633 69.9832 31.3622C69.9842 31.3622 69.9852 31.3622 69.9873 31.3622C69.9883 31.3622 69.9904 31.3622 69.9914 31.3622C77.3646 31.3633 84.484 34.3177 89.0358 39.2644C92.9389 43.5058 94.7384 48.9021 94.2414 54.8677C94.1279 56.2299 95.1396 57.4261 96.5018 57.5395C97.8671 57.653 99.0602 56.6403 99.1737 55.2791C99.7893 47.8977 97.5423 41.201 92.6781 35.914ZM18.4649 15.6816C18.4649 9.76454 23.2796 4.94981 29.1967 4.94981C35.1138 4.94981 39.9285 9.76454 39.9285 15.6816C39.9285 21.5977 35.1169 26.4104 29.2029 26.4134C29.2008 26.4134 29.1987 26.4134 29.1967 26.4134C29.1946 26.4134 29.1926 26.4134 29.1905 26.4134C23.2755 26.4093 18.4649 21.5967 18.4649 15.6816ZM51.8689 53.4023C51.5884 54.0674 51.0316 54.8357 49.2218 55.0234C47.2779 54.3974 46.7603 53.3848 46.5417 52.6598C46.1065 51.2151 46.4458 49.0661 47.4955 46.6087C48.0266 45.365 48.7319 44.0709 49.5229 42.8633C50.252 44.1276 50.9037 45.5589 51.3801 46.9789C52.2793 49.6621 52.4577 52.004 51.8689 53.4023ZM59.2544 15.6816C59.2544 9.76454 64.0692 4.94981 69.9862 4.94981C75.9033 4.94981 80.7181 9.76454 80.7181 15.6816C80.7181 21.5967 75.9075 26.4104 69.9924 26.4134C69.9904 26.4134 69.9883 26.4134 69.9862 26.4134C69.9842 26.4134 69.9821 26.4134 69.9811 26.4134C64.0661 26.4104 59.2544 21.5967 59.2544 15.6816Z" fill="#FFFFFF"/>
</svg>
