<svg width="49" height="51" viewBox="0 0 49 51" fill="none" xmlns="http://www.w3.org/2000/svg">
<path d="M41.6493 9.22321C37.4032 5.08593 31.8968 2.66147 26.0094 2.3069V1.50083C26.0094 0.672246 25.3333 0 24.5001 0C23.6669 0 22.9908 0.672246 22.9908 1.50083V2.3069C17.1034 2.66147 11.597 5.08531 7.35092 9.22321C2.75076 13.7057 0.140339 19.6965 0.000730353 26.0925C-0.0149913 26.8085 0.479926 27.4351 1.183 27.5902C1.88607 27.7453 2.60109 27.3851 2.891 26.7297C4.04686 24.1189 6.64659 22.4317 9.51422 22.4317C10.7845 22.4317 12.0328 22.7632 13.1245 23.3904C14.1861 24.0001 15.0816 24.8743 15.7142 25.9187C15.9871 26.3695 16.4777 26.6447 17.0072 26.6447C17.5367 26.6447 18.0272 26.3689 18.3001 25.9187C18.9327 24.8743 19.8283 24.0001 20.8898 23.3904C21.5438 23.0146 22.2538 22.7463 22.9908 22.5906V44.5283C22.9908 46.4425 21.4249 47.9996 19.5 47.9996C17.575 47.9996 16.0091 46.4425 16.0091 44.5283C16.0091 43.6997 15.3331 43.0275 14.4999 43.0275C13.6666 43.0275 12.9906 43.6997 12.9906 44.5283C12.9906 48.0972 15.9104 51.0013 19.5 51.0013C23.0889 51.0013 26.0094 48.0978 26.0094 44.5283V20.9303C26.0094 20.1017 25.3333 19.4295 24.5001 19.4295C22.7009 19.4295 20.93 19.9004 19.3799 20.7908C18.4988 21.2967 17.6989 21.9315 17.0072 22.6681C16.3154 21.9315 15.5155 21.2967 14.6344 20.7908C13.0843 19.9004 11.3134 19.4295 9.51422 19.4295C7.39557 19.4295 5.38068 20.0792 3.70412 21.2255C4.67384 17.5134 6.64219 14.1165 9.46391 11.3669C13.5037 7.43097 18.8435 5.26353 24.5001 5.2629C24.5001 5.2629 24.5001 5.2629 24.5007 5.2629C24.5014 5.2629 24.5007 5.2629 24.5014 5.2629C30.158 5.2629 35.4977 7.43097 39.5376 11.3669C42.3593 14.1165 44.327 17.5128 45.2973 21.2248C43.6214 20.0786 41.6059 19.4288 39.4872 19.4288C37.6881 19.4288 35.9172 19.8997 34.367 20.7902C33.486 21.2961 32.6854 21.9308 31.9937 22.6675C31.3931 22.0284 30.7108 21.465 29.9681 20.9978C29.2631 20.5551 28.3312 20.7646 27.8859 21.4656C27.4407 22.1666 27.6514 23.0934 28.3563 23.5361C29.309 24.1346 30.1203 24.9581 30.7014 25.9174C30.9743 26.3683 31.4648 26.6434 31.9943 26.6434C32.5238 26.6434 33.0137 26.3677 33.2873 25.9174C33.9199 24.8731 34.8154 23.9989 35.8769 23.3891C36.968 22.7626 38.2163 22.4311 39.4866 22.4311C42.3542 22.4311 44.954 24.1183 46.1098 26.7297C46.3551 27.2832 46.9028 27.6259 47.4908 27.6259C47.599 27.6259 47.709 27.614 47.8178 27.5902C48.5209 27.4351 49.0158 26.8079 49.0001 26.0925C48.8599 19.6965 46.2494 13.7057 41.6493 9.22321Z" fill="#FFFFFF"/>
</svg>
