<svg width="86" height="60" viewBox="0 0 86 60" fill="none" xmlns="http://www.w3.org/2000/svg">
<g clip-path="url(#clip0)">
<path d="M77.2979 35.0559C74.6015 32.3418 71.3422 30.2323 67.6099 28.7848C66.8348 28.4844 66.0447 28.2173 65.2445 27.98C69.0157 25.1398 71.4581 20.6259 71.4581 15.5519C71.4581 6.97668 64.4823 0 55.907 0C47.3318 0 40.3551 6.97668 40.3551 15.5519C40.3551 20.7539 42.9227 25.366 46.8561 28.1914C42.9505 29.5507 39.2841 31.7891 36.0406 34.8213C34.1425 33.4916 31.9671 32.4614 29.5683 31.7715C31.7909 29.5813 33.1716 26.539 33.1716 23.1786C33.1716 16.5246 27.7583 11.1113 21.1043 11.1113C14.4503 11.1113 9.03699 16.5246 9.03699 23.1786C9.03699 26.9442 10.771 30.312 13.4823 32.5272C10.9026 33.6251 8.53164 35.2181 6.48982 37.26C2.30418 41.4456 -0.000976562 47.011 -0.000976562 52.9306V56.4699C-0.000976562 57.6985 0.995824 58.6953 2.22444 58.6953C3.45305 58.6953 4.44986 57.6985 4.44986 56.4699V52.9297C4.44986 43.4791 11.8911 35.7337 21.2221 35.2441C21.4242 35.2422 21.6254 35.2348 21.8248 35.2237C21.937 35.2218 22.0483 35.2191 22.1605 35.2191C26.3155 35.2191 30.0106 36.2186 32.9695 38.126C31.4265 40.1743 30.056 43.0173 29.216 45.9548C28.5669 48.2248 27.7008 52.5309 29.1928 55.8626C30.3778 58.508 32.7775 59.9768 35.9478 59.9991C35.9821 59.9991 36.0155 59.9991 36.0498 59.9991C39.2646 59.9991 41.1497 58.6629 42.1688 57.5344C44.6742 54.7591 44.4072 50.7024 44.3126 49.8104C43.9649 45.0573 42.2133 40.9551 39.387 37.7885C44.1587 33.4554 49.9188 31.1039 55.9005 31.102C55.9024 31.102 55.9043 31.102 55.9061 31.102C55.908 31.102 55.9098 31.102 55.9117 31.102C59.4723 31.103 62.8661 31.7187 66.0002 32.9334C69.1464 34.1527 71.8846 35.9219 74.1388 38.1909C78.4394 42.5203 80.6889 48.4315 80.6435 55.2858C80.6351 56.5144 81.6254 57.5177 82.854 57.5261C84.0808 57.5335 85.086 56.5441 85.0943 55.3155C85.149 47.2511 82.4525 40.2448 77.2979 35.0559ZM13.4888 23.1786C13.4888 18.9791 16.9057 15.5621 21.1052 15.5621C25.3048 15.5621 28.7217 18.9791 28.7217 23.1786C28.7217 27.2029 25.5839 30.5058 21.6273 30.7747C21.4455 30.7794 21.2647 30.7858 21.0848 30.7942C16.8936 30.7831 13.4888 27.3717 13.4888 23.1786ZM39.8766 50.1692C39.8775 50.1785 39.8794 50.2119 39.8859 50.2666C39.9944 51.2383 39.9202 53.3849 38.8659 54.5533C38.2502 55.2348 37.3091 55.5603 35.984 55.5492C34.1684 55.5362 33.5861 54.7814 33.256 54.0442C32.5977 52.5745 32.6876 50.0079 33.4962 47.1797C34.148 44.8987 35.1968 42.6566 36.3326 41.0663C38.4088 43.5245 39.6235 46.6271 39.8766 50.1692ZM44.8059 15.5519C44.8059 9.4302 49.7853 4.45083 55.907 4.45083C62.0288 4.45083 67.0082 9.4302 67.0082 15.5519C67.0082 21.6709 62.0316 26.6494 55.9135 26.6531C55.9117 26.6531 55.9098 26.6531 55.908 26.6531C55.9061 26.6531 55.9043 26.6531 55.9024 26.6531C49.7825 26.6494 44.8059 21.6709 44.8059 15.5519Z" fill="#FFFFFF"/>
</g>
<defs>
<clipPath id="clip0">
<rect width="85.0962" height="60" fill="white"/>
</clipPath>
</defs>
</svg>
